<svg version="1.1" xmlns="http://www.w3.org/2000/svg" xmlns:xlink="http://www.w3.org/1999/xlink" width="57.11823" height="69.94136" viewBox="0,0,57.11823,69.94136"><g transform="translate(-230.5366,-135.67354)"><g stroke-miterlimit="10"><g stroke-linecap="butt"><path d="M232.29085,204.3649l-0.43301,-7.79703l52.25,-0.07797v7.875z" fill="#151212" stroke="#000000" stroke-width="2.5"/><path d="M281.35784,187.7399l2.875,8.25c0,0 -45.72319,0.43345 -51.33666,0.42507c-1.13101,-0.00169 -0.91334,-0.50304 -0.91334,-0.50304l20.68301,-8.29703z" fill="#151212" stroke="#000000" stroke-width="2.5"/><path d="M270.98997,191.02989c0.71932,0.00738 1.45227,0.03905 1.92409,0.10969c1.56846,0.23484 -6.04466,1.32806 -9.65741,1.6511c-0.3844,0.04665 -0.84443,0.07876 -1.32934,0.08834c-0.78601,0.01553 -1.44625,-0.03193 -1.79421,-0.11627c-2.56378,-0.09491 -8.98793,-1.05674 -8.19203,-1.41201c0.31006,-0.1384 2.46181,-0.26696 3.2021,-0.19789c0.43329,0.04043 2.4612,0.3042 4.33842,0.55665c0.43912,-0.4927 1.30485,-1.02166 1.58858,-1.22338c0.17035,-0.12111 0.50068,-0.61302 1.24747,-0.66749l1.7572,-0.1519c0.58739,0.05123 1.514,0.05921 1.87767,0.13906c0.04709,0.01034 0.08475,0.02188 0.111,0.03488c0.62866,0.31129 -1.70373,1.61515 -2.16784,2.01676c-0.03062,0.0265 -0.05758,0.0563 -0.08436,0.08848c3.04326,-0.435 6.79588,-0.91996 7.17868,-0.91604z" fill="#ffffff" stroke="none" stroke-width="0.5"/></g><g stroke="#000000" stroke-width="3"><path d="M286.14991,152.38388c0.05717,6.25254 -0.33266,11.57542 -3.95982,11.60858c-3.62716,0.03317 -8.51551,-7.74359 -8.57268,-13.99612c-0.05717,-6.25254 4.73848,-8.61315 8.36564,-8.64631c3.62716,-0.03317 4.10969,4.78131 4.16686,11.03385z" fill="#ffffff" stroke-linecap="butt"/><path d="M279.08245,162.31424c0.00634,0.69387 1.12087,3.38002 1.07296,5.26711c-0.07539,2.96969 -0.98071,5.16929 -1.19417,5.92854c-0.21722,0.77256 0.54329,1.35261 0.31502,3.27479c-0.42207,3.55405 -1.84914,4.78892 -2.16827,5.11058c-2.89052,2.91333 -10.44622,4.83961 -15.35994,4.88454c-10.32878,0.09445 -17.59516,0.1891 -17.71013,-12.38506c-0.07195,-7.86826 -1.84993,-28.53527 3.56135,-34.06802c3.23641,-3.30906 13.31324,-3.11789 17.1788,-3.15324c2.45104,-0.02241 11.31732,0.98696 13.05868,2.70988c3.43036,3.39403 1.00324,8.05418 1.52354,10.61787c0.21143,1.04181 1.1596,3.0896 1.07793,5.01473c-0.06202,1.46199 -1.37474,4.72129 -1.35575,6.79828z" fill="#ffffff" stroke-linecap="butt"/><path d="M257.72273,149.32848l20.39642,0.43903" fill="none" stroke-linecap="round"/><path d="M255.58229,161.60852l22.89687,0.16595" fill="none" stroke-linecap="round"/><path d="M255.57125,173.99419l21.64281,-0.07279" fill="none" stroke-linecap="round"/></g></g></g></svg>