<svg version="1.1" xmlns="http://www.w3.org/2000/svg" xmlns:xlink="http://www.w3.org/1999/xlink" width="57.36665" height="69.11499" viewBox="0,0,57.36665,69.11499"><g transform="translate(-230.5366,-136.49991)"><g stroke-miterlimit="10"><g stroke-linecap="butt"><path d="M232.29085,204.3649l-0.43301,-7.79703l52.25,-0.07797v7.875z" fill="#151212" stroke="#000000" stroke-width="2.5"/><path d="M281.35784,187.7399l2.875,8.25c0,0 -45.72319,0.43345 -51.33666,0.42507c-1.13101,-0.00169 -0.91334,-0.50304 -0.91334,-0.50304l20.68301,-8.29703z" fill="#151212" stroke="#000000" stroke-width="2.5"/><path d="M270.98997,191.02989c0.71932,0.00738 1.45227,0.03905 1.92409,0.10969c1.56846,0.23484 -6.04466,1.32806 -9.65741,1.6511c-0.3844,0.04665 -0.84443,0.07876 -1.32934,0.08834c-0.78601,0.01553 -1.44625,-0.03193 -1.79421,-0.11627c-2.56378,-0.09491 -8.98793,-1.05674 -8.19203,-1.41201c0.31006,-0.1384 2.46181,-0.26696 3.2021,-0.19789c0.43329,0.04043 2.4612,0.3042 4.33842,0.55665c0.43912,-0.4927 1.30485,-1.02166 1.58858,-1.22338c0.17035,-0.12111 0.50068,-0.61302 1.24747,-0.66749l1.7572,-0.1519c0.58739,0.05123 1.514,0.05921 1.87767,0.13906c0.04709,0.01034 0.08475,0.02188 0.111,0.03488c0.62866,0.31129 -1.70373,1.61515 -2.16784,2.01676c-0.03062,0.0265 -0.05758,0.0563 -0.08436,0.08848c3.04326,-0.435 6.79588,-0.91996 7.17868,-0.91604z" fill="#ffffff" stroke="none" stroke-width="0.5"/></g><g stroke="#000000" stroke-width="3"><path d="M286.40324,153.41125c0,6.2528 -0.43849,11.57189 -4.0658,11.57189c-3.62731,0 -8.44435,-7.82113 -8.44435,-14.07392c0,-6.2528 4.81704,-8.56946 8.44435,-8.56946c3.62731,0 4.0658,4.81869 4.0658,11.07149z" fill="#ffffff" stroke-linecap="butt"/><path d="M279.24528,163.27657c0,0.6939 1.08992,3.39013 1.02476,5.2767c-0.10254,2.96888 -1.02793,5.16011 -1.24833,5.91737c-0.22427,0.77054 0.5309,1.35752 0.28506,3.27753c-0.45455,3.55004 -1.89285,4.77181 -2.21491,5.09054c-2.91704,2.88678 -10.49003,4.74389 -15.40396,4.74389c-10.32921,0 -17.59615,0.02821 -17.59615,-12.54648c0,-7.86859 -1.58894,-28.55099 3.8727,-34.03403c3.26653,-3.27933 13.34119,-2.99603 17.20691,-2.99603c2.45114,0 11.30782,1.0904 13.03336,2.82917c3.39918,3.42525 0.92955,8.06302 1.42639,10.63136c0.2019,1.0437 1.1313,3.10007 1.03203,5.02438c-0.07539,1.46136 -1.41785,4.70852 -1.41785,6.7856z" fill="#ffffff" stroke-linecap="butt"/><path d="M258.00519,150.09605l20.39155,0.62551" fill="none" stroke-linecap="round"/><path d="M255.75255,162.35601l22.8944,0.3753" fill="none" stroke-linecap="round"/><path d="M277.27083,174.86616l-21.64257,-0.1251" fill="none" stroke-linecap="round"/></g></g></g></svg>