<svg version="1.1" xmlns="http://www.w3.org/2000/svg" xmlns:xlink="http://www.w3.org/1999/xlink" width="121.773" height="99.86774" viewBox="0,0,121.773,99.86774"><g transform="translate(-233.79181,-44.7831)"><g stroke-miterlimit="10"><path d="" fill="#ffffff" stroke="#000000" stroke-width="3" stroke-linecap="butt"/><path d="" fill="#ffffff" stroke="#000000" stroke-width="3" stroke-linecap="butt"/><path d="" fill="#ffffff" stroke="#000000" stroke-width="3" stroke-linecap="butt"/><path d="" fill="#ffffff" stroke="#000000" stroke-width="3" stroke-linecap="butt"/><path d="M277.52776,101.23292c0,-25.16888 19.0279,-45.57229 42.5,-45.57229c13.34691,0 25.25683,6.5972 33.04842,16.91642c-6.22146,2.75597 -12.39175,5.60615 -18.52826,8.59666c-14.00869,6.82686 -28.23909,12.78343 -41.99292,20.18792c-0.6267,0.33739 -8.43395,5.31625 -14.25483,8.46615c-0.50693,-2.75118 -0.77241,-5.62191 -0.77241,-8.59485z" fill="#ffffff" stroke="#000000" stroke-width="3" stroke-linecap="butt"/><path d="" fill="#ffffff" stroke="#000000" stroke-width="3" stroke-linecap="round"/><path d="" fill="#ffffff" stroke="#000000" stroke-width="3" stroke-linecap="round"/><path d="M324.60946,62.52003c0,0 15.02762,1.63991 17.36885,8.8848" fill="none" stroke="#000000" stroke-width="3" stroke-linecap="round"/><path d="M291.64006,72.76123c13.29234,-13.74358 21.17503,-9.0291 21.17503,-9.0291" fill="none" stroke="#000000" stroke-width="3" stroke-linecap="round"/><path d="M309.29882,63.36483c0,0 -1.22126,7.68893 -7.98819,9.29605" fill="none" stroke="#000000" stroke-width="3" stroke-linecap="round"/><path d="M334.02423,70.90373c-5.98566,-1.64428 -6.68557,-7.90948 -6.68557,-7.90948" fill="none" stroke="#000000" stroke-width="3" stroke-linecap="round"/><path d="M337.61263,59.7148c0,0 -5.17452,0.32143 -8.48791,-2.21991c-3.31338,-2.54133 -3.91749,-4.96216 -3.91749,-4.96216c0.23826,0.32047 -1.34024,-3.80442 -1.08099,-3.49528c4.74566,5.65882 13.48639,10.67736 13.48639,10.67736z" fill="#000000" stroke="#000000" stroke-width="3" stroke-linecap="round"/><path d="M297.99241,61.03832c0,0 8.74073,-5.87543 13.48639,-12.50046c0.25925,-0.36192 -1.31925,4.46727 -1.08099,4.09209c0,0 -0.60411,2.83417 -3.91749,5.80942c-3.31339,2.97526 -8.48791,2.59895 -8.48791,2.59895z" fill="#000000" stroke="#000000" stroke-width="3" stroke-linecap="round"/><path d="M293.05443,92.87833c4.97744,-10.40999 13.03676,-19.17474 24.1574,-20.03232c7.81031,-0.68091 14.08154,2.52172 19.02405,7.50902c-0.56295,0.27174 -1.1256,0.54462 -1.68796,0.81867c-14.00869,6.82686 -28.23909,12.78343 -41.99292,20.18792c-0.24747,0.13323 -1.6146,0.9902 -3.53696,2.17251c1.04123,-3.51162 2.36969,-7.17001 4.03639,-10.6558z" fill="#000000" stroke="#000000" stroke-width="3" stroke-linecap="butt"/><path d="" fill="#ffffff" stroke="#000000" stroke-width="1.5" stroke-linecap="butt"/><path d="" fill="#ffffff" stroke="#000000" stroke-width="1.5" stroke-linecap="butt"/><path d="M242.00369,111.79325c6.04307,-2.972 13.40069,-0.81313 17.86375,4.77969c-8.55713,3.14059 -16.82235,6.7731 -25.32563,10.48453c-0.858,-6.35009 1.94083,-12.54894 7.46188,-15.26422z" fill="#ffffff" stroke="#000000" stroke-width="1.5" stroke-linecap="butt"/><path d="M253.56481,115.81751c0,-1.38071 1.11929,-2.5 2.5,-2.5c1.38071,0 2.5,1.11929 2.5,2.5c0,1.38071 -1.11929,2.5 -2.5,2.5c-0.07366,0 -0.14657,-0.00319 -0.21861,-0.00943c0.03405,0.16447 0.05194,0.33486 0.05194,0.50943c0,1.12814 -0.74724,2.08175 -1.77378,2.39289c-0.31114,1.02654 -1.26475,1.77378 -2.39289,1.77378c-0.73665,0 -1.39888,-0.31861 -1.85641,-0.82554c-0.16637,1.21933 -1.21192,2.15887 -2.47692,2.15887c-0.30125,0 -0.59006,-0.05328 -0.85751,-0.15094c-0.16981,1.21547 -1.21357,2.15094 -2.47583,2.15094c-0.73535,0 -1.39654,-0.31748 -1.85399,-0.82285c0.01363,0.10569 0.02065,0.21345 0.02065,0.32285c0,1.38071 -1.11929,2.5 -2.5,2.5c-0.53515,0 -1.03103,-0.16815 -1.43768,-0.45449c-1.00341,-0.32498 -1.72899,-1.26718 -1.72899,-2.37885c0,-1.38071 1.11929,-2.5 2.5,-2.5c0.53515,0 1.03103,0.16815 1.43768,0.45449c0.42089,0.13632 0.7929,0.38123 1.08298,0.7017c-0.01363,-0.10569 -0.02065,-0.21345 -0.02065,-0.32285c0,-1.38071 1.11929,-2.5 2.5,-2.5c0.30125,0 0.59006,0.05328 0.85751,0.15094c0.16981,-1.21547 1.21357,-2.15094 2.47583,-2.15094c0.73665,0 1.39888,0.31861 1.85641,0.82554c0.13315,-0.97588 0.82946,-1.77253 1.7507,-2.05176c0.31114,-1.02654 1.26475,-1.77378 2.39289,-1.77378c0.07366,0 0.14657,0.00319 0.21861,0.00943c-0.03405,-0.16447 -0.05194,-0.33486 -0.05194,-0.50943z" fill="#ffffff" stroke="none" stroke-width="0.5" stroke-linecap="butt"/><path d="M256.23148,124.48418c0,-1.38071 1.11929,-2.5 2.5,-2.5c1.38071,0 2.5,1.11929 2.5,2.5c0,1.38071 -1.11929,2.5 -2.5,2.5c-1.38071,0 -2.5,-1.11929 -2.5,-2.5z" fill="#ffffff" stroke="none" stroke-width="0.5" stroke-linecap="butt"/><path d="M245.56481,129.15084c0,-1.38071 1.11929,-2.5 2.5,-2.5c1.38071,0 2.5,1.11929 2.5,2.5c0,1.38071 -1.11929,2.5 -2.5,2.5c-1.38071,0 -2.5,-1.11929 -2.5,-2.5z" fill="#ffffff" stroke="none" stroke-width="0.5" stroke-linecap="butt"/><path d="M256.56481,142.15084c0,-1.38071 1.11929,-2.5 2.5,-2.5c1.38071,0 2.5,1.11929 2.5,2.5c0,1.38071 -1.11929,2.5 -2.5,2.5c-1.38071,0 -2.5,-1.11929 -2.5,-2.5z" fill="#ffffff" stroke="none" stroke-width="0.5" stroke-linecap="butt"/><path d="M339.06481,77.98418c1.38071,0 2.5,1.11929 2.5,2.5c0,1.38071 -1.11929,2.5 -2.5,2.5c-0.45688,0 -0.88514,-0.12256 -1.25369,-0.33659c-0.41489,1.34762 -1.96577,1.6296 -1.96577,1.6296l-3.66667,0.66667c0,0 -0.62229,0.11314 -1.29777,-0.08739c-0.20042,0.21258 -0.36302,0.32872 -0.36302,0.32872l-2.33333,1.66667c0,0 -1.80774,1.29124 -3.23225,-0.26478c-0.02956,1.29781 -1.26794,2.04085 -1.26794,2.04085l-3.33333,2c0,0 -0.55949,0.33569 -1.27831,0.37826c-0.01818,0.01722 -0.02834,0.02611 -0.02834,0.02611l-2.68945,2.35303c-0.67434,0.56203 -1.34868,1.12406 -2.02302,1.68608c0,0 -1.92055,1.60046 -3.52101,-0.32009c-0.01882,-0.02259 -0.03716,-0.04513 -0.05502,-0.06763c0.29915,0.41206 0.47557,0.91902 0.47557,1.46717c0,1.38071 -1.11929,2.5 -2.5,2.5c-0.44302,0 -0.85912,-0.11523 -1.21997,-0.31736c-0.23777,1.13315 -1.24286,1.98403 -2.44669,1.98403c-0.53967,0 -1.03941,-0.171 -1.44798,-0.46178c-0.62863,0.63118 -1.50521,0.76604 -1.50521,0.76604l-4.33333,0.66667c0,0 -0.28587,0.04398 -0.67811,0.00479c-0.41043,0.5069 -0.91734,0.76035 -0.91734,0.76035l-3.33333,1.66667c0,0 -1.90269,0.95135 -3.07538,-0.65623l-1.13564,2.25744c-0.77778,0.44444 -1.55556,0.88889 -2.33333,1.33333c0,0 -1.89266,1.08152 -3.15322,-0.54258c-0.27858,1.07673 -1.25665,1.87198 -2.42046,1.87198c-0.42136,0 -0.81838,-0.10424 -1.16667,-0.28835c-0.34829,0.18411 -0.7453,0.28835 -1.16667,0.28835c-1.38071,0 -2.5,-1.11929 -2.5,-2.5c0,-1.38071 1.11929,-2.5 2.5,-2.5c0.42136,0 0.81838,0.10424 1.16667,0.28835c0.34829,-0.18411 0.7453,-0.28835 1.16667,-0.28835c0.74281,0 1.40995,0.32396 1.86785,0.83829c0.29414,-0.9769 1.22514,-1.5089 1.22514,-1.5089c0.47335,-0.27049 0.9467,-0.54097 1.42005,-0.81146c0.32301,-0.60246 0.94725,-1.1846 2.15363,-1.1846c0.87775,0 1.44732,0.30818 1.81692,0.70813c0.21336,-1.18502 1.39838,-1.77754 1.39838,-1.77754l3.33333,-1.66667c0,0 0.63369,-0.31684 1.39505,-0.27585c0.62571,-0.7974 1.67618,-0.95901 1.67618,-0.95901l4.33333,-0.66667c0,0 1.05996,-0.16307 1.89822,0.41862c0.45564,-0.481 1.10041,-0.78103 1.81526,-0.78103c0.44302,0 0.85912,0.11523 1.21997,0.31736c0.23777,-1.13315 1.24286,-1.98403 2.44669,-1.98403c0.78744,0 1.48984,0.36406 1.94809,0.93303c-1.35856,-1.84525 0.45145,-3.35359 0.45145,-3.35359c0.65899,-0.54908 1.31799,-1.09817 1.97698,-1.64725l2.64388,-2.31364c0,0 0.73007,-0.63881 1.67859,-0.66579c0.19746,-0.17278 0.3481,-0.26317 0.3481,-0.26317l3.33333,-2c0,0 1.77564,-1.06538 3.06449,0.35909c0.05814,-1.17075 1.10199,-1.91636 1.10199,-1.91636l2.33333,-1.66667c0,0 1.11712,-0.79794 2.28701,-0.3834c0.60218,-0.56618 1.38554,-0.70861 1.38554,-0.70861l3.66667,-0.66667c0,0 0.93837,-0.17061 1.76131,0.27852c0.34726,-0.96342 1.26948,-1.65217 2.35257,-1.65217z" fill="#ffffff" stroke="none" stroke-width="0.5" stroke-linecap="butt"/><path d="M349.73148,72.31751c1.38071,0 2.5,1.11929 2.5,2.5c0,1.38071 -1.11929,2.5 -2.5,2.5c-0.11302,0 -0.22429,-0.0075 -0.33333,-0.02203c-0.07103,0.00946 -0.143,0.01595 -0.21579,0.01931l-1.70409,2.55613c0,0 -1.38675,2.08013 -3.46688,0.69338c-2.08013,-1.38675 -0.69338,-3.46688 -0.69338,-3.46688l2,-3c0,0 0.80544,-1.20817 2.10941,-1.16915c0.43864,-0.3805 1.01112,-0.61077 1.63738,-0.61077c0.11302,0 0.22429,0.0075 0.33333,0.02203c0.10905,-0.01453 0.22031,-0.02203 0.33333,-0.02203z" fill="#ffffff" stroke="none" stroke-width="0.5" stroke-linecap="butt"/><path d="M350.56481,80.81751c0,-1.38071 1.11929,-2.5 2.5,-2.5c1.38071,0 2.5,1.11929 2.5,2.5c0,1.38071 -1.11929,2.5 -2.5,2.5c-1.38071,0 -2.5,-1.11929 -2.5,-2.5z" fill="#ffffff" stroke="none" stroke-width="0.5" stroke-linecap="butt"/><path d="M341.23148,85.81751c0,-1.38071 1.11929,-2.5 2.5,-2.5c0.30125,0 0.59006,0.05328 0.85751,0.15094c0.16981,-1.21547 1.21357,-2.15094 2.47583,-2.15094c1.38071,0 2.5,1.11929 2.5,2.5c0,1.38071 -1.11929,2.5 -2.5,2.5c-0.30125,0 -0.59006,-0.05328 -0.85751,-0.15094c-0.16981,1.21547 -1.21357,2.15094 -2.47583,2.15094c-1.38071,0 -2.5,-1.11929 -2.5,-2.5z" fill="#ffffff" stroke="none" stroke-width="0.5" stroke-linecap="butt"/><path d="M336.56481,90.48418c0,-1.38071 1.11929,-2.5 2.5,-2.5c1.38071,0 2.5,1.11929 2.5,2.5c0,1.38071 -1.11929,2.5 -2.5,2.5c-1.38071,0 -2.5,-1.11929 -2.5,-2.5z" fill="#ffffff" stroke="none" stroke-width="0.5" stroke-linecap="butt"/><path d="M325.89814,92.48418c0,-1.38071 1.11929,-2.5 2.5,-2.5c1.38071,0 2.5,1.11929 2.5,2.5c0,0.38376 -0.08647,0.74733 -0.24099,1.07228c0.3587,0.43275 0.57432,0.98839 0.57432,1.59439c0,1.38071 -1.11929,2.5 -2.5,2.5c-1.38071,0 -2.5,-1.11929 -2.5,-2.5c0,-0.38376 0.08647,-0.74733 0.24099,-1.07228c-0.3587,-0.43275 -0.57432,-0.98839 -0.57432,-1.59439z" fill="#ffffff" stroke="none" stroke-width="0.5" stroke-linecap="butt"/><path d="M306.2387,104.07719c-1.25968,-2.15945 0.89977,-3.41912 0.89977,-3.41912l4,-2.33333c0,0 2.15945,-1.25968 3.41912,0.89977c0.00294,0.00504 0.00586,0.01008 0.00877,0.01511c-0.00103,-0.02946 -0.00155,-0.05905 -0.00155,-0.08876c0,-1.38071 1.11929,-2.5 2.5,-2.5c1.38071,0 2.5,1.11929 2.5,2.5c0,1.38071 -1.11929,2.5 -2.5,2.5c-0.88941,0 -1.67035,-0.46445 -2.11349,-1.16405c0.03863,1.37976 -1.2935,2.15683 -1.2935,2.15683l-4,2.33333c0,0 -1.55852,0.90914 -2.79985,-0.14132c0.2368,0.38206 0.37351,0.83267 0.37351,1.31521c0,1.38071 -1.11929,2.5 -2.5,2.5c-1.38071,0 -2.5,-1.11929 -2.5,-2.5c0,-1.38071 1.11929,-2.5 2.5,-2.5c0.61005,0 1.16906,0.21851 1.60305,0.58153c-0.03247,-0.04965 -0.06443,-0.10135 -0.09583,-0.15518z" fill="#ffffff" stroke="none" stroke-width="0.5" stroke-linecap="butt"/><path d="M283.89814,113.81751c0,-0.85131 0.42551,-1.60323 1.07545,-2.05469c-0.04927,-0.19583 -0.07545,-0.40085 -0.07545,-0.61197c0,-1.38071 1.11929,-2.5 2.5,-2.5c1.38071,0 2.5,1.11929 2.5,2.5c0,0.85131 -0.42551,1.60323 -1.07545,2.05469c0.04927,0.19583 0.07545,0.40085 0.07545,0.61197c0,1.38071 -1.11929,2.5 -2.5,2.5c-1.38071,0 -2.5,-1.11929 -2.5,-2.5z" fill="#ffffff" stroke="none" stroke-width="0.5" stroke-linecap="butt"/><path d="M274.23148,114.15084c0,-1.38071 1.11929,-2.5 2.5,-2.5c1.38071,0 2.5,1.11929 2.5,2.5c0,1.38071 -1.11929,2.5 -2.5,2.5c-1.38071,0 -2.5,-1.11929 -2.5,-2.5z" fill="#ffffff" stroke="none" stroke-width="0.5" stroke-linecap="butt"/><path d="M298.89814,116.15084c0,-1.38071 1.11929,-2.5 2.5,-2.5c1.38071,0 2.5,1.11929 2.5,2.5c0,1.38071 -1.11929,2.5 -2.5,2.5c-1.38071,0 -2.5,-1.11929 -2.5,-2.5z" fill="#ffffff" stroke="none" stroke-width="0.5" stroke-linecap="butt"/><path d="M313.89814,108.15084c0,-1.38071 1.11929,-2.5 2.5,-2.5c1.38071,0 2.5,1.11929 2.5,2.5c0,1.38071 -1.11929,2.5 -2.5,2.5c-1.38071,0 -2.5,-1.11929 -2.5,-2.5z" fill="#ffffff" stroke="none" stroke-width="0.5" stroke-linecap="butt"/><path d="M327.23148,101.48418c0,-1.38071 1.11929,-2.5 2.5,-2.5c1.38071,0 2.5,1.11929 2.5,2.5c0,1.38071 -1.11929,2.5 -2.5,2.5c-1.38071,0 -2.5,-1.11929 -2.5,-2.5z" fill="#ffffff" stroke="none" stroke-width="0.5" stroke-linecap="butt"/><path d="M347.89814,94.15084c0,-1.38071 1.11929,-2.5 2.5,-2.5c1.38071,0 2.5,1.11929 2.5,2.5c0,1.38071 -1.11929,2.5 -2.5,2.5c-1.38071,0 -2.5,-1.11929 -2.5,-2.5z" fill="#ffffff" stroke="none" stroke-width="0.5" stroke-linecap="butt"/><path d="M335.89814,115.81751c0,-1.38071 1.11929,-2.5 2.5,-2.5c1.38071,0 2.5,1.11929 2.5,2.5c0,1.38071 -1.11929,2.5 -2.5,2.5c-1.38071,0 -2.5,-1.11929 -2.5,-2.5z" fill="#ffffff" stroke="none" stroke-width="0.5" stroke-linecap="butt"/></g></g></svg>