<svg version="1.1" xmlns="http://www.w3.org/2000/svg" xmlns:xlink="http://www.w3.org/1999/xlink" width="64.15121" height="61.41808" viewBox="0,0,64.15121,61.41808"><g transform="translate(-229.03785,-145.03015)"><g stroke-miterlimit="10"><path d="M231.12417,205.19823l-0.43301,-4.21459l52.25,-0.04215v4.25674z" fill="#151212" stroke="#000000" stroke-width="2.5" stroke-linecap="butt"/><path d="M279.52449,194.55377l2.875,6.96557c0,0 -45.72319,0.36597 -51.33666,0.35889c-1.13101,-0.00143 -0.91334,-0.42472 -0.91334,-0.42472l20.68301,-7.00528z" fill="#151212" stroke="#000000" stroke-width="2.5" stroke-linecap="butt"/><path d="M269.82329,196.33154c0.71932,0.00623 1.45227,0.03297 1.92409,0.09261c1.56846,0.19828 -6.04466,1.1213 -9.65741,1.39404c-0.3844,0.03939 -0.84443,0.0665 -1.32934,0.07459c-0.78601,0.01311 -1.44625,-0.02696 -1.79421,-0.09817c-2.56378,-0.08013 -8.98793,-0.89222 -8.19203,-1.19218c0.31006,-0.11685 2.46181,-0.2254 3.2021,-0.16708c0.43329,0.03414 2.4612,0.25684 4.33842,0.46999c0.43912,-0.41599 1.30485,-0.8626 1.58858,-1.03291c0.17035,-0.10225 0.50068,-0.51758 1.24747,-0.56357l1.7572,-0.12825c0.58739,0.04325 1.514,0.04999 1.87767,0.11741c0.04709,0.00873 0.08475,0.01847 0.111,0.02945c0.62866,0.26283 -1.70373,1.36369 -2.16784,1.70277c-0.03062,0.02237 -0.05758,0.04753 -0.08436,0.0747c3.04326,-0.36728 6.79588,-0.77673 7.17868,-0.77342z" fill="#ffffff" stroke="none" stroke-width="0.5" stroke-linecap="butt"/><g stroke="#000000" stroke-width="3"><path d="M291.68907,179.73021c-0.86033,5.25808 -2.11652,9.6452 -6.45381,8.93553c-4.33729,-0.70967 -9.02106,-8.22904 -8.16072,-13.48711c0.70799,-4.32701 4.94985,-13.77426 8.84703,-13.75564c0.83859,0.00401 1.66121,8.07589 2.42924,8.20155c4.33729,0.70967 4.1986,4.84758 3.33826,10.10566z" fill="#ffffff" stroke-linecap="butt"/><path d="M282.10601,183.12568c-0.09547,0.58351 0.83679,3.06406 0.4993,4.63776c-0.5311,2.47652 -1.93912,4.13811 -2.30685,4.73178c-0.37418,0.60409 0.44803,1.24543 -0.1101,2.8119c-1.03198,2.89636 -2.91991,3.64236 -3.34886,3.84737c-3.8852,1.85683 -21.52933,2.60353 -27.40507,1.64213c-12.35097,-2.02088 -12.71083,-4.08558 -10.98066,-14.65985c1.08266,-6.61683 2.02844,-24.31988 9.31352,-27.8621c1.28873,-0.62662 6.41341,-5.87462 8.65166,-5.89358c2.08465,-0.01767 1.26117,0.92845 2.92765,2.11892c1.31498,0.93937 7.37207,-8.80246 9.1747,-7.91228c1.75286,0.8656 -0.74395,12.37416 0.23309,12.53403c0.90377,0.14788 4.68823,-7.33123 6.54725,-6.8592c4.16971,1.05874 7.38631,10.54346 8.64789,11.78824c3.59322,3.54539 0.00208,6.96219 0.24279,9.21916c0.09781,0.91717 0.92619,2.82824 0.54272,4.427c-0.29122,1.21413 -2.34322,3.68207 -2.62901,5.42872z" fill="#ffffff" stroke-linecap="butt"/><path d="M258.52208,167.8864l24.29677,4.51556" fill="none" stroke-linecap="round"/><path d="M254.14166,177.75528l27.32394,4.79483" fill="none" stroke-linecap="round"/><path d="M252.28895,188.14575l25.86151,4.33952" fill="none" stroke-linecap="round"/></g></g></g></svg>