<svg version="1.1" xmlns="http://www.w3.org/2000/svg" xmlns:xlink="http://www.w3.org/1999/xlink" width="69.66666" height="68.66666" viewBox="0,0,69.66666,68.66666"><g transform="translate(-244.56481,-42.31752)"><g stroke-miterlimit="10"><path d="" fill="#ffffff" stroke="#000000" stroke-width="3" stroke-linecap="butt"/><path d="" fill="#ffffff" stroke="#000000" stroke-width="3" stroke-linecap="butt"/><path d="" fill="#ffffff" stroke="#000000" stroke-width="3" stroke-linecap="butt"/><path d="" fill="#ffffff" stroke="#000000" stroke-width="3" stroke-linecap="butt"/><path d="" fill="#ffffff" stroke="#000000" stroke-width="3" stroke-linecap="butt"/><path d="" fill="#ffffff" stroke="#000000" stroke-width="3" stroke-linecap="round"/><path d="" fill="#ffffff" stroke="#000000" stroke-width="3" stroke-linecap="round"/><path d="" fill="#000000" stroke="#000000" stroke-width="3" stroke-linecap="round"/><path d="" fill="#000000" stroke="#000000" stroke-width="3" stroke-linecap="butt"/><path d="" fill="#ffffff" stroke="#000000" stroke-width="1.5" stroke-linecap="butt"/><path d="" fill="#ffffff" stroke="#000000" stroke-width="1.5" stroke-linecap="butt"/><path d="" fill="#ffffff" stroke="#000000" stroke-width="1.5" stroke-linecap="butt"/><path d="M307.54377,47.30935c0.05588,-0.07801 -0.03688,0.26384 -0.16737,0.71007c-0.1368,0.0158 -0.27299,0.03157 -0.40859,0.04732c0.2008,-0.24995 0.39352,-0.50271 0.57596,-0.7574z" fill="#000000" stroke="#000000" stroke-width="3" stroke-linecap="round"/><path d="M310.40169,46.43454c0,-0.49856 0.25404,-0.93778 0.63974,-1.19529c0.01089,-0.03482 0.02308,-0.06907 0.0365,-0.10269c-0.12372,0.03473 -0.25419,0.0533 -0.389,0.0533c-0.79317,0 -1.43617,-0.643 -1.43617,-1.43617c0,-0.79317 0.643,-1.43617 1.43617,-1.43617c0.79317,0 1.43617,0.643 1.43617,1.43617c0,0.02374 -0.00057,0.04735 -0.00172,0.07081c0.20049,-0.10633 0.42917,-0.16656 0.67193,-0.16656c0.79317,0 1.43617,0.643 1.43617,1.43617c0,0.41972 -0.18004,0.79738 -0.46712,1.05997c-0.10489,0.29206 -0.30173,0.54029 -0.5556,0.70978c-0.18254,0.58345 -0.72728,1.00684 -1.3709,1.00684c-0.79317,0 -1.43617,-0.643 -1.43617,-1.43617z" fill="#ffffff" stroke="none" stroke-width="0.5" stroke-linecap="butt"/><path d="M302.23148,51.49127c0,-0.79317 0.643,-1.43617 1.43617,-1.43617c0.79317,0 1.43617,0.643 1.43617,1.43617c0,0.79317 -0.643,1.43617 -1.43617,1.43617c-0.79317,0 -1.43617,-0.643 -1.43617,-1.43617z" fill="#ffffff" stroke="none" stroke-width="0.5" stroke-linecap="butt"/><path d="M244.56481,109.81751c0,-0.64433 0.52234,-1.16667 1.16667,-1.16667c0.64433,0 1.16667,0.52234 1.16667,1.16667c0,0.64433 -0.52234,1.16667 -1.16667,1.16667c-0.64433,0 -1.16667,-0.52234 -1.16667,-1.16667z" fill="#ffffff" stroke="none" stroke-width="0.5" stroke-linecap="butt"/></g></g></svg>