<svg version="1.1" xmlns="http://www.w3.org/2000/svg" xmlns:xlink="http://www.w3.org/1999/xlink" width="357.8944" height="116.62369" viewBox="0,0,357.8944,116.62369"><g transform="translate(-144.85784,-152.09934)"><g fill="#ffffff" stroke="none" stroke-width="0.5" stroke-miterlimit="10"><path d="M159.05195,152.99022c2.83672,3.30611 2.79311,13.91117 3.0808,17.45324c0.04539,0.55884 0.58936,4.56894 -0.12651,5.28482c-1.66667,1.66666 -2.70833,1.66666 -4.375,0c-1.06808,-1.06808 -0.44013,-5.00998 -0.62126,-6.37959c-0.05671,-0.42876 -0.11426,-0.85728 -0.17275,-1.28557c-1.76575,0.81173 -4.46513,1.11593 -6.44892,0.99217c0.24134,2.62305 0.53518,5.24267 0.7527,7.85291c0.00732,0.07793 0.01106,0.15689 0.01106,0.23674c0,1.38071 -1.11929,2.5 -2.5,2.5c-1.3188,0 -2.39909,-1.02116 -2.49332,-2.31592c0,-0.00001 -0.00001,-0.00002 -0.00001,-0.00003c-0.18491,-1.3128 -0.21237,-2.64305 -0.33029,-3.96356c-0.15839,-1.7736 -0.33138,-3.54585 -0.49862,-5.31863c-0.26015,-2.75761 -1.77193,-15.90186 2.48891,-15.90186c3.72824,0 2.23364,5.1526 2.16667,6.94674c-0.05912,1.58362 -0.03961,3.16873 0.03012,4.75402c0.02288,-0.00712 0.04582,-0.01417 0.06881,-0.02115c1.99128,-0.60421 4.36753,-0.66796 6.11184,-0.18335c-0.43624,-2.8307 -0.92431,-5.64975 -1.48543,-8.45535c-0.03842,-0.17418 -0.05867,-0.35519 -0.05867,-0.54092c0,-1.37118 1.10388,-2.48453 2.47143,-2.49984c0.65677,-0.06891 1.34429,0.16431 1.92844,0.84512z"/><path d="M171.98541,168.70843c-0.22446,-0.7449 -0.90624,-0.65795 -1.57995,-0.70639c-0.65692,1.24693 -1.21272,2.83852 -0.3655,4.3285c0.11122,0.19559 1.93615,-0.88224 1.94545,-0.94736c0.0498,-0.3485 0.11165,-0.72757 0.19099,-1.11151c-0.12305,-0.2956 -0.19099,-0.6199 -0.19099,-0.96006c0,-0.15948 0.01494,-0.31548 0.04348,-0.46667c-0.01523,-0.04536 -0.02973,-0.09087 -0.04348,-0.13651zM167.42119,176.90793c-2.69452,-2.3096 -3.86126,-6.12816 -2.38503,-9.45468c0.38416,-0.86568 2.05181,-5.01717 3.81044,-4.13786c0.04595,-0.00251 0.09222,-0.00378 0.1388,-0.00378c0.24356,0 0.47898,0.03483 0.70155,0.09977c2.51298,-1.83021 9.51373,3.43418 7.88451,6.28982c1.85379,4.46402 -6.84565,10.03926 -10.15027,7.20673z"/><path d="M185.37032,167.56062c0.03258,0.06115 0.08061,-0.11298 0.1153,-0.17294c0.6236,-1.07791 2.27017,-1.98701 3.45116,-1.31216c0.70544,0.40311 1.10111,1.24542 1.31672,1.97508c0.09452,0.31986 0.08228,1.28927 0.20541,0.97929c0.64627,-1.62695 1.64991,-6.33226 4.64454,-4.62104c1.9325,1.10429 -0.16048,10.85237 -1.88716,12.33238c-1.41748,1.21499 -2.69962,0.1407 -3.91838,-0.67964c-0.1662,-0.11186 -1.00661,-2.43928 -1.33096,-2.12227c-1.44405,1.41136 -1.20375,5.05264 -4.71242,3.30192c-1.25515,-0.62628 -3.65357,-10.86277 -3.43579,-12.59632v0c0,-0.11572 0.00786,-0.22961 0.02308,-0.34115c0.16638,-1.21932 1.21193,-2.15885 2.47692,-2.15885c1.38071,0 2.5,1.11929 2.5,2.5c0,0.27824 -0.04545,0.54586 -0.12934,0.79585c0.09719,0.59832 0.232,1.27743 0.68091,2.11985z"/><path d="M228.40893,164.20554c0.02202,0 0.04396,0.00029 0.06583,0.00085l0.07392,-0.01642l0.03208,0.02139c0.49656,0.03371 0.95333,0.21241 1.3283,0.49411l1.16653,-0.66659l2.1875,1.25l0.3125,1.25v0.09431l0.2206,0.6618l0.02619,0.02381l0.33333,0.5l0.14389,0.40291l0.20134,0.37751l0.33333,1.33333v0.23744l0.32144,0.48216l0.03383,0.09472l0.07354,0.04202l0.13658,0.54632l0.1894,0.53033l-0.03788,0.07576l0.02439,0.09758v0.04372l0.26298,0.22541l0.13975,2.51558l-2.09632,1.39754l-1.13422,-0.25205l-0.00178,0.00048l-0.00234,-0.0014l-0.11946,-0.02654l-0.33333,-0.16666l-0.29863,-0.25597l-0.29863,0.25597l-0.06231,0.03115l-0.05572,0.04528l-0.02786,-0.00348l-0.71489,0.35744l-0.3705,0.247l-0.40291,0.14389l-0.3775,0.20134l-0.66667,0.16666h-0.30777l-0.29857,0.07465h-1.33333l-0.38988,-0.09747l-0.40069,-0.03082l-0.5,-0.16667l-0.4161,-0.26479l-0.19088,-0.0106l-0.20905,-0.2439l-0.27101,-0.17246l-0.03749,-0.18745l-0.32097,-0.37447l-0.33333,-0.66667l-0.03903,-0.17566l-0.09661,-0.15181l-0.44381,-1.33145l-0.01426,-0.02852l-0.02438,-0.01393l-0.01741,-0.06966l-0.03116,-0.06231l-0.12461,-0.56076l-0.13932,-0.55728v-0.06966l-0.01558,-0.0701l0.01558,-0.02336v-1.67022l0.07464,-0.29857v-0.30776l0.16667,-0.66666l0.20134,-0.3775l0.14389,-0.40291l0.247,-0.3705l0.26373,-0.52745l0.26154,-0.30513l0.20676,-0.34461l0.33334,-0.33333l0.2639,-0.15834l0.21762,-0.21762l0.2942,-0.17651l0.272,-0.23314l0.32251,-0.37627l0.12453,-0.00691l0.15497,-0.13284l0.62169,-0.31085c0.34741,-0.18291 0.74312,-0.28643 1.16302,-0.28643zM228.97314,169.46853l-0.06764,0.00376l-0.04366,0.04366l-0.44718,0.2683l-0.103,0.206l-0.10281,0.11994l-0.05313,0.14878l-0.08013,0.12019v0.97552l0.03838,0.0603l0.16994,0.50982l0.0537,-0.01918l0.11995,-0.10281l0.47213,-0.23607l0.04802,-0.06404l0.00156,-0.02804l0.05452,-0.04673l0.0418,-0.05572l0.16667,-0.13542v-1.65053l-0.02152,-0.03587l-0.16598,-0.09485l-0.01592,-0.06367z"/><path d="M213.99227,161.68471c0.48167,0.17202 2.11985,1.95441 2.22827,1.90328c1.5942,-0.75184 2.89051,-0.25619 4.11804,0.88668c1.45601,1.3556 0.95747,3.69973 1.32905,5.35216c0.40896,1.81869 1.21759,5.17326 -0.07119,6.46204c-1.66667,1.66666 -2.70833,1.66666 -4.375,0c-0.8644,-0.86441 -0.14025,-5.27731 -0.38258,-5.18614c-1.28539,0.4836 -3.14632,0.82392 -4.11742,-0.14719c-0.99117,-0.99116 0.88108,-4.91368 -1.33105,-4.58334c-0.18645,0.02785 -0.28685,0.11146 -0.34483,0.22201c-0.0202,0.12941 -0.05033,0.25554 -0.08958,0.37758c-0.12498,0.38854 -0.34244,0.73561 -0.62647,1.01526c0.00835,3.00122 -0.33249,6.15736 -0.28512,6.48902c0.02054,0.12902 0.03121,0.26132 0.03121,0.39612c0,1.38071 -1.11929,2.5 -2.5,2.5c-1.38071,0 -2.5,-1.11929 -2.5,-2.5c0,-0.03292 0.00064,-0.0657 0.0019,-0.09831c-0.06727,-0.22595 -0.11613,-0.46467 -0.14344,-0.71481c-0.24162,-2.21291 -1.28948,-13.24544 3.42583,-11.85729c1.72834,-0.88633 3.7976,-1.17238 5.63238,-0.5171z"/><path d="M247.86617,163.16717c2.63286,1.57972 2.76186,4.32655 3.04277,7.12416c0.19702,1.96223 0.96639,5.74755 -2.33334,5.74755c-3.75245,0 -2.3079,-8.11352 -3.01066,-8.34239c-1.15346,-0.37566 -1.81866,-0.09143 -2.47326,0.321c-0.16244,0.22111 -0.36039,0.41453 -0.58542,0.57184c0.23428,2.45691 0.16023,5.04171 -0.10821,6.51781c-0.0225,0.24143 -0.07933,0.4729 -0.16557,0.68947c-0.04262,0.13091 -0.08805,0.24029 -0.13604,0.32561c-0.00621,0.01103 -0.02197,0.01255 -0.03296,0.01883c-0.43488,0.73685 -1.23699,1.23117 -2.15454,1.23117c-1.38071,0 -2.5,-1.11929 -2.5,-2.5c0,-0.35663 0.07467,-0.69581 0.20923,-1.00277c-1.36705,-4.55053 -0.49266,-11.49723 2.1241,-11.49723c0.51376,0 0.94866,0.30118 1.31285,0.81508c2.13723,-1.02503 5.13488,-1.02582 6.81106,-0.02012z"/><path d="M265.0788,172.18818c-1.24448,3.56357 -4.13471,7.80594 -6.2564,11.07078c-1.10974,1.70766 -3.39571,7.33321 -6.34789,4.38102c-1.37906,-1.37906 1.10539,-6.16331 3.62606,-10.27427c-1.3085,-3.39336 -2.97354,-6.97014 -3.92181,-10.44714c-0.06712,-0.22596 -0.10316,-0.46528 -0.10316,-0.71303c0,-1.38071 1.11929,-2.5 2.5,-2.5c0.10815,0 0.2147,0.00686 0.31923,0.02019c0.50756,0.03166 1.01629,0.24521 1.4623,0.69829c0.05703,0.05793 0.12214,0.14203 0.19427,0.2496c0.13007,0.16751 0.2393,0.352 0.32381,0.54958c0.73954,1.37428 1.86565,4.11864 2.76509,6.67256c0.25565,-0.3891 0.4445,-0.68386 0.54411,-0.86038c0.39963,-0.70819 1.13551,-5.01748 2.63531,-4.91405c0.32923,-0.15961 0.69877,-0.24912 1.08922,-0.24912c1.38071,0 2.5,1.11929 2.5,2.5c0.01167,0.01234 0.00991,0.05474 -0.0029,0.12159c-0.02159,0.45092 -0.16265,0.87052 -0.39222,1.22786c-0.39256,1.09417 -0.93115,2.45545 -0.93502,2.46652z"/><path d="M275.32934,177.93268c-0.91755,0 -1.71966,-0.49431 -2.15454,-1.23116l-0.03296,-0.01884l-0.01789,-0.07156c-0.188,-0.3511 -0.29461,-0.75232 -0.29461,-1.17844v-5.12642l-0.13265,-0.79591l0.01666,-0.20828l-0.05067,-0.20271v-8.50355l-0.01558,-0.02337l0.01558,-0.0701v-0.06966l0.13932,-0.55728l0.10199,-0.45896v-0.25677l0.16666,-0.66666l0.12957,-0.24293l0.05973,-0.26877l0.16666,-0.33334l0.13284,-0.15498l0.00692,-0.12453l0.37626,-0.32251l0.32251,-0.37627l0.12454,-0.00691l0.15497,-0.13284l0.18743,-0.09372l0.01393,-0.02438l0.06966,-0.01741l0.06231,-0.03116l0.56075,-0.12461l0.26784,-0.06696l0.8322,-0.27741l0.15751,-0.01211l0.14277,-0.06762l1.60833,-0.32166l0.60895,-0.15224h0.30777l0.29858,-0.07465h0.83333l0.45934,0.11483l0.46913,0.06397l0.76512,0.30605l0.4303,0.14343l0.28172,0.17928l0.31446,0.11231l0.5,0.33333l0.1675,0.18425l0.21351,0.12811l0.66667,0.66667l0.20676,0.34461l0.26154,0.30513l0.16667,0.33334l0.02654,0.11945l0.0014,0.00234l-0.00049,0.00178l0.03226,0.1452l0.12957,0.24293l0.16667,0.66666v0.06096l0.02609,0.05509l0.16667,0.83334l-0.01184,0.24872l0.06039,0.24157v3.5l-0.06039,0.24157l0.01184,0.24872l-0.16667,0.83334l-0.20794,0.439l-0.16338,0.45747l-0.24699,0.37049l-0.09706,0.19412l-0.26154,0.30513l-0.20677,0.34461l-0.26728,0.26728l-0.00796,0.03434l-0.58216,0.34615l-0.58078,0.34847l-0.03401,-0.00928l-1.5772,0.47316l-0.36443,0.01695l-0.35394,0.08848h-0.17021l-0.02337,0.01558l-0.07009,-0.01558h-0.06966l-0.19061,-0.04765l-0.04477,0.00208l-0.01894,-0.01801l-0.30296,-0.07574l-0.12306,-0.02735h-0.15299l-1.25,-0.3125l-0.75,-1.3125v1.08477l0.13265,0.79591l-0.01666,0.20828l0.05068,0.20272v5.33333c0,0.42612 -0.10661,0.82734 -0.29461,1.17844l-0.01789,0.07156l-0.03296,0.01884c-0.43488,0.73685 -1.23699,1.23116 -2.15454,1.23116zM280.02292,164.41708l0.0701,0.01557h0.06966l0.46652,0.11664l0.34819,-0.10446l0.01861,-0.09305v-3.0049l-0.10645,-0.53226l-0.03985,-0.15939l-0.11309,-0.11309l-0.01546,-0.01031l-0.18239,-0.0608l-0.06342,-0.04036l-0.07448,-0.01016l-0.38631,-0.15453h-0.04412l-0.36809,0.09203h-0.06096l-0.05509,0.02609l-1.51405,0.30281l-0.30957,0.10319v5.26754l0.75,-1.3125l1.25,-0.3125h0.33688z"/><path d="M293.746,165.41185c1.49475,0.74738 1.97458,2.53542 1.62171,4.14473c-0.162,0.73883 -1.81936,1.63048 -1.13961,1.96224c1.29397,0.63155 3.03192,1.6369 3.03192,3.07677c0,3.5155 -10.99941,3.86697 -11.82536,-1.91464c-0.2767,-0.40234 -0.43866,-0.88973 -0.43866,-1.41494c0,-0.49254 0.14243,-0.9518 0.38835,-1.33886c1.17417,-3.69341 3.25906,-7.0666 8.36165,-4.51531z"/><path d="M302.66176,164.59935c0.40126,0 0.78044,0.09453 1.11649,0.26254l0.38351,-0.09588h0.66667l0.29857,0.07465h0.30777l0.36809,0.09202h0.19223l0.09759,0.0244l0.07576,-0.03789l0.53033,0.18941l0.54632,0.13658l0.04203,0.07354l0.09473,0.03383l0.37049,0.247l0.19412,0.09706l0.30513,0.26154l0.34461,0.20676l0.21799,0.21799l0.02754,0.00551l0.03855,0.06058l0.04925,0.04926l0.29555,0.49257l0.3084,0.48462l0.02203,0.06609l0.03695,0.06158l-0.00739,0.02709l0.44842,1.34525l0.03082,0.4007l0.09747,0.38987v1.02557l0.09202,0.36809v0.30776l0.07465,0.29857v0.5l-0.09747,0.38988l-0.03082,0.40069l-0.02309,0.06925l0.00029,0.00042l-0.01558,0.0701v0.06966l-0.13932,0.55728l-0.09715,0.43718l0.00048,0.00178l-0.00139,0.00233l-0.02655,0.11945l-0.03115,0.06231l-0.01742,0.06966l-0.02438,0.01394l-0.09372,0.18743l-0.26154,0.30513l-0.20676,0.34461l-0.04647,0.04647l-0.1519,0.3038l-0.13284,0.15498l-0.00692,0.12453l-0.37626,0.32251l-0.32251,0.37627l-0.12453,0.00691l-0.15498,0.13284l-0.8541,0.42705l-0.01394,0.02438l-0.06966,0.01741l-0.06231,0.03115l-0.56075,0.12462l-0.55728,0.13932h-0.06966l-0.0701,0.01558l-0.02336,-0.01558h-2.17022l-0.38987,-0.09747l-0.40069,-0.03083l-0.5,-0.16666l-0.15181,-0.09661l-0.05209,-0.01157l-0.00178,0.00048l-0.00233,-0.0014l-0.11946,-0.02654l-0.33333,-0.16666l-0.30513,-0.26154l-0.34461,-0.20676l-0.04646,-0.04647l-0.3038,-0.1519l-0.30513,-0.26154l-0.34461,-0.20676l-0.33333,-0.33333l-0.20677,-0.34461l-0.26153,-0.30513l-0.09372,-0.18743l-0.02438,-0.01394l-0.01741,-0.06966l-0.03116,-0.0623l-0.02654,-0.11946l-0.0014,-0.00233l0.00048,-0.00178l-0.09715,-0.43718l-0.13932,-0.55729v-0.06966l-0.01558,-0.07009l0.01558,-0.02336v-1.67022l0.09747,-0.38988l0.03082,-0.40069l0.11074,-0.33221l0.02511,-0.10043l0.03082,-0.4007l0.09538,-0.28614l0.13478,-0.94351l0.08573,-0.21044l0.01743,-0.22657l0.33334,-1l0.09661,-0.15181l0.03903,-0.17565l0.33334,-0.66666l0.26153,-0.30513l0.20677,-0.34461l0.33333,-0.33334v0c0.28705,-0.28705 0.64357,-0.50462 1.04219,-0.62532l0.06266,-0.03759l0.03622,0.00987c0.20027,-0.05169 0.41027,-0.07919 0.62669,-0.07919zM303.96996,170.61957l-0.08573,0.21044l-0.01743,0.22657l-0.11073,0.33221l-0.02511,0.10043l-0.03082,0.4007l-0.03838,0.11513v0.37611l0.08983,0.077l0.23533,0.1412h1.12332l0.077,-0.08983l0.06626,-0.11044l0.00573,-0.02294l0.03082,-0.4007l0.00788,-0.02364l-0.06152,-0.24612v-0.30776l-0.07465,-0.29857v-0.92764l-0.10456,-0.31367h-0.16845l-0.36809,-0.09203h-0.3589l-0.06745,-0.01686z"/><path d="M311.32843,185.26601c0,-0.18573 0.02026,-0.36673 0.05867,-0.54091l0.27466,-1.3733v-9.25245l0.05068,-0.20272l-0.01666,-0.20828l0.13265,-0.79591v-3.62643l0.09747,-0.38987l0.03082,-0.4007l0.16667,-0.5l0.17927,-0.28171l0.11231,-0.31447l0.33333,-0.5l0.18425,-0.1675l0.12811,-0.21352l0.33333,-0.33334l0.42293,-0.25375l0.09484,-0.16599l0.31164,-0.0779l0.27545,-0.16527l0.18444,0.05029l0.47848,-0.11962h0.59431l0.11512,-0.03838l0.06157,-0.00473l0.04688,-0.04891h0.58898l0.58725,-0.04518l0.05049,0.04518h0.06174l0.66667,0.16666l0.24293,0.12957l0.26876,0.05972l0.66667,0.33334l0.11995,0.1028l0.14878,0.05314l0.37049,0.24699l0.52746,0.26373l0.07443,0.06379l0.09378,0.02854l0.83333,0.5l0.21762,0.21762l0.26391,0.15834l1,1l0.12811,0.21352l0.18425,0.1675l0.19602,0.29403l0.04295,0.04295l0.02754,0.00551l0.03855,0.06058l0.04925,0.04926l0.29555,0.49257l0.3084,0.48462l0.02203,0.06609l0.03695,0.06158l-0.00739,0.02709l0.11509,0.34525l0.03082,0.4007l0.09747,0.38987v2l-0.0244,0.09759l0.03788,0.07576l-0.18941,0.53033l-0.13658,0.54632l-0.07355,0.04202l-0.03383,0.09473l-0.33333,0.5l-0.18425,0.1675l-0.12811,0.21352l-0.55133,0.55132l-0.0055,0.02754l-0.06058,0.03855l-0.04926,0.04926l-0.49257,0.29554l-0.48462,0.3084l-0.06608,0.02203l-0.06157,0.03694l-0.0271,-0.00739l-0.77555,0.25852l-0.66857,0.26743l-0.42776,0.21388l-0.01394,0.02438l-0.06966,0.01741l-0.06231,0.03116l-0.56075,0.12461l-0.26783,0.06696l-0.33221,0.11074l-1.28467,0.09883l-0.33922,-0.30352v5.33299l-0.06039,0.24157l0.01184,0.24872l-0.32425,1.62125c-0.07693,0.42835 -0.26298,0.81883 -0.52834,1.14163l-0.03232,0.06822l-0.03673,0.01225c-0.45776,0.51128 -1.12288,0.83302 -1.86315,0.83302c-1.09301,0 -2.0222,-0.70144 -2.36197,-1.67872l-0.0282,-0.02456l-0.00347,-0.07299c-0.06917,-0.2291 -0.10636,-0.47207 -0.10636,-0.72373zM318.06662,173.27815l0.83334,-0.33333l0.07448,-0.01016l0.06342,-0.04036l0.29057,-0.09685v-0.40518l-0.08013,-0.07284l-0.19602,-0.29403l-0.60733,-0.60733l-0.4871,-0.29226l-0.58079,-0.29039l-0.11994,-0.1028l-0.14878,-0.05313l-0.27992,-0.18661v2.60648l-0.05068,0.20271l0.01666,0.20828l-0.03306,0.19836l0.44317,-0.14773l0.32754,-0.02519l0.34499,-0.1725l0.10355,-0.02301z"/><path d="M330.39426,153.34935c0.04996,0.08883 0.09831,0.20579 0.14507,0.34861c0.06286,0.16257 0.10922,0.33334 0.13702,0.51028c1.02355,4.52786 1.18885,22.03952 0.93315,22.84247c-1.2973,4.07378 -4.94349,1.17134 -4.90274,-1.86558c0.04973,-3.7063 0.02533,-6.959 -0.16667,-10.47238c-0.06703,-1.22649 -0.81883,-6.81877 -0.79773,-9.6906c-0.02341,-0.13744 -0.0356,-0.27869 -0.0356,-0.4228c0,-0.2673 0.04195,-0.5248 0.11963,-0.76628c0.32355,-1.00586 1.26696,-1.73372 2.38037,-1.73372c0.81357,0 1.53638,0.38863 1.99291,0.99036c0.07451,0.07697 0.14011,0.16278 0.19459,0.25964z"/><path d="M333.94867,170.03164l0.26672,-0.80019l0.14346,-0.22543l0.08987,-0.25163l0.19764,-0.29647l0.11282,-0.22565l0.08011,-0.32042l0.18572,-0.34823l-0.00325,-0.15293l0.18176,-0.18176l0.12096,-0.2268l0.14726,-0.04142l0.27907,-0.27907l0.66683,-0.40009l0.07504,-0.02284l0.05956,-0.05105l0.73147,-0.36574l0.60094,-0.36057l0.07504,-0.02284l0.05955,-0.05105l0.41671,-0.20835l0.01115,-0.01951l0.05574,-0.01393l0.04985,-0.02493l0.44871,-0.09972l0.44593,-0.11148h0.05574l0.05608,-0.01246l0.0187,0.01246h0.53629l0.16221,0.04055l0.16666,-0.01333l0.80018,0.13336l0.14552,0.06327l0.15821,0.01217l0.09212,0.03071h0.74228l0.23892,0.05973h0.24627l0.53346,0.13336l0.30207,0.1611l0.32241,0.11515l0.40009,0.26673l0.13403,0.14743l0.17086,0.10252l0.40009,0.40009l0.16545,0.27575l0.20927,0.24415l0.13337,0.26673l0.02124,0.09559l0.00112,0.00187l-0.00039,0.00142l0.00926,0.04168l0.07731,0.12148l0.26673,0.80018l0.02466,0.32063l0.07799,0.31197v1.60321l0.01247,0.01869l-0.01247,0.05609v0.05574l-0.11148,0.44593l-0.09972,0.44871l-0.02492,0.04986l-0.01394,0.05574l-0.01951,0.01115l-0.075,0.14998l-0.10629,0.12401l-0.00554,0.09965l-0.30108,0.25807l-0.25807,0.30107l-0.09965,0.00554l-0.12401,0.10629l-0.14999,0.075l-0.01114,0.01951l-0.05574,0.01394l-0.04986,0.02492l-0.44871,0.09972l-0.44593,0.11148h-0.05574l-0.05609,0.01246l-0.01869,-0.01246h-0.4234l-0.29454,0.07363h-0.24627l-0.23892,0.05973h-3.83149l0.01946,0.03892l0.07474,0.33635l0.06015,0.05156l0.11905,0.04252l0.11178,0.07452l0.19729,0.04932l0.19439,0.10367l0.21506,0.0478l0.13957,0.06978l0.35735,0.11911h0.4621l0.48539,-0.13868l0.25042,-0.12521l0.01115,-0.01951l0.05574,-0.01394l0.04985,-0.02492l0.44871,-0.09972l0.03489,-0.00872l0.04986,-0.02493l0.44871,-0.09972l0.44593,-0.11148h0.05574l0.05609,-0.01246l0.00034,0.00023l0.4555,-0.15184l0.32063,-0.02466l0.31198,-0.07799h0.4001l1.00023,0.25006l1.00023,1.75041l-1.00023,1.75041l-1.00023,0.25006h-0.07547l-0.49221,0.16407l-0.32063,0.02466l-0.31197,0.07799h-0.12243l-0.09847,0.02188l-0.0349,0.00872l-0.31658,0.15829l-0.18284,0.04063l-0.16223,0.0936l-0.93355,0.26673l-0.27888,0.00929l-0.2707,0.06768h-1.06691l-0.31198,-0.07799l-0.32063,-0.02466l-0.80019,-0.26673l-0.12148,-0.0773l-0.14056,-0.03124l-0.07032,-0.03516l-0.32041,-0.08011l-0.30208,-0.1611l-0.3224,-0.11514l-0.29647,-0.19765l-0.2949,-0.14745l-0.26522,-0.0884l-0.86983,-0.55353l-0.04569,-0.22845l-0.20229,-0.1156l-0.25006,-1.00023v-0.38606l-0.0307,-0.04825l-0.01763,-0.05288l-0.00171,-0.00286l-0.14744,-0.13403l-0.26673,-0.40009l-0.04252,-0.11904l-0.08227,-0.09598l-0.07499,-0.14998l-0.01951,-0.01115l-0.01394,-0.05574l-0.02493,-0.04986l-0.09971,-0.44871l-0.05358,-0.21432l-0.08861,-0.26583l-0.00379,-0.04926l-0.03914,-0.03751v-0.4713l-0.03614,-0.46991l0.03614,-0.0404v-0.04941l0.07364,-0.29454v-0.55392l0.07799,-0.31197zM342.09531,169.33059l-0.04446,-0.13336h-0.73643l-0.31198,-0.07799l-0.32063,-0.02466l-0.25119,-0.08373l-0.48206,-0.08034h-0.02901l-0.04235,0.02117l-0.60095,0.36057l-0.0603,0.01835z"/><path d="M363.58728,165.31349c0.20998,0 0.41391,0.02589 0.60878,0.07464h0.07335l0.0259,0.02703c0.63876,0.18828 1.17114,0.62481 1.48545,1.19791l0.16483,0.04636l1.03923,0.05773l0.2649,0.30906l0.15658,0.04404l0.19572,0.36696l0.22133,0.25823l0.26039,0.52077l0.02438,0.01393l0.01741,0.06966l0.03116,0.06231l0.09298,0.41844l0.64801,1.08002l0.00414,0.0136l0.03963,0.02265l0.1506,0.60238l0.18079,0.59402l-0.02233,0.03981l0.00068,0.00269l0.0829,0.12435l0.03383,0.09472l0.07355,0.04203l0.13658,0.54632l0.18941,0.53033l-0.02754,0.05507l0.08345,0.16691l0.03904,0.17566l0.09661,0.15181l0.27715,0.83145l0.01426,0.02853l0.02438,0.01393l0.01742,0.06966l0.03115,0.06231l0.01498,0.0674l0.1786,0.15309l0.04401,0.79217l0.02634,0.10538v0.06966l0.01558,0.07009l-0.01558,0.02337v0.17021l-0.00161,0.00645l0.07101,1.27825l-2.09632,1.39755l-1.25779,-0.27951l-0.33333,-0.16666l-0.97828,-0.83853l-0.00521,-0.09382l-0.08433,0.08434l-0.04424,0.05161l-0.00692,0.12453l-0.37626,0.32251l-0.32251,0.37626l-0.12453,0.00692l-0.15497,0.13284l-0.33334,0.16666l-0.17566,0.03904l-0.15181,0.09661l-0.33145,0.11048l-0.02852,0.01426l-0.01394,0.02438l-0.06966,0.01741l-0.0623,0.03115l-0.56075,0.12461l-0.55728,0.13932h-0.06966l-0.07009,0.01558l-0.02337,-0.01558h-0.50355l-0.38988,-0.09747l-0.40069,-0.03082l-0.5,-0.16666l-0.0895,-0.05695l-0.10473,-0.01689l-1.16667,-0.5l-0.25356,-0.19271l-0.15918,-0.00884l-0.27575,-0.3217l-0.33734,-0.25638l-0.01817,-0.15839l-0.20727,-0.2418l-0.09706,-0.19412l-0.247,-0.3705l-0.03384,-0.09472l-0.07354,-0.04202l-0.13659,-0.54633l-0.1894,-0.53033l0.03788,-0.07576l-0.02439,-0.09758v-2.66667l0.09747,-0.38987l0.03082,-0.40069l0.08839,-0.26516l0.13596,-1.08769l0.11606,-0.29983l0.04344,-0.31856l0.33334,-0.83333l0.15311,-0.212l0.08796,-0.24627l0.31502,-0.47253l0.00212,-0.03826l0.49104,-0.42089l0.47854,-0.43504l0.03823,0.00263l1.49124,-0.74562l0.01393,-0.02438l0.06966,-0.01741l0.0623,-0.03115l0.56075,-0.12461l0.55728,-0.13932h0.06966l0.07009,-0.01557l0.02337,0.01557h0.02911l0.3137,-0.07842c0.21047,-0.05753 0.43201,-0.08824 0.66073,-0.08824zM363.21919,170.40553l-0.11823,0.02956l-0.54549,0.27275l-0.02742,0.06856l-0.12673,1.01387l-0.08989,0.23221l-0.0191,0.24827l-0.03837,0.11513v1.05877l0.98158,-0.98158l0.09749,-0.29246l0.0876,-0.43797v-1.32709z"/><path d="M372.85641,180.07648c-3.12639,-2.12405 -3.33996,-15.99282 1.06796,-17.19366c1.71586,-0.46745 8.81306,2.71803 6.01708,5.51401c-2.09327,2.09327 -4.17624,-0.07626 -4.35417,0.28527c-0.79937,1.62427 0.61396,6.44158 0.90388,8.18109c0.16816,0.33616 0.26279,0.71552 0.26279,1.11697c0,1.38071 -1.11929,2.5 -2.5,2.5c-0.22224,0 -0.4377,-0.029 -0.64282,-0.08342c-0.26658,-0.05737 -0.5226,-0.16256 -0.75473,-0.32027z"/><path d="M390.201,165.24615c3.67298,1.6679 1.02742,6.22693 -1.10174,7.76579c-0.83477,0.60333 -2.96959,0.33161 -2.78214,1.34438c0.37731,2.03863 6.36156,-1.14008 7.56579,0.02595c0.60333,0.58419 0.68846,1.57997 0.702,2.41968c0.02917,1.81018 -3.27777,2.63302 -4.54849,3.0565c-4.12807,1.37569 -8.86476,-1.71968 -8.79485,-6.05266c-0.80759,-0.53664 -1.26193,-1.51995 -1.07604,-2.53412c0.1219,-0.66506 0.49651,-1.22006 1.00659,-1.58408c2.11445,-3.3402 4.38714,-6.54926 9.02889,-4.44144z"/><path d="M406.94328,181.08896c-0.81828,0 -1.5336,-0.44083 -1.92143,-1.09796l-0.02939,-0.0168l-0.01596,-0.06383c-0.16766,-0.31311 -0.26273,-0.67092 -0.26273,-1.05093v-6.91369l-0.10534,-0.52669l0.01056,-0.22181l-0.05386,-0.21543v-9.66124l0.27869,-1.11476l0.29425,-0.16814l0.08007,-0.29361l0.82976,-0.2263l0.74675,-0.42671l0.26423,0.15099l0.32696,-0.08917l0.96419,0.57851l0.57534,0.24658l0.01469,0.0049h0.23274l0.26627,0.06657h0.27447l0.54307,0.13577l0.69115,0.13823l0.22405,0.10613l0.2442,0.04274l1.23936,0.55083l0.7897,0.26323l0.25124,0.15988l0.28044,0.10016l0.4459,0.29727l0.29446,0.3239l0.3239,0.29446l0.29727,0.4459l0.04738,0.13268l0.09169,0.10697l0.29727,0.59454l0.07225,0.32511l0.13279,0.30543l0.26851,1.61106l0.09332,0.27995l0.02749,0.35734l0.08692,0.3477v2.23268l0.01389,0.02084l-0.01389,0.06251v0.06212l-0.12425,0.49699l-0.11113,0.50008l-0.02778,0.05556l-0.01553,0.06212l-0.02174,0.01242l-0.23221,0.46442l-0.23324,0.27211l-0.18439,0.30732l-0.29727,0.29727l-0.23535,0.14121l-0.19408,0.19408l-0.50782,0.30469l-0.10319,0.10319l-0.30732,0.18439l-0.27211,0.23324l-0.86547,0.43274l-0.04144,0.04144l-0.43928,0.26357l-0.43219,0.27503l-0.05894,0.01965l-0.05491,0.03295l-0.02416,-0.00659l-0.15758,0.05253l-0.15555,0.07777l-1.1217,0.24927l-0.21605,-0.14403l-0.25051,0.06832l-0.59789,-0.35873v4.87959c0,0.38001 -0.09507,0.73782 -0.26273,1.05093l-0.01596,0.06383l-0.02939,0.0168c-0.38783,0.65713 -1.10315,1.09796 -1.92143,1.09796zM410.40525,169.58221l0.86547,-0.43274l0.04144,-0.04144l0.23535,-0.14121l0.19408,-0.19408l0.25527,-0.15316v-1.2891l-0.03422,-0.10267l-0.01356,-0.17632l-0.07051,-0.16218l-0.24215,-1.45293l-0.03161,-0.06322l-0.4616,-0.15387l-0.09248,-0.05885l-0.10798,-0.0189l-1.11184,-0.49415l-0.5008,-0.10016l-0.04913,-0.02327h-0.05436l-0.20244,-0.05061v5.67756l1.00808,-0.27493l0.10089,-0.06053z"/><path d="M421.56206,163.16619c0.0159,0.02265 0.03324,0.05884 0.05194,0.10773c0.21994,0.34552 0.34736,0.75568 0.34736,1.19561c0,0.07585 -0.00379,0.15082 -0.01118,0.22472c0.75291,3.9009 2.07023,13.86261 1.94343,14.936c-0.26524,2.24545 -2.5151,2.78 -4.18034,1.11476c-1.15408,-1.15408 -1.96038,-13.65872 -2.19689,-16.02379c-0.00928,-0.08261 -0.01405,-0.16659 -0.01405,-0.25169c0,-1.11012 0.81134,-2.03074 1.8734,-2.20123c0.72306,-0.22952 1.52891,-0.03893 2.18634,0.89789z"/><path d="M433.42126,180.0705l-0.11425,0.19042l-0.74317,0.74317l-0.07692,0.04615l-0.02389,0.07166l-0.45387,0.21499l-0.43064,0.25839l-0.07288,-0.01988l-0.08107,0.0384l-0.60706,0.12141l-0.31422,0.10474l-0.35734,0.02749l-0.3477,0.08692h-1.34087l-0.02084,0.01389l-0.06251,-0.01389h-0.06212l-0.49699,-0.12425l-0.50008,-0.11113l-0.05556,-0.02778l-0.06212,-0.01553l-0.01242,-0.02174l-0.76169,-0.38085l-0.13821,-0.11846l-0.11106,-0.00617l-0.28762,-0.33555l-0.33555,-0.28762l-0.00617,-0.11106l-0.11846,-0.13821l-0.14863,-0.29727l-0.03481,-0.15665l-0.08615,-0.13538l-0.59454,-1.78361l-0.02749,-0.35734l-0.08692,-0.3477v-1.93225l0.03892,-0.15568l-0.01651,-0.15962l0.13914,-0.97397l-0.01291,-0.02986l0.23118,-0.54905l0.22477,-0.5517l0.03024,-0.01198l0.31833,-0.42444l0.00139,-0.025l0.04862,-0.04167l0.03727,-0.0497l0.39759,-0.32304l0.38895,-0.33339l0.05556,-0.02778l0.0497,-0.04038l0.02485,0.00311l1.61017,-0.80509l1.25996,-0.69998c0.31841,-0.18494 0.6868,-0.29331 1.07996,-0.29992l0.06526,-0.01751l0.02954,0.01789c0.96786,0.02412 1.78258,0.66504 2.06591,1.54447l0.36226,0.11025l0.06754,0.04053l0.03172,0.00176l0.03047,0.03555l0.61344,0.36806l0.25342,0.25342l0.29227,0.20742l0.89181,1.04044l0.12274,0.24549l0.17862,0.20839l0.87864,1.75728l0.04144,0.04144l0.00652,0.01087l0.03919,0.01102l0.26059,0.4886l0.2849,0.47483l-0.01071,0.03927l0.00596,0.01118l0.12787,0.51147l0.12156,0.36467l0.02749,0.35734l0.08692,0.3477v0.29727l-0.02853,0.11413l0.00225,0.02925l-0.01327,0.01483l-0.23914,0.95655l-1.95083,1.11476l-1.43898,-0.82227zM428.92464,175.29693l-0.01819,0.12734v1.412l0.21969,0.65907h0.31032l0.10267,-0.03422l0.14047,-0.01081l0.12732,-0.06031l0.08124,-0.01625l0.10974,-0.10974l0.04604,-0.06906l0.05159,-0.12898v-0.01654l0.06657,-0.26627v-0.27447l0.05146,-0.20582l-0.08783,-0.79044l-0.11226,-0.44905v-0.17855l-0.05292,-0.10585z"/><path d="M448.06441,175.08073c-1.35669,3.72073 -1.98482,5.39567 -4.14607,9.0353c-0.6233,1.04967 -0.8912,2.71309 -1.57928,3.62459c-1.1776,1.55996 -1.96344,6.13412 -4.62504,5.24692c-2.30808,-0.76936 -1.4421,-2.87696 -0.91406,-4.30817c0.90004,-2.43947 2.50013,-4.7227 3.91988,-7.04696c-0.94274,-0.89569 -1.04255,-2.35157 -1.34241,-3.74498c-0.39838,-1.85121 -0.27967,-3.75121 -1.05596,-5.56256c-0.12824,-0.2814 -0.19968,-0.59413 -0.19968,-0.92355c0,-0.1534 0.01549,-0.30317 0.04499,-0.44785c0.18922,-1.14714 0.90382,-1.66505 1.71248,-1.7316c0.95089,-0.07825 2.03184,0.46763 2.54153,1.34843c0.53748,0.92881 0.57053,3.68655 0.87989,5.43173c0.06957,-0.2922 0.12735,-0.58704 0.17195,-0.88485c0.14741,-0.98433 1.51827,-4.77089 3.00583,-4.58495c0.26428,-0.11039 0.55436,-0.17136 0.85867,-0.17136c1.23133,0 2.22952,0.99819 2.22952,2.22952c0.73762,0.82446 -1.29659,1.92636 -1.50223,2.49033z"/><path d="M452.1891,181.0345c-1.26777,-1.15321 -1.78565,-4.47189 -1.78565,-6.10949c0,-3.13021 4.67734,-7.58926 5.30291,-1.81096c0.21499,1.98582 -0.73699,3.04186 0.07959,5.49159c0.08471,0.23562 0.13087,0.48962 0.13087,0.75441c0,1.23133 -0.99819,2.22952 -2.22952,2.22952c-0.1715,0 -0.33848,-0.01936 -0.49887,-0.05603c-0.34946,-0.06043 -0.69198,-0.21946 -0.99933,-0.49903z"/><path d="M450.26871,163.90204c0,-1.23133 0.99819,-2.22952 2.22952,-2.22952c1.23133,0 2.22952,0.99819 2.22952,2.22952c0,1.23133 -0.99819,2.22952 -2.22952,2.22952c-1.23133,0 -2.22952,-0.99819 -2.22952,-2.22952z"/><path d="M462.19508,167.68912c3.77565,-0.94391 6.78741,2.18692 6.95021,5.72552c0.08089,1.75834 0.53075,6.09401 -2.22952,6.09401c-4.87794,0 -0.38241,-6.11167 -2.77159,-7.27143c-0.35493,-0.17229 -0.70369,-0.06855 -1.05538,0.14187c-0.21476,0.40385 -0.55009,0.73382 -0.95797,0.9419c-0.05153,1.78607 -0.11349,3.24098 0.32591,4.99858v0.4459c0,1.04717 -0.72194,1.92573 -1.69526,2.1651c-0.81148,0.39423 -1.75387,0.24958 -2.48509,-1.05034c-1.51327,-2.69022 -1.3734,-7.52915 -0.87323,-10.33009c0.55457,-3.1056 2.58436,-2.44116 3.80593,-0.79908c0.32653,-0.32681 0.55482,-0.95416 0.98598,-1.06195z"/><path d="M483.31955,173.19923c0.44562,4.50032 1.81399,12.00508 -1.93686,16.06085c-1.57384,1.70177 -11.26974,4.14992 -9.61666,-0.80933c0.87894,-2.63682 7.13598,-0.46599 7.14835,-3.51472c0.00674,-1.66181 0.01344,-3.32365 0.01622,-4.9855l-0.01622,0.00406h-1.63498l-0.21543,-0.05386l-0.22181,0.01056l-0.74317,-0.14863l-0.26913,-0.12748l-0.2907,-0.0646l-0.89181,-0.4459l-0.06637,-0.05689l-0.08363,-0.02545l-0.74317,-0.4459l-0.19408,-0.19408l-0.23535,-0.14121l-0.4459,-0.4459l-0.11425,-0.19042l-0.16431,-0.14938l-0.2436,-0.3654l-0.5341,-0.66762l-0.09882,-0.21561l-0.15436,-0.18008l-0.23221,-0.46442l-0.02174,-0.01242l-0.01553,-0.06212l-0.02778,-0.05556l-0.11113,-0.50008l-0.12425,-0.49699v-0.06212l-0.01389,-0.06251l0.01389,-0.02084v-2.38132l0.06657,-0.26627v-0.27447l0.14863,-0.59454l0.11554,-0.21665l0.05326,-0.23969l0.2558,-0.51159l0.2385,-0.59624l0.11166,-0.33498c0.11408,-0.37095 0.32235,-0.70065 0.59689,-0.96119l0.03628,-0.05701l0.03383,-0.00677c0.39172,-0.34148 0.90389,-0.54829 1.46437,-0.54829c0.06239,0 0.12417,0.00256 0.18526,0.00759l0.60128,-0.51538l0.16716,-0.08358l0.01242,-0.02174l0.06212,-0.01553l0.05556,-0.02778l0.50008,-0.11113l0.49699,-0.12425h0.06212l0.06251,-0.01389l0.02084,0.01389h0.45223l0.02084,-0.01389l0.06251,0.01389h0.06212l0.49699,0.12425l0.38988,0.08664l0.00159,-0.00043l0.00208,0.00125l0.10653,0.02367l0.05556,0.02778l0.06212,0.01553l0.01242,0.02174l0.16716,0.08358l0.27211,0.23324l0.14439,0.08663c0.02688,-0.01806 0.05474,-0.03534 0.08359,-0.05183c0.38783,-0.65713 1.10315,-1.09796 1.92143,-1.09796c1.23133,0 2.22952,0.99819 2.22952,2.22952c0,0.12238 -0.00986,0.24245 -0.02883,0.35947c0.38657,1.2957 0.24214,2.82224 0.42087,4.6273zM475.78222,171.56726l-0.05539,0.0767l-0.02052,0.09235l-0.18782,0.37564l-0.02271,0.09083v1.6932l0.40325,0.50406l0.04111,0.08969l0.073,0.06637l0.17481,0.26222l0.09572,0.09572l0.4344,0.26064l0.54817,0.27409l0.03846,0.00769l0.00503,-0.03017l0.01472,-0.03385l-0.00176,-0.03687l0.10534,-0.52669v-0.2283l-0.01389,-0.02084l0.01389,-0.06251v-0.06212l0.12425,-0.49699l0.02439,-0.10974v-0.30788l-0.08207,-0.32827v-0.18692l-0.24943,-0.39195l-0.01965,-0.05894l-0.03295,-0.05491l0.00659,-0.02416l-0.00822,-0.02465l-0.72619,-1.08928l-0.04738,-0.13268l-0.09169,-0.10697l-0.09198,-0.18396l-0.22797,0.05066z"/><path d="M501.01184,158.32161c0.6127,0.91262 1.09453,2.09245 1.37193,3.15946c1.99718,7.68197 -4.7206,5.88261 -5.89043,10.16438c-0.36211,1.3254 0.00723,5.48801 -0.74218,6.23743c-0.52959,0.52959 -1.41874,0.59119 -2.1677,0.59119c-3.21684,0 -1.76944,-6.56286 -1.37528,-8.07494c0.97508,-3.74062 6.10415,-4.11599 5.83097,-7.85123c-0.36278,-4.96039 -5.42345,-2.9615 -7.84265,-2.12419c-0.26014,0.14352 -0.55202,0.23658 -0.86243,0.266c-0.0701,0.00664 -0.14115,0.01004 -0.21299,0.01004c-1.23133,0 -2.22952,-0.99819 -2.22952,-2.22952c0,-0.769 0.38933,-1.44707 0.98163,-1.84784c3.0342,-3.5792 10.71879,-1.90517 13.13864,1.69921z"/><path d="M491.49923,183.88674c0,-1.23133 0.99819,-2.22952 2.22952,-2.22952c1.23133,0 2.22952,0.99819 2.22952,2.22952c0,1.23133 -0.99819,2.22952 -2.22952,2.22952c-1.23133,0 -2.22952,-0.99819 -2.22952,-2.22952z"/><path d="M290.86235,201.81869c0.29333,0.58667 0.49656,1.1433 0.62506,1.66989c5.17584,0.76243 5.17584,6.31948 5.17584,6.31948c-0.00191,11.68302 1.21776,25.4178 -0.85765,36.93963c-1.1256,6.24888 0.40793,14.71197 -4.72177,18.45385c-3.71804,2.71214 -8.83591,-3.09473 -12.47906,-5.90665c-2.28896,-1.76671 -2.94623,-4.98717 -4.6561,-7.3189c-3.42959,-4.67692 -7.98354,-8.41497 -11.92576,-12.66874c-2.59341,-2.79837 -7.06817,-5.12718 -7.14533,-8.94172c-0.27345,-13.51916 14.70359,-19.34127 21.9178,-28.07475l5.47272,-3.33683c0,0 5.7295,-2.86475 8.59425,2.86475zM283.82205,213.54628c-4.01091,3.97962 -8.28312,6.86219 -12.68453,10.75867c-1.3838,1.22505 -3.42128,2.39303 -3.5792,4.23443c-0.09593,1.11858 2.17794,0.6727 3.10391,1.30752c1.92153,1.31734 3.7645,2.78912 5.35489,4.49157c2.43259,2.60401 4.69802,5.3653 6.86166,8.20002c0.02335,-1.39372 0.09664,-2.70728 0.1201,-3.81894c0.1773,-8.40078 0.69381,-16.77465 0.82318,-25.17327z"/><path d="M369.12722,198.32812l5.47272,3.33683c7.21421,8.73348 22.19124,14.55558 21.9178,28.07475c-0.07715,3.81455 -4.55191,6.14335 -7.14532,8.94172c-3.94222,4.25377 -8.49617,7.99183 -11.92576,12.66874c-1.70986,2.33173 -2.36713,5.55219 -4.65609,7.3189c-3.64315,2.81192 -8.76103,8.61879 -12.47907,5.90665c-5.1297,-3.74188 -3.59616,-12.20497 -4.72177,-18.45385c-2.07541,-11.52182 -0.85574,-25.25661 -0.85766,-36.93963c0,0 0,-5.55705 5.17584,-6.31947c0.1285,-0.5266 0.33173,-1.08323 0.62506,-1.6699c2.86475,-5.7295 8.59425,-2.86475 8.59425,-2.86475zM368.39645,238.09373c0.02346,1.11166 0.09675,2.42522 0.1201,3.81894c2.16364,-2.83472 4.42907,-5.59601 6.86165,-8.20002c1.59038,-1.70245 3.43335,-3.17424 5.35488,-4.49158c0.92598,-0.63483 3.19985,-0.18894 3.10392,-1.30752c-0.15792,-1.84139 -2.19539,-3.00937 -3.5792,-4.23442c-4.40142,-3.89648 -8.67363,-6.77906 -12.68453,-10.75867c0.12937,8.39862 0.64587,16.77249 0.82318,25.17327z"/><path d="M339.51944,264.3683c-5.72882,4.63375 -17.84295,5.78514 -24.59909,2.40707c-9.08291,-4.54146 -9.93735,-11.77687 -10.27851,-20.9101c-0.08548,-2.2885 -1.79945,-3.83803 -0.9713,-6.08807c-1.2744,-2.81137 -0.6432,-6.56006 0.64534,-13.62049c0.95411,-5.22796 1.15094,-10.89936 3.5732,-15.82975c4.70747,-9.58179 16.30133,-16.868 27.02841,-12.83957c2.49751,0.93791 5.49424,2.94623 7.12559,5.36615c3.77202,5.59534 4.93918,25.5506 4.83258,30.99174c-0.03295,1.68201 0.24565,4.15296 0.10846,6.52412c2.37769,7.49769 -1.86975,19.47346 -7.46468,23.99891zM322.67938,256.3652c5.3515,0.1568 12.15551,-0.99091 12.19628,-7.8514c0.0076,-1.27806 -0.20243,-4.74557 -0.01011,-7.29588c-0.57892,-8.77931 0.0808,-16.17574 -1.89506,-24.54564c-0.61778,-2.61696 0.06464,-7.88291 -3.69712,-8.21484c-9.38168,-0.82783 -13.16379,11.99227 -13.19141,19.32906c-0.01459,3.87444 0.18934,7.75356 0,11.62339c-0.00611,0.12481 -0.00957,0.25557 -0.01247,0.38999c-0.04078,0.63563 -0.18054,1.24433 -0.40402,1.81085c1.68025,5.84492 -0.69144,14.52871 7.01392,14.75447z"/></g></g></svg>