<svg version="1.1" xmlns="http://www.w3.org/2000/svg" xmlns:xlink="http://www.w3.org/1999/xlink" width="168.85107" height="178.1989" viewBox="0,0,168.85107,178.1989"><g transform="translate(-233.63928,-44.7831)"><g stroke-miterlimit="10"><path d="M354.31229,161.26586c0,0.15141 1.2897,13.43513 2.40545,25.79265c-8.67425,9.8395 -14.15648,21.7407 -20.22428,33.49696c-0.16001,0.31002 -0.32373,0.61967 -0.49085,0.929c-12.25611,0.70365 -27.881,-3.4994 -36.77364,-3.4994c-12.9328,0 -16.61799,0.67938 -15.66527,-15.93576c0.278,-4.84833 4.91527,-39.52966 4.91527,-40.9501c0,-2.97641 12.36761,-9.68608 17.3354,-11.71467c1.57293,-0.64231 5.24793,-22.33785 5.24793,-22.33785c0,0 13.95999,-3.50506 19.10186,1.9276c0.63563,0.67158 4.56625,20.22505 5.12545,20.62095c2.24863,1.59195 19.0227,9.74196 19.0227,11.67064z" fill="#ffffff" stroke="#000000" stroke-width="3" stroke-linecap="butt"/><path d="M277.52776,101.23292c0,-25.16888 19.0279,-45.57229 42.5,-45.57229c23.47211,0 42.5,20.40341 42.5,45.57229c0,7.68496 -1.77397,14.68694 -4.90676,20.70655c-1.25157,2.40487 -0.14542,7.57082 -1.80427,9.64302c-2.56084,3.19895 -8.15004,3.06088 -11.52103,5.3513c-6.88062,4.67504 -15.24599,7.31118 -24.26795,7.31118c-8.8277,0 -17.02678,-2.52385 -23.82144,-7.01204c-2.71745,-1.79501 -6.92666,-1.32962 -9.1452,-3.71723c-2.33817,-2.51636 -2.65531,-7.91656 -4.32609,-11.00951c-3.31962,-6.14526 -5.20727,-13.34588 -5.20727,-21.27325z" fill="#ffffff" stroke="#000000" stroke-width="3" stroke-linecap="butt"/><path d="M296.30711,130.33896c0,0 -1.37376,0.04931 -2.2706,0.80529c-1.03776,0.87477 -2.02614,2.25941 -3.24812,3.15923c-1.20439,0.88687 -2.64318,1.29904 -3.56486,0.79534c-4.05428,-2.21564 -5.10714,-10.07557 -5.50805,-13.93134c-0.13054,-1.25543 -0.42544,-2.31984 -0.42544,-2.31984" fill="#ffffff" stroke="#000000" stroke-width="3" stroke-linecap="round"/><path d="M357.56227,122.25931c0,0 -0.2949,1.06441 -0.42544,2.31984c-0.40091,3.85577 0.24381,11.19337 -3.81047,13.40901c-0.92168,0.5037 -3.53572,0.09153 -4.74011,-0.79534c-1.22198,-0.89982 -2.73269,-1.76213 -3.77045,-2.6369c-0.89684,-0.75598 -2.14001,-1.32763 -2.14001,-1.32763" fill="#ffffff" stroke="#000000" stroke-width="3" stroke-linecap="round"/><path d="M324.60946,62.52003c0,0 15.02762,1.63991 17.36885,8.8848" fill="none" stroke="#000000" stroke-width="3" stroke-linecap="round"/><path d="M291.64006,72.76123c13.29234,-13.74358 21.17503,-9.0291 21.17503,-9.0291" fill="none" stroke="#000000" stroke-width="3" stroke-linecap="round"/><path d="M309.29882,63.36483c0,0 -1.22126,7.68893 -7.98819,9.29605" fill="none" stroke="#000000" stroke-width="3" stroke-linecap="round"/><path d="M334.02423,70.90373c-5.98566,-1.64428 -6.68557,-7.90948 -6.68557,-7.90948" fill="none" stroke="#000000" stroke-width="3" stroke-linecap="round"/><path d="M337.61263,59.7148c0,0 -5.17452,0.32143 -8.48791,-2.21991c-3.31338,-2.54133 -3.91749,-4.96216 -3.91749,-4.96216c0.23826,0.32047 -1.34024,-3.80442 -1.08099,-3.49528c4.74566,5.65882 13.48639,10.67736 13.48639,10.67736z" fill="#000000" stroke="#000000" stroke-width="3" stroke-linecap="round"/><path d="M297.99241,61.03832c0,0 8.74073,-5.87543 13.48639,-12.50046c0.25925,-0.36192 -1.31925,4.46727 -1.08099,4.09209c0,0 -0.60411,2.83417 -3.91749,5.80942c-3.31339,2.97526 -8.48791,2.59895 -8.48791,2.59895z" fill="#000000" stroke="#000000" stroke-width="3" stroke-linecap="round"/><path d="M351.81463,117.33325c0,4.60372 2.5426,14.48641 -6.04889,10.81695c-2.25495,-0.96309 -6.9703,-5.43389 -10.62571,-10.0877c-5.10092,-6.49414 -11.00366,-11.9632 -15.2021,-11.9632c-3.82245,0 -11.4328,3.18834 -15.11853,7.34864c-5.20064,5.87027 -8.62597,12.11044 -12.2617,13.74392c-6.37307,2.86332 -6.78746,-1.94832 -6.78746,-5.74523c0,-3.91946 1.8328,-17.16706 7.2842,-28.5683c4.97744,-10.40999 13.03676,-19.17474 24.1574,-20.03232c25.51243,-2.22419 34.60278,36.98911 34.60278,44.48725z" fill="#000000" stroke="#000000" stroke-width="3" stroke-linecap="butt"/><path d="M399.92683,133.47642c-3.89975,7.92948 -12.81964,11.52554 -19.92313,8.03202c-7.1035,-3.49352 -9.70065,-12.7537 -5.8009,-20.68318c3.89975,-7.92948 12.81964,-11.52554 19.92313,-8.03202c7.1035,3.49352 9.70065,12.7537 5.8009,20.68318z" fill="#ffffff" stroke="#000000" stroke-width="1.5" stroke-linecap="butt"/><path d="M242.00369,111.79325c7.1035,-3.49352 16.02339,0.10253 19.92313,8.03202c3.89974,7.92948 1.30259,17.18966 -5.8009,20.68318c-7.1035,3.49352 -16.02339,-0.10253 -19.92313,-8.03202c-3.89974,-7.92948 -1.30259,-17.18966 5.8009,-20.68318z" fill="#ffffff" stroke="#000000" stroke-width="1.5" stroke-linecap="butt"/><path d="M339.89814,214.81751c0,-0.88878 0.46379,-1.66924 1.16256,-2.11255c-1.08731,-1.26088 -0.13963,-2.84036 -0.13963,-2.84036l2,-3.33333c0,0 1.28624,-2.14373 3.42997,-0.85749c2.14373,1.28624 0.85749,3.42997 0.85749,3.42997l-0.20354,0.33923c0.14541,0.31699 0.22647,0.66963 0.22647,1.04121c0,1.37247 -1.10597,2.48663 -2.47531,2.49988c-0.10737,0.10375 -0.23305,0.21067 -0.37615,0.30938c0.32491,0.42188 0.51813,0.95041 0.51813,1.52407c0,1.38071 -1.11929,2.5 -2.5,2.5c-0.11942,0 -0.23689,-0.00837 -0.35184,-0.02457c0.32514,0.42196 0.51851,0.95068 0.51851,1.52457c0,1.38071 -1.11929,2.5 -2.5,2.5c-1.38071,0 -2.5,-1.11929 -2.5,-2.5c0,-1.38071 1.11929,-2.5 2.5,-2.5c0.11942,0 0.23689,0.00837 0.35184,0.02457c-0.32514,-0.42196 -0.51851,-0.95068 -0.51851,-1.52457z" fill="#ffffff" stroke="none" stroke-width="0.5" stroke-linecap="butt"/><path d="M346.56481,203.81751c0,-0.66556 0.26008,-1.27038 0.68416,-1.71836c-0.16995,-0.71017 0.07198,-1.37321 0.27028,-1.76135c-0.76803,-0.42663 -1.28777,-1.2461 -1.28777,-2.18696c0,-1.38071 1.11929,-2.5 2.5,-2.5c0.76553,0 1.4507,0.34408 1.90928,0.88603c0.27367,-1.08386 1.25518,-1.88603 2.42405,-1.88603c1.38071,0 2.5,1.11929 2.5,2.5c0,0.98407 -0.56857,1.83534 -1.39513,2.24322c-0.15647,0.5478 -0.43821,0.92344 -0.43821,0.92344l-2,2.66667c0,0 -0.08201,0.10935 -0.23325,0.25773c0.04355,0.1848 0.06658,0.37751 0.06658,0.5756c0,1.38071 -1.11929,2.5 -2.5,2.5c-1.38071,0 -2.5,-1.11929 -2.5,-2.5z" fill="#ffffff" stroke="none" stroke-width="0.5" stroke-linecap="butt"/><path d="M358.56481,192.81751c0,1.38071 -1.11929,2.5 -2.5,2.5c-1.18128,0 -2.1712,-0.8193 -2.43253,-1.92065c-0.82963,-0.40679 -1.4008,-1.2597 -1.4008,-2.24601c0,-1.38071 1.11929,-2.5 2.5,-2.5c1.18128,0 2.1712,0.8193 2.43253,1.92065c0.82963,0.40678 1.4008,1.2597 1.4008,2.24601z" fill="#ffffff" stroke="none" stroke-width="0.5" stroke-linecap="butt"/><path d="M355.56481,201.48418c0,-1.38071 1.11929,-2.5 2.5,-2.5c1.38071,0 2.5,1.11929 2.5,2.5c0,1.38071 -1.11929,2.5 -2.5,2.5c-1.38071,0 -2.5,-1.11929 -2.5,-2.5z" fill="#ffffff" stroke="none" stroke-width="0.5" stroke-linecap="butt"/><path d="M353.89814,214.81751c0,-1.38071 1.11929,-2.5 2.5,-2.5c1.38071,0 2.5,1.11929 2.5,2.5c0,1.38071 -1.11929,2.5 -2.5,2.5c-1.38071,0 -2.5,-1.11929 -2.5,-2.5z" fill="#ffffff" stroke="none" stroke-width="0.5" stroke-linecap="butt"/><path d="M347.89814,211.81751c0,-1.38071 1.11929,-2.5 2.5,-2.5c1.38071,0 2.5,1.11929 2.5,2.5c0,1.38071 -1.11929,2.5 -2.5,2.5c-1.38071,0 -2.5,-1.11929 -2.5,-2.5z" fill="#ffffff" stroke="none" stroke-width="0.5" stroke-linecap="butt"/></g></g></svg>