<svg version="1.1" xmlns="http://www.w3.org/2000/svg" xmlns:xlink="http://www.w3.org/1999/xlink" width="159.5922" height="132.86774" viewBox="0,0,159.5922,132.86774"><g transform="translate(-233.63928,-44.7831)"><g stroke-miterlimit="10"><path d="M305.81438,149.38453c1.57293,-0.64231 5.24793,-22.33785 5.24793,-22.33785c0,0 13.95999,-3.50506 19.10186,1.9276c0.2254,0.23815 0.86516,2.85074 1.62199,6.14144c-13.2941,9.41175 -27.04416,18.24066 -41.97214,23.91159c-0.05507,0.02092 -0.11002,0.04207 -0.16486,0.06344c3.20025,-3.31565 12.12725,-8.05732 16.16522,-9.70622z" fill="#ffffff" stroke="#000000" stroke-width="3" stroke-linecap="butt"/><path d="" fill="#ffffff" stroke="#000000" stroke-width="3" stroke-linecap="butt"/><path d="" fill="#ffffff" stroke="#000000" stroke-width="3" stroke-linecap="butt"/><path d="" fill="#ffffff" stroke="#000000" stroke-width="3" stroke-linecap="butt"/><path d="M277.52776,101.23292c0,-25.16888 19.0279,-45.57229 42.5,-45.57229c23.47211,0 42.5,20.40341 42.5,45.57229c0,4.60743 -0.63765,8.96936 -1.82347,13.02128c-1.92594,1.41921 -3.84921,2.80251 -5.71094,4.11971c-12.00004,8.49021 -24.02556,17.77771 -36.64343,25.84052c-8.18794,-0.29872 -15.78144,-2.779 -22.14361,-6.98151c-2.71745,-1.79501 -6.92666,-1.32962 -9.1452,-3.71723c-2.33817,-2.51636 -2.65531,-7.91656 -4.32609,-11.00951c-3.31962,-6.14526 -5.20727,-13.34588 -5.20727,-21.27325z" fill="#ffffff" stroke="#000000" stroke-width="3" stroke-linecap="butt"/><path d="M296.30711,130.33896c0,0 -1.37376,0.04931 -2.2706,0.80529c-1.03776,0.87477 -2.02614,2.25941 -3.24812,3.15923c-1.20439,0.88687 -2.64318,1.29904 -3.56486,0.79534c-4.05428,-2.21564 -5.10714,-10.07557 -5.50805,-13.93134c-0.13054,-1.25543 -0.42544,-2.31984 -0.42544,-2.31984" fill="#ffffff" stroke="#000000" stroke-width="3" stroke-linecap="round"/><path d="" fill="#ffffff" stroke="#000000" stroke-width="3" stroke-linecap="round"/><path d="M324.60946,62.52003c0,0 15.02762,1.63991 17.36885,8.8848" fill="none" stroke="#000000" stroke-width="3" stroke-linecap="round"/><path d="M291.64006,72.76123c13.29234,-13.74358 21.17503,-9.0291 21.17503,-9.0291" fill="none" stroke="#000000" stroke-width="3" stroke-linecap="round"/><path d="M309.29882,63.36483c0,0 -1.22126,7.68893 -7.98819,9.29605" fill="none" stroke="#000000" stroke-width="3" stroke-linecap="round"/><path d="M334.02423,70.90373c-5.98566,-1.64428 -6.68557,-7.90948 -6.68557,-7.90948" fill="none" stroke="#000000" stroke-width="3" stroke-linecap="round"/><path d="M337.61263,59.7148c0,0 -5.17452,0.32143 -8.48791,-2.21991c-3.31338,-2.54133 -3.91749,-4.96216 -3.91749,-4.96216c0.23826,0.32047 -1.34024,-3.80442 -1.08099,-3.49528c4.74566,5.65882 13.48639,10.67736 13.48639,10.67736z" fill="#000000" stroke="#000000" stroke-width="3" stroke-linecap="round"/><path d="M297.99241,61.03832c0,0 8.74073,-5.87543 13.48639,-12.50046c0.25925,-0.36192 -1.31925,4.46727 -1.08099,4.09209c0,0 -0.60411,2.83417 -3.91749,5.80942c-3.31339,2.97526 -8.48791,2.59895 -8.48791,2.59895z" fill="#000000" stroke="#000000" stroke-width="3" stroke-linecap="round"/><path d="M351.81463,117.33325c0,0.90143 0.09748,2.00526 0.18977,3.17011c-2.83425,2.03186 -5.67253,4.09879 -8.52231,6.1742c-2.42997,-1.90746 -5.66934,-5.21234 -8.34206,-8.61506c-5.10092,-6.49414 -11.00366,-11.9632 -15.2021,-11.9632c-3.82245,0 -11.4328,3.18834 -15.11853,7.34864c-5.20064,5.87027 -8.62597,12.11044 -12.2617,13.74392c-6.37307,2.86332 -6.78746,-1.94832 -6.78746,-5.74523c0,-3.91946 1.8328,-17.16706 7.2842,-28.5683c4.97744,-10.40999 13.03676,-19.17474 24.1574,-20.03232c25.51243,-2.22419 34.60278,36.98911 34.60278,44.48725z" fill="#000000" stroke="#000000" stroke-width="3" stroke-linecap="butt"/><path d="" fill="#ffffff" stroke="#000000" stroke-width="1.5" stroke-linecap="butt"/><path d="" fill="#ffffff" stroke="#000000" stroke-width="1.5" stroke-linecap="butt"/><path d="M242.00369,111.79325c7.1035,-3.49352 16.02339,0.10253 19.92313,8.03202c3.89974,7.92948 1.30259,17.18966 -5.8009,20.68318c-7.1035,3.49352 -16.02339,-0.10253 -19.92313,-8.03202c-3.89974,-7.92948 -1.30259,-17.18966 5.8009,-20.68318z" fill="#ffffff" stroke="#000000" stroke-width="1.5" stroke-linecap="butt"/><path d="M376.23148,119.48418c0,-1.38071 1.11929,-2.5 2.5,-2.5c1.38071,0 2.5,1.11929 2.5,2.5c0,1.38071 -1.11929,2.5 -2.5,2.5c-1.38071,0 -2.5,-1.11929 -2.5,-2.5z" fill="#ffffff" stroke="none" stroke-width="0.5" stroke-linecap="butt"/><path d="M383.56481,111.81751c0,-1.38071 1.11929,-2.5 2.5,-2.5c1.38071,0 2.5,1.11929 2.5,2.5c0,1.38071 -1.11929,2.5 -2.5,2.5c-1.38071,0 -2.5,-1.11929 -2.5,-2.5z" fill="#ffffff" stroke="none" stroke-width="0.5" stroke-linecap="butt"/><path d="M388.23148,124.81751c0,-1.38071 1.11929,-2.5 2.5,-2.5c1.38071,0 2.5,1.11929 2.5,2.5c0,1.38071 -1.11929,2.5 -2.5,2.5c-1.38071,0 -2.5,-1.11929 -2.5,-2.5z" fill="#ffffff" stroke="none" stroke-width="0.5" stroke-linecap="butt"/><path d="M287.56481,158.81751c0,-1.38071 1.11929,-2.5 2.5,-2.5c1.38071,0 2.5,1.11929 2.5,2.5c0,1.38071 -1.11929,2.5 -2.5,2.5c-1.38071,0 -2.5,-1.11929 -2.5,-2.5z" fill="#ffffff" stroke="none" stroke-width="0.5" stroke-linecap="butt"/><path d="M298.23148,159.81751c0,-0.72446 0.30815,-1.37695 0.80054,-1.83354c-1.3656,-0.01756 -2.4672,-1.13003 -2.4672,-2.49979c0,-1.18128 0.8193,-2.1712 1.92065,-2.43253c0.40678,-0.82963 1.2597,-1.4008 2.24602,-1.4008c0.25538,0 0.50182,0.03829 0.73389,0.10945c0.3983,-0.85228 1.26325,-1.44278 2.26611,-1.44278c1.38071,0 2.5,1.11929 2.5,2.5c0,1.38071 -1.11929,2.5 -2.5,2.5c-0.25538,0 -0.50182,-0.03829 -0.73389,-0.10945c-0.31909,0.68279 -0.93769,1.19757 -1.68677,1.37531c-0.13613,0.27763 -0.32222,0.52632 -0.54655,0.73435c1.3656,0.01756 2.4672,1.13003 2.4672,2.49979c0,1.38071 -1.11929,2.5 -2.5,2.5c-1.38071,0 -2.5,-1.11929 -2.5,-2.5z" fill="#ffffff" stroke="none" stroke-width="0.5" stroke-linecap="butt"/><path d="M323.39814,136.31751c1.38071,0 2.5,1.11929 2.5,2.5c0,1.37273 -1.10639,2.48705 -2.47609,2.49989c-0.11306,0.10864 -0.19058,0.16678 -0.19058,0.16678l-2.66667,2c0,0 -1.44903,1.08677 -2.80535,0.17684c0.08985,0.25777 0.13868,0.53476 0.13868,0.82316c0,1.38071 -1.11929,2.5 -2.5,2.5c-0.26522,0 -0.5208,-0.0413 -0.76065,-0.11782c0.37047,0.43604 0.59398,1.00083 0.59398,1.61782c0,1.38071 -1.11929,2.5 -2.5,2.5c-1.38071,0 -2.5,-1.11929 -2.5,-2.5c0,-1.38071 1.11929,-2.5 2.5,-2.5c0.26522,0 0.5208,0.0413 0.76065,0.11782c-0.37047,-0.43604 -0.59398,-1.00083 -0.59398,-1.61782c0,-1.38071 1.11929,-2.5 2.5,-2.5c0.47242,0 0.91424,0.13104 1.29109,0.35875c-0.70816,-1.67095 0.87558,-2.85875 0.87558,-2.85875l2.66667,-2c0,0 0.66102,-0.49576 1.50803,-0.53724c0.44132,-0.39161 1.02221,-0.62942 1.65864,-0.62942z" fill="#ffffff" stroke="none" stroke-width="0.5" stroke-linecap="butt"/><path d="M336.96295,127.52386c1.62698,1.89814 -0.27116,3.52512 -0.27116,3.52512l-2.33333,2c0,0 -0.59607,0.51092 -1.40646,0.62611c0.07143,1.20896 -0.95339,2.06297 -0.95339,2.06297l-2,1.66667c0,0 -1.92055,1.60046 -3.52101,-0.32009c-1.60046,-1.92055 0.32009,-3.52101 0.32009,-3.52101l2,-1.66667c0,0 0.58582,-0.48819 1.38,-0.60177c-0.06734,-1.19035 0.92682,-2.04249 0.92682,-2.04249l2.33333,-2c0,0 1.89814,-1.62698 3.52512,0.27116z" fill="#ffffff" stroke="none" stroke-width="0.5" stroke-linecap="butt"/><path d="M359.89814,122.48418c0,1.38071 -1.11929,2.5 -2.5,2.5c-1.31361,0 -2.39058,-1.01313 -2.49217,-2.30063c-0.14787,0.08256 -0.24602,0.12182 -0.24602,0.12182l-3.33333,1.33333c0,0 -1.32597,0.53039 -2.37443,-0.21276c-0.03295,1.29439 -1.26781,2.0353 -1.26781,2.0353l-3.33333,2c0,0 -0.55889,0.33534 -1.27716,0.37819c-0.44337,0.40072 -1.03106,0.64474 -1.67574,0.64474c-1.38071,0 -2.5,-1.11929 -2.5,-2.5c0,-1.37384 1.10818,-2.48886 2.47941,-2.49992c0.22282,-0.20356 0.40101,-0.31048 0.40101,-0.31048l3.33333,-2c0,0 1.50222,-0.90133 2.74613,0.06254c-0.02582,-1.58502 1.61164,-2.24 1.61164,-2.24l3.33333,-1.33333c0,0 0.18379,-0.07352 0.46862,-0.12746c0.21139,-1.16661 1.2323,-2.05135 2.45985,-2.05135c0.04029,0 0.08036,0.00095 0.12018,0.00284c0.41868,-0.79452 1.25266,-1.33617 2.21315,-1.33617c1.38071,0 2.5,1.11929 2.5,2.5c0,1.38071 -1.11929,2.5 -2.5,2.5c-0.04029,0 -0.08036,-0.00095 -0.12018,-0.00284c-0.06609,0.12543 -0.14254,0.24455 -0.2282,0.35624c1.23042,0.15634 2.18172,1.20704 2.18172,2.47993z" fill="#ffffff" stroke="none" stroke-width="0.5" stroke-linecap="butt"/><path d="M349.89814,126.48418c0,-1.38071 1.11929,-2.5 2.5,-2.5c1.38071,0 2.5,1.11929 2.5,2.5c0,1.38071 -1.11929,2.5 -2.5,2.5c-1.38071,0 -2.5,-1.11929 -2.5,-2.5z" fill="#ffffff" stroke="none" stroke-width="0.5" stroke-linecap="butt"/><path d="M344.23148,130.81751c0,-1.38071 1.11929,-2.5 2.5,-2.5c1.38071,0 2.5,1.11929 2.5,2.5c0,1.38071 -1.11929,2.5 -2.5,2.5c-1.38071,0 -2.5,-1.11929 -2.5,-2.5z" fill="#ffffff" stroke="none" stroke-width="0.5" stroke-linecap="butt"/><path d="M334.56481,136.15084c0,-1.38071 1.11929,-2.5 2.5,-2.5c1.38071,0 2.5,1.11929 2.5,2.5c0,1.38071 -1.11929,2.5 -2.5,2.5c-1.38071,0 -2.5,-1.11929 -2.5,-2.5z" fill="#ffffff" stroke="none" stroke-width="0.5" stroke-linecap="butt"/><path d="M327.29704,143.25194c-1.76777,-1.76777 0,-3.53553 0,-3.53553l1.3164,-1.13497c0.88889,-0.44444 1.77778,-0.88889 2.66667,-1.33333c0,0 2.23607,-1.11803 3.3541,1.11803c1.11803,2.23607 -1.11803,3.3541 -1.11803,3.3541c-0.88889,0.44444 -1.77778,0.88889 -2.66667,1.33333l-0.01693,0.19837c0,0 -1.76777,1.76777 -3.53553,0z" fill="#ffffff" stroke="none" stroke-width="0.5" stroke-linecap="butt"/><path d="M307.71533,156.0052c-0.85436,-2.34948 1.49513,-3.20384 1.49513,-3.20384l3.66667,-1.33333c0,0 1.16307,-0.42293 2.15014,0.14465c-0.08374,-0.24979 -0.12911,-0.51718 -0.12911,-0.79517c0,-1.38071 1.11929,-2.5 2.5,-2.5c0.80963,0 1.52937,0.38486 1.98625,0.98163c-0.00687,-0.00943 -0.01373,-0.01894 -0.02058,-0.02853c-1.4531,-2.03433 0.58124,-3.48743 0.58124,-3.48743l2.33333,-1.66667c0,0 2.03433,-1.4531 3.48743,0.58124c1.4531,2.03433 -0.58124,3.48743 -0.58124,3.48743l-2.33333,1.66667c0,0 -1.97669,1.41192 -3.42487,-0.49626c0.29685,0.41112 0.47178,0.9161 0.47178,1.46193c0,1.38071 -1.11929,2.5 -2.5,2.5c-0.48748,0 -0.94237,-0.13952 -1.32692,-0.38081c0.00327,0.00877 0.00651,0.01759 0.00973,0.02646c0.85436,2.34948 -1.49513,3.20384 -1.49513,3.20384l-3.66667,1.33333c0,0 -2.34948,0.85436 -3.20384,-1.49513z" fill="#ffffff" stroke="none" stroke-width="0.5" stroke-linecap="butt"/><path d="M304.89814,166.48418c0,-1.38071 1.11929,-2.5 2.5,-2.5c1.38071,0 2.5,1.11929 2.5,2.5c0,1.38071 -1.11929,2.5 -2.5,2.5c-1.38071,0 -2.5,-1.11929 -2.5,-2.5z" fill="#ffffff" stroke="none" stroke-width="0.5" stroke-linecap="butt"/><path d="M316.89814,166.15084c0,-1.38071 1.11929,-2.5 2.5,-2.5c1.38071,0 2.5,1.11929 2.5,2.5c0,1.38071 -1.11929,2.5 -2.5,2.5c-1.38071,0 -2.5,-1.11929 -2.5,-2.5z" fill="#ffffff" stroke="none" stroke-width="0.5" stroke-linecap="butt"/><path d="M330.23148,154.81751c0,-1.38071 1.11929,-2.5 2.5,-2.5c1.38071,0 2.5,1.11929 2.5,2.5c0,1.38071 -1.11929,2.5 -2.5,2.5c-1.38071,0 -2.5,-1.11929 -2.5,-2.5z" fill="#ffffff" stroke="none" stroke-width="0.5" stroke-linecap="butt"/><path d="M351.56481,136.48418c0,-1.38071 1.11929,-2.5 2.5,-2.5c1.38071,0 2.5,1.11929 2.5,2.5c0,1.38071 -1.11929,2.5 -2.5,2.5c-1.38071,0 -2.5,-1.11929 -2.5,-2.5z" fill="#ffffff" stroke="none" stroke-width="0.5" stroke-linecap="butt"/><path d="M354.89814,154.15084c0,-1.38071 1.11929,-2.5 2.5,-2.5c1.38071,0 2.5,1.11929 2.5,2.5c0,1.38071 -1.11929,2.5 -2.5,2.5c-1.38071,0 -2.5,-1.11929 -2.5,-2.5z" fill="#ffffff" stroke="none" stroke-width="0.5" stroke-linecap="butt"/><path d="M343.89814,168.15084c0,-1.38071 1.11929,-2.5 2.5,-2.5c1.38071,0 2.5,1.11929 2.5,2.5c0,1.38071 -1.11929,2.5 -2.5,2.5c-1.38071,0 -2.5,-1.11929 -2.5,-2.5z" fill="#ffffff" stroke="none" stroke-width="0.5" stroke-linecap="butt"/><path d="M357.89814,175.15084c0,-1.38071 1.11929,-2.5 2.5,-2.5c1.38071,0 2.5,1.11929 2.5,2.5c0,1.38071 -1.11929,2.5 -2.5,2.5c-1.38071,0 -2.5,-1.11929 -2.5,-2.5z" fill="#ffffff" stroke="none" stroke-width="0.5" stroke-linecap="butt"/><path d="M374.89814,162.81751c0,-1.38071 1.11929,-2.5 2.5,-2.5c1.38071,0 2.5,1.11929 2.5,2.5c0,1.38071 -1.11929,2.5 -2.5,2.5c-1.38071,0 -2.5,-1.11929 -2.5,-2.5z" fill="#ffffff" stroke="none" stroke-width="0.5" stroke-linecap="butt"/></g></g></svg>