<svg version="1.1" xmlns="http://www.w3.org/2000/svg" xmlns:xlink="http://www.w3.org/1999/xlink" width="63.17413" height="51.10126" viewBox="0,0,63.17413,51.10126"><g transform="translate(-229.03786,-155.34698)"><g stroke-miterlimit="10"><path d="M231.12417,205.19823l-0.43301,-4.21459l52.25,-0.04215v4.25674z" fill="#151212" stroke="#000000" stroke-width="2.5" stroke-linecap="butt"/><path d="M279.52449,194.55377l2.875,6.96557c0,0 -45.72319,0.36597 -51.33666,0.35889c-1.13101,-0.00143 -0.91334,-0.42472 -0.91334,-0.42472l20.68301,-7.00528z" fill="#151212" stroke="#000000" stroke-width="2.5" stroke-linecap="butt"/><path d="M269.82329,196.33154c0.71932,0.00623 1.45227,0.03297 1.92409,0.09261c1.56846,0.19828 -6.04466,1.1213 -9.65741,1.39404c-0.3844,0.03939 -0.84443,0.0665 -1.32934,0.07459c-0.78601,0.01311 -1.44625,-0.02696 -1.79421,-0.09817c-2.56378,-0.08013 -8.98793,-0.89222 -8.19203,-1.19218c0.31006,-0.11685 2.46181,-0.2254 3.2021,-0.16708c0.43329,0.03414 2.4612,0.25684 4.33842,0.46999c0.43912,-0.41599 1.30485,-0.8626 1.58858,-1.03291c0.17035,-0.10225 0.50068,-0.51758 1.24747,-0.56357l1.7572,-0.12825c0.58739,0.04325 1.514,0.04999 1.87767,0.11741c0.04709,0.00873 0.08475,0.01847 0.111,0.02945c0.62866,0.26283 -1.70373,1.36369 -2.16784,1.70277c-0.03062,0.02237 -0.05758,0.04753 -0.08436,0.0747c3.04326,-0.36728 6.79588,-0.77673 7.17868,-0.77342z" fill="#ffffff" stroke="none" stroke-width="0.5" stroke-linecap="butt"/><g stroke="#000000" stroke-width="3"><path d="M290.70987,180.13737c-0.79073,5.10448 -2.00367,9.37245 -6.47302,8.75795c-4.46934,-0.61449 -9.41554,-7.81535 -8.6248,-12.91982c0.65071,-4.20061 4.84178,-13.41696 8.84663,-13.46408c0.86176,-0.01014 1.85026,7.79012 2.64168,7.89893c4.46934,0.61449 4.40026,4.62253 3.60952,9.72701z" fill="#ffffff" stroke-linecap="butt"/><path d="M280.92311,183.58457c-0.08775,0.56646 0.91421,2.95218 0.59534,4.48125c-0.50179,2.40628 -1.9191,4.03833 -2.28643,4.61918c-0.37377,0.59105 0.48247,1.19815 -0.06324,2.72391c-1.00901,2.82108 -2.9357,3.57481 -3.37283,3.78044c-3.95926,1.86246 -22.07611,2.88025 -28.13075,2.04779c-12.72701,-1.74985 -13.13342,-3.74258 -11.54322,-14.00795c0.99507,-6.42354 1.65278,-23.57684 9.07566,-27.12768c1.31311,-0.62814 5.67685,-3.19875 7.97641,-3.25452c2.14175,-0.05195 2.12135,-1.7177 3.85485,-0.59312c1.36787,0.88738 4.1594,0.4464 6.02747,1.27801c1.8165,0.80864 2.71466,2.9004 3.72145,3.03883c0.93129,0.12805 6.87544,0.05157 8.79404,0.47745c4.30334,0.95521 5.58867,2.85619 6.90708,4.04011c3.7551,3.37206 0.12567,6.73973 0.41306,8.92058c0.11678,0.88623 1.00188,2.7224 0.63622,4.2765c-0.2777,1.18021 -2.34243,3.60361 -2.60509,5.29924z" fill="#ffffff" stroke-linecap="butt"/><path d="M256.41921,169.22638l25.0461,3.96514" fill="none" stroke-linecap="round"/><path d="M252.09325,178.8532l28.1616,4.18489" fill="none" stroke-linecap="round"/><path d="M250.37388,188.9427l26.65081,3.76857" fill="none" stroke-linecap="round"/></g></g></g></svg>