<svg version="1.1" xmlns="http://www.w3.org/2000/svg" xmlns:xlink="http://www.w3.org/1999/xlink" width="644.22048" height="362.69597" viewBox="0,0,644.22048,362.69597"><defs><linearGradient x1="320.17062" y1="-0.35237" x2="320.17062" y2="358.58836" gradientUnits="userSpaceOnUse" id="color-1"><stop offset="0" stop-color="#38c7ff"/><stop offset="1" stop-color="#3873ff"/></linearGradient><linearGradient x1="318.73953" y1="132.20886" x2="318.73953" y2="359.84478" gradientUnits="userSpaceOnUse" id="color-2"><stop offset="0" stop-color="#386fff" stop-opacity="0"/><stop offset="1" stop-color="#386fff"/></linearGradient><linearGradient x1="323.04944" y1="87.13003" x2="323.04944" y2="2.24088" gradientUnits="userSpaceOnUse" id="color-3"><stop offset="0" stop-color="#f5faff" stop-opacity="0"/><stop offset="1" stop-color="#f5faff" stop-opacity="0.32157"/></linearGradient><linearGradient x1="320.99705" y1="46.90405" x2="320.99705" y2="171.10852" gradientUnits="userSpaceOnUse" id="color-4"><stop offset="0" stop-color="#3896ff" stop-opacity="0"/><stop offset="1" stop-color="#3896ff"/></linearGradient><linearGradient x1="231.44168" y1="72.14712" x2="231.44168" y2="184.44179" gradientUnits="userSpaceOnUse" id="color-5"><stop offset="0" stop-color="#ffffff" stop-opacity="0"/><stop offset="1" stop-color="#ffffff" stop-opacity="0.44314"/></linearGradient><radialGradient cx="315.85428" cy="214.79796" r="227.62091" gradientUnits="userSpaceOnUse" id="color-6"><stop offset="0" stop-color="#f5faff" stop-opacity="0.32157"/><stop offset="1" stop-color="#f5faff" stop-opacity="0"/></radialGradient><linearGradient x1="319.19153" y1="263.47164" x2="319.19153" y2="359.84478" gradientUnits="userSpaceOnUse" id="color-7"><stop offset="0" stop-color="#3849ff" stop-opacity="0"/><stop offset="1" stop-color="#3849ff" stop-opacity="0.48235"/></linearGradient><linearGradient x1="338.95267" y1="308.57729" x2="338.95267" y2="361.1012" gradientUnits="userSpaceOnUse" id="color-8"><stop offset="0" stop-color="#132758"/><stop offset="1" stop-color="#0c0c2b"/></linearGradient><radialGradient cx="301.4929" cy="275.97775" r="42.64467" gradientUnits="userSpaceOnUse" id="color-9"><stop offset="0" stop-color="#ff0000" stop-opacity="0.37647"/><stop offset="1" stop-color="#ff0000" stop-opacity="0"/></radialGradient><radialGradient cx="321.62147" cy="274.99381" r="42.64467" gradientUnits="userSpaceOnUse" id="color-10"><stop offset="0" stop-color="#ff0000" stop-opacity="0.37647"/><stop offset="1" stop-color="#ff0000" stop-opacity="0"/></radialGradient><radialGradient cx="346.5443" cy="277.2538" r="42.64466" gradientUnits="userSpaceOnUse" id="color-11"><stop offset="0" stop-color="#ff0000" stop-opacity="0.37647"/><stop offset="1" stop-color="#ff0000" stop-opacity="0"/></radialGradient><radialGradient cx="365.88112" cy="279.43431" r="42.64467" gradientUnits="userSpaceOnUse" id="color-12"><stop offset="0" stop-color="#ff0000" stop-opacity="0.37647"/><stop offset="1" stop-color="#ff0000" stop-opacity="0"/></radialGradient><radialGradient cx="366.34466" cy="285.87068" r="37.33865" gradientUnits="userSpaceOnUse" id="color-13"><stop offset="0" stop-color="#ff0000" stop-opacity="0.37647"/><stop offset="1" stop-color="#ff0000" stop-opacity="0"/></radialGradient><radialGradient cx="298.59072" cy="283.31895" r="37.33865" gradientUnits="userSpaceOnUse" id="color-14"><stop offset="0" stop-color="#ff0000" stop-opacity="0.37647"/><stop offset="1" stop-color="#ff0000" stop-opacity="0"/></radialGradient><radialGradient cx="330.15581" cy="289.80189" r="37.33865" gradientUnits="userSpaceOnUse" id="color-15"><stop offset="0" stop-color="#ff0000" stop-opacity="0.37647"/><stop offset="1" stop-color="#ff0000" stop-opacity="0"/></radialGradient><radialGradient cx="302.2136" cy="274.31964" r="36.40754" gradientUnits="userSpaceOnUse" id="color-16"><stop offset="0" stop-color="#ffffff" stop-opacity="0.1451"/><stop offset="1" stop-color="#ffffff" stop-opacity="0"/></radialGradient><radialGradient cx="320.52239" cy="270.45164" r="36.40754" gradientUnits="userSpaceOnUse" id="color-17"><stop offset="0" stop-color="#ffffff" stop-opacity="0.1451"/><stop offset="1" stop-color="#ffffff" stop-opacity="0"/></radialGradient><radialGradient cx="345.10102" cy="270.8013" r="36.40753" gradientUnits="userSpaceOnUse" id="color-18"><stop offset="0" stop-color="#ffffff" stop-opacity="0.1451"/><stop offset="1" stop-color="#ffffff" stop-opacity="0"/></radialGradient><radialGradient cx="363.35346" cy="270.74339" r="36.40754" gradientUnits="userSpaceOnUse" id="color-19"><stop offset="0" stop-color="#ffffff" stop-opacity="0.1451"/><stop offset="1" stop-color="#ffffff" stop-opacity="0"/></radialGradient></defs><g transform="translate(1.4742,1.10119)"><g stroke-miterlimit="10"><path d="M1.48089,358.58836v-358.94073h637.37946v358.94073z" fill="url(#color-1)" stroke="none" stroke-width="NaN" stroke-linecap="butt"/><path d="M-1.45019,359.84478v-227.63592h640.37946v227.63592z" fill="url(#color-2)" stroke="none" stroke-width="0" stroke-linecap="butt"/><path d="M316.19449,144.03557c-160.40132,0.65564 -312.50713,20.02254 -312.50713,20.02254l-3.70561,-125.6163c0,0 113.01972,-33.78105 321.73003,-33.78105c205.00469,0 318.60084,33.78105 318.60084,33.78105v130.64989c0,0 -150.04093,-25.76769 -324.11809,-25.05614z" fill-opacity="0.61176" fill="#29273b" stroke="none" stroke-width="0" stroke-linecap="butt"/><g><path d="M2.41543,156.67375v-109.55538c0,0 113.59616,-28.32682 318.60085,-28.32682c208.71029,0 321.73001,28.32682 321.73001,28.32682l-3.70561,105.33449c0,0 -152.10581,-16.23995 -312.50715,-16.78974c-174.07715,-0.59667 -324.11809,21.01063 -324.11809,21.01063z" fill-opacity="0.61176" fill="#29273b" stroke="none" stroke-width="0" stroke-linecap="butt"/><text transform="translate(37.35374,109.11551) scale(0.1968,0.19952)" font-size="40" xml:space="preserve" fill="#ffffff" stroke="none" stroke-width="1" stroke-linecap="butt" font-family="Sans Serif" font-weight="normal" text-anchor="start"><tspan x="0" dy="0">Safe</tspan></text><path d="M41.7555,90.75459c-0.7468,0 -1.35219,-0.61376 -1.35219,-1.37086v-6.0318c0,-0.75712 0.6054,-1.37086 1.35219,-1.37086h7.93287c0.7468,0 1.35219,0.61375 1.35219,1.37086v6.0318c0,0.75712 -0.6054,1.37086 -1.35219,1.37086z" fill="none" stroke="#ffffff" stroke-width="2" stroke-linecap="butt"/><path d="M42.74711,81.79827c0,0 -0.93328,-4.69329 2.97483,-4.84372c4.17862,-0.16085 3.24526,4.75232 3.24526,4.75232" fill="none" stroke="#ffffff" stroke-width="2" stroke-linecap="round"/><path d="M44.35029,86.34388c0,-0.75712 0.60541,-1.37086 1.3522,-1.37086c0.7468,0 1.35219,0.61375 1.35219,1.37086c0,0.75712 -0.6054,1.37086 -1.35219,1.37086c-0.7468,0 -1.3522,-0.61376 -1.3522,-1.37086z" fill="#ffffff" stroke="none" stroke-width="2" stroke-linecap="butt"/><path d="M136.12744,71.64084c0.89731,1.06241 1.43929,2.44241 1.43929,3.95073c0,3.35652 -2.68394,6.0775 -5.99474,6.0775c-3.31081,0 -5.99473,-2.721 -5.99473,-6.0775c0,-1.6248 0.62892,-3.10069 1.65345,-4.1911" fill="none" stroke="#ffffff" stroke-width="2" stroke-linecap="round"/><path d="M131.43678,69.4227v5.9404" fill="none" stroke="#ffffff" stroke-width="2" stroke-linecap="round"/><text transform="translate(112.96973,99.98603) scale(0.1968,0.19952)" font-size="40" xml:space="preserve" fill="#ffffff" stroke="none" stroke-width="1" stroke-linecap="butt" font-family="Sans Serif" font-weight="normal" text-anchor="start"><tspan x="0" dy="0">Power off</tspan></text><text transform="translate(213.03201,99.30288) scale(0.1968,0.19952)" font-size="40" xml:space="preserve" fill="#ffffff" stroke="none" stroke-width="1" stroke-linecap="butt" font-family="Sans Serif" font-weight="normal" text-anchor="start"><tspan x="0" dy="0">Safe</tspan></text><path d="M217.43376,80.94196c-0.7468,0 -1.35219,-0.61375 -1.35219,-1.37086v-6.0318c0,-0.75712 0.60541,-1.37086 1.35219,-1.37086h7.93287c0.7468,0 1.35219,0.61375 1.35219,1.37086v6.0318c0,0.75712 -0.60541,1.37086 -1.35219,1.37086z" fill="none" stroke="#ffffff" stroke-width="2" stroke-linecap="butt"/><path d="M218.42539,71.98565c0,0 -0.93329,-4.69329 2.97482,-4.84372c4.17863,-0.16085 3.24526,4.75232 3.24526,4.75232" fill="none" stroke="#ffffff" stroke-width="2" stroke-linecap="round"/><path d="M220.02857,76.53126c0,-0.75712 0.60541,-1.37086 1.3522,-1.37086c0.7468,0 1.35219,0.61376 1.35219,1.37086c0,0.75712 -0.6054,1.37085 -1.35219,1.37085c-0.7468,0 -1.3522,-0.61375 -1.3522,-1.37085z" fill="#ffffff" stroke="none" stroke-width="2" stroke-linecap="butt"/><path d="M315.72592,68.79084c0.89731,1.06241 1.43929,2.4424 1.43929,3.95073c0,3.35652 -2.68392,6.0775 -5.99473,6.0775c-3.31081,0 -5.99473,-2.72099 -5.99473,-6.0775c0,-1.6248 0.62894,-3.10068 1.65345,-4.19109" fill="none" stroke="#ffffff" stroke-width="2" stroke-linecap="round"/><path d="M311.03531,72.51308v-5.94039" fill="none" stroke="#ffffff" stroke-width="2" stroke-linecap="round"/><text transform="translate(292.56824,97.13602) scale(0.19679,0.19951)" font-size="40" xml:space="preserve" fill="#ffffff" stroke="none" stroke-width="1" stroke-linecap="butt" font-family="Sans Serif" font-weight="normal" text-anchor="start"><tspan x="0" dy="0">Power off</tspan></text><text transform="translate(392.63051,96.45285) scale(0.19679,0.19951)" font-size="40" xml:space="preserve" fill="#ffffff" stroke="none" stroke-width="1" stroke-linecap="butt" font-family="Sans Serif" font-weight="normal" text-anchor="start"><tspan x="0" dy="0">Safe</tspan></text><path d="M397.03225,78.09193c-0.7468,0 -1.35219,-0.61374 -1.35219,-1.37086v-6.0318c0,-0.75712 0.6054,-1.37086 1.35219,-1.37086h7.93286c0.7468,0 1.35219,0.61375 1.35219,1.37086v6.0318c0,0.75712 -0.60539,1.37086 -1.35219,1.37086z" fill="none" stroke="#ffffff" stroke-width="2" stroke-linecap="butt"/><path d="M398.02388,69.13562c0,0 -0.93329,-4.69329 2.97483,-4.84372c4.17861,-0.16085 3.24527,4.75232 3.24527,4.75232" fill="none" stroke="#ffffff" stroke-width="2" stroke-linecap="round"/><path d="M399.62706,73.68125c0,-0.75712 0.60541,-1.37086 1.35219,-1.37086c0.7468,0 1.35221,0.61376 1.35221,1.37086c0,0.75712 -0.60541,1.37086 -1.35221,1.37086c-0.7468,0 -1.35219,-0.61375 -1.35219,-1.37086z" fill="#ffffff" stroke="none" stroke-width="2" stroke-linecap="butt"/><path d="M495.56761,74.45477c0.89731,1.06241 1.43928,2.44241 1.43928,3.95073c0,3.35652 -2.68392,6.0775 -5.99472,6.0775c-3.31081,0 -5.99474,-2.721 -5.99474,-6.0775c0,-1.6248 0.62892,-3.10069 1.65345,-4.1911" fill="none" stroke="#ffffff" stroke-width="2" stroke-linecap="round"/><path d="M490.87697,72.23663v5.94041" fill="none" stroke="#ffffff" stroke-width="2" stroke-linecap="round"/><text transform="translate(472.40991,102.79997) scale(0.19679,0.19951)" font-size="40" xml:space="preserve" fill="#ffffff" stroke="none" stroke-width="1" stroke-linecap="butt" font-family="Sans Serif" font-weight="normal" text-anchor="start"><tspan x="0" dy="0">Power off</tspan></text><text transform="translate(568.30878,110.55857) scale(0.19679,0.19951)" font-size="40" xml:space="preserve" fill="#ffffff" stroke="none" stroke-width="1" stroke-linecap="butt" font-family="Sans Serif" font-weight="normal" text-anchor="start"><tspan x="0" dy="0">Safe</tspan></text><path d="M572.71052,92.19765c-0.74679,0 -1.35219,-0.61375 -1.35219,-1.37086v-6.0318c0,-0.75712 0.6054,-1.37086 1.35219,-1.37086h7.93287c0.7468,0 1.35219,0.61375 1.35219,1.37086v6.0318c0,0.75712 -0.60539,1.37086 -1.35219,1.37086z" fill="none" stroke="#ffffff" stroke-width="2" stroke-linecap="butt"/><path d="M573.70214,83.24133c0,0 -0.93328,-4.69329 2.97483,-4.84372c4.17862,-0.16085 3.24526,4.75234 3.24526,4.75234" fill="none" stroke="#ffffff" stroke-width="2" stroke-linecap="round"/><path d="M575.30534,87.78697c0,-0.75712 0.60541,-1.37086 1.35221,-1.37086c0.74679,0 1.35219,0.61375 1.35219,1.37086c0,0.75712 -0.6054,1.37086 -1.35219,1.37086c-0.7468,0 -1.35221,-0.61376 -1.35221,-1.37086z" fill="#ffffff" stroke="none" stroke-width="2" stroke-linecap="butt"/><path d="M280.43802,123.14117c-6.13169,0 -11.1024,-5.03934 -11.1024,-11.25568v-67.53414c0,-6.21634 4.97071,-11.25568 11.1024,-11.25568h66.61439c6.13169,0 11.1024,5.03934 11.1024,11.25569v67.53414c0,6.21635 -4.97071,11.25569 -11.1024,11.25569z" fill="none" stroke="#ffffff" stroke-width="2" stroke-linecap="butt"/><path d="M303.56807,123.61016h-43.48446c-6.1317,0 -11.1024,-5.03934 -11.1024,-11.25568v-67.53414c0,-6.21634 4.9707,-11.25568 11.1024,-11.25568h34.75519" fill="none" stroke-opacity="0.28627" stroke="#ffffff" stroke-width="2" stroke-linecap="butt"/><path d="M301.89101,122.6722h-63.54958c-6.1317,0 -11.1024,-5.03934 -11.1024,-11.25568v-67.53414c0,-6.21634 4.9707,-11.25568 11.1024,-11.25568h58.1303" fill="none" stroke-opacity="0.08235" stroke="#ffffff" stroke-width="2" stroke-linecap="butt"/></g><path d="M642.6505,2.24088v84.88915h-639.2021v-84.88915z" fill="url(#color-3)" stroke="none" stroke-width="0" stroke-linecap="butt"/><path d="M0.34361,171.10852v-124.20447h641.30689v124.20448z" fill="url(#color-4)" stroke="none" stroke-width="0" stroke-linecap="butt"/><path d="M234.55139,141.68337c0,19.24173 -3.54862,42.75842 -27.17973,42.75842c-23.63111,0 -37.40579,-14.01485 -37.40579,-33.25654c0,-10.08749 6.71793,-56.25143 37.51131,-72.27696c27.94448,-14.54289 74.22782,-1.09862 85.47027,-1.09862c23.6311,0 -58.39607,44.63199 -58.39607,63.87371z" fill="url(#color-5)" stroke="none" stroke-width="3.5" stroke-linecap="butt"/><g><path d="M212.4686,268.85512c0.03253,0.29224 9.5185,44.81601 10.0984,50.10136c1.7279,15.7482 -5.47771,5.46501 -6.6191,7.97732c-7.49493,16.49707 -42.5362,8.90645 -58.02442,10.5648c-14.42835,1.54487 -18.45692,2.72848 -19.41763,-15.56601c-0.28034,-5.33838 0.66927,-43.84147 0.49625,-45.39575c-0.3625,-3.25687 12.6181,-12.07612 17.91329,-14.88927c1.67658,-0.89072 3.13422,-25.0695 3.13422,-25.0695c0,0 15.14742,-5.5029 21.54555,-0.17257c0.79093,0.65894 7.55753,21.58529 8.22961,21.95171c2.70254,1.47334 22.40896,8.38754 22.64386,10.49795z" fill="#c4c4c4" stroke="#000000" stroke-width="3" stroke-linecap="butt"/><path d="M119.44453,211.90014c-3.06537,-27.54042 15.67791,-52.13927 41.86431,-54.94312c26.1864,-2.80384 49.89963,17.24909 52.965,44.78949c3.06537,27.54042 -15.98971,49.3378 -42.17612,52.14166c-26.18638,2.80384 -49.58782,-14.4476 -52.65319,-41.98801z" fill="#c4c4c4" stroke="#000000" stroke-width="3" stroke-linecap="butt"/><path d="M163.32019,207.30983c1.2254,11.00951 -6.76109,20.89598 -17.83837,22.08206c-11.07728,1.18608 -21.05056,-6.77738 -22.27596,-17.78689c-1.2254,-11.00951 6.76107,-20.89596 17.83835,-22.08203c11.07728,-1.18608 21.05058,6.77739 22.27598,17.78688z" fill="#c4c4c4" stroke="#000000" stroke-width="3.5" stroke-linecap="butt"/><path d="M148.54553,210.5271c-0.37094,-3.33271 2.08291,-6.32934 5.48082,-6.69316c3.39793,-0.36382 6.45318,2.04294 6.82414,5.37564c0.37094,3.33271 -2.08291,6.32933 -5.48082,6.69315c-3.39793,0.36382 -6.45318,-2.04292 -6.82414,-5.37563z" fill="#000000" stroke="none" stroke-width="0.5" stroke-linecap="butt"/><path d="M189.69192,184.09265c11.07728,-1.18608 21.05055,6.77739 22.27597,17.7869c1.2254,11.00951 -6.76109,20.89598 -17.83837,22.08206c-11.07727,1.18608 -21.05056,-6.7774 -22.27596,-17.78691c-1.2254,-11.00951 6.76109,-20.89597 17.83837,-22.08204z" fill="#c4c4c4" stroke="#000000" stroke-width="3.5" stroke-linecap="butt"/><path d="M186.73281,211.62937c-3.21308,0.34402 -6.10214,-1.93179 -6.45292,-5.08321c-0.35075,-3.15141 1.96959,-5.98503 5.18268,-6.32905c3.21308,-0.34402 6.10215,1.9318 6.4529,5.0832c0.35075,3.15141 -1.96959,5.98502 -5.18267,6.32906z" fill="#000000" stroke="none" stroke-width="0.5" stroke-linecap="butt"/><path d="M191.18845,236.36215c0,0 8.35395,4.9762 -19.12221,9.44452c-26.92997,4.3795 -21.48199,-3.03446 -21.48199,-3.03446" fill="none" stroke="#000000" stroke-width="3.5" stroke-linecap="round"/><path d="M502.5166,274.49594c-0.02405,0.29302 0.76342,45.77195 0.32047,51.07003c-1.31982,15.78614 -6.42709,4.3582 -8.02945,6.61543c-10.52182,14.822 -43.4848,0.90884 -59.01489,-0.31665c-14.46731,-1.14162 -18.6509,-0.72152 -16.08977,-18.86722c0.74734,-5.29494 9.05617,-42.9373 9.18401,-44.49577c0.26787,-3.26565 14.70682,-9.53564 20.44662,-11.32286c1.81737,-0.56588 7.88104,-24.04539 7.88104,-24.04539c0,0 15.93184,-2.61338 21.19484,3.80111c0.65062,0.79295 3.28776,22.5936 3.8777,23.07734c2.37216,1.94515 20.40302,12.36788 20.22943,14.484z" fill="#c4c4c4" stroke="#000000" stroke-width="3" stroke-linecap="butt"/><path d="M422.0604,201.41207c2.26522,-27.61479 25.38716,-48.32137 51.64428,-46.2494c26.25714,2.07197 45.70641,26.13784 43.44119,53.75264c-2.26522,27.61479 -25.15671,45.51231 -51.41385,43.44036c-26.25712,-2.07197 -45.93684,-23.32877 -43.67162,-50.94355z" fill="#c4c4c4" stroke="#000000" stroke-width="3" stroke-linecap="butt"/><path d="M466.03398,204.98935c-0.90553,11.03922 -10.64379,19.27779 -21.75098,18.40132c-11.10719,-0.87647 -19.37725,-10.53606 -18.4717,-21.5753c0.90553,-11.03922 10.64376,-19.27778 21.75095,-18.40131c11.10719,0.87647 19.37727,10.53607 18.47172,21.5753z" fill="#c4c4c4" stroke="#000000" stroke-width="3.5" stroke-linecap="butt"/><path d="M442.34424,203.79422c0.67674,-8.24995 4.58833,-14.6725 8.73683,-14.34516c4.1485,0.32736 6.96288,7.28065 6.28614,15.53061c-0.67674,8.24996 -4.58833,14.67249 -8.73683,14.34513c-4.1485,-0.32736 -6.96288,-7.28063 -6.28614,-15.5306z" fill="#000000" stroke="none" stroke-width="0.5" stroke-linecap="butt"/><path d="M496.38379,187.0457c11.10719,0.87647 19.37727,10.53607 18.47172,21.57529c-0.90553,11.03922 -10.64379,19.27781 -21.75098,18.40134c-11.10719,-0.87647 -19.37727,-10.53607 -18.47172,-21.57532c0.90553,-11.03922 10.64378,-19.27779 21.75097,-18.40132z" fill="#c4c4c4" stroke="#000000" stroke-width="3.5" stroke-linecap="butt"/><path d="M476.59301,206.27594c0.67674,-8.24995 4.58833,-14.67251 8.73683,-14.34515c4.1485,0.32736 6.96288,7.28065 6.28614,15.53061c-0.67674,8.24996 -4.58833,14.67251 -8.73683,14.34515c-4.1485,-0.32736 -6.96288,-7.28064 -6.28615,-15.53061z" fill="#000000" stroke="none" stroke-width="0.5" stroke-linecap="butt"/><path d="M487.29555,237.28471c0,0 -15.90596,1.37993 -22.7815,0.72409c-6.51036,-0.62099 -17.43599,-4.56022 -17.43599,-4.56022" fill="none" stroke="#000000" stroke-width="4.5" stroke-linecap="round"/></g><path d="M389.44634,226.07934c0,0.46869 21.49451,90.63417 21.48124,99.10951c-0.03956,25.25316 -23.96025,-10.25607 -26.21248,-6.46792c-14.78928,24.8749 -68.98845,6.8976 -93.82891,6.8976c-23.14056,0 -38.6809,6.45712 -36.97621,-22.70158c0.49742,-8.50856 17.74132,-74.63731 17.74132,-77.13011c0,-5.22345 22.12928,-16.99856 31.0181,-20.55863c2.81443,-1.12722 9.39007,-39.20174 9.39007,-39.20174c0,0 24.97849,-6.1512 34.17881,3.38284c1.13734,1.17858 8.17037,35.49389 9.17093,36.18867c4.02345,2.79379 34.03716,17.09662 34.03716,20.48135z" fill="#ffffff" stroke="#000000" stroke-width="3.5" stroke-linecap="butt"/><path d="M543.47519,214.79796c0,53.19237 -20.28078,101.89184 -53.90813,139.5213c-5.81153,-1.94328 -11.58826,-4.94806 -17.31187,-6.25489c-3.86613,-0.88272 -7.8914,-0.8849 -11.80548,-1.53321c-2.1246,-0.35191 -4.14243,-1.28482 -6.28935,-1.46397c-3.44966,-0.28786 -6.9341,0.33193 -10.38609,0.07246c-0.98964,-0.07438 -1.80678,-0.84272 -2.77389,-1.06161c-4.95137,-1.1207 -9.93238,-2.1316 -14.94509,-2.9489c-4.0555,-0.66124 -8.16023,-0.98909 -12.24034,-1.48362c-5.88393,0.0057 -11.72681,-0.97562 -17.59972,-1.32903c-21.491,-1.29325 -43.50387,-0.03364 -65.02719,-0.03364c-39.07265,0 -78.14529,-0.00554 -117.21795,0c-25.53765,0.00361 -54.76526,-2.87609 -78.25138,8.51538c-29.76986,-36.49579 -47.48532,-82.28572 -47.48532,-132.00026c0,-119.23782 101.90936,-215.89917 227.62091,-215.89917c125.71155,0 227.62091,96.66135 227.62091,215.89917z" fill="url(#color-6)" stroke="none" stroke-width="0" stroke-linecap="butt"/><path d="M253.43585,125.36153c0,-46.42352 35.78346,-84.05722 79.92458,-84.05722c44.14113,0 79.92458,37.63371 79.92458,84.05723c0,46.42352 -35.78346,79.33491 -79.92458,79.33491c-44.14112,0 -79.92458,-32.91136 -79.92458,-79.3349z" fill="#ffffff" stroke="#000000" stroke-width="3.5" stroke-linecap="butt"/><path d="M326.97132,120.47494c0,18.55817 -15.137,33.60258 -33.80939,33.60258c-18.67241,0 -33.80937,-15.04438 -33.80937,-33.60257c0,-18.55817 15.13695,-33.60255 33.80937,-33.60255c18.67241,0 33.80939,15.04438 33.80939,33.60255z" fill="#ffffff" stroke="#000000" stroke-width="3.5" stroke-linecap="butt"/><path d="M303.20376,131.80507c0,-4.39536 3.63287,-7.95852 8.11425,-7.95852c4.48138,0 8.11425,3.56316 8.11425,7.95852c0,4.39536 -3.63287,7.95851 -8.11425,7.95851c-4.48138,0 -8.11425,-3.56313 -8.11425,-7.95851z" fill="#000000" stroke="none" stroke-width="3.5" stroke-linecap="butt"/><path d="M375.20605,86.87237c18.67241,0 33.80939,15.04437 33.80939,33.60254c0,18.55817 -15.137,33.60258 -33.80939,33.60258c-18.67241,0 -33.80939,-15.04438 -33.80939,-33.60258c0,-18.55817 15.137,-33.60254 33.80939,-33.60254z" fill="#ffffff" stroke="#000000" stroke-width="3.5" stroke-linecap="butt"/><path d="M357.45358,138.17991c-4.48138,0 -8.11424,-3.56313 -8.11424,-7.95851c0,-4.39536 3.63286,-7.95852 8.11424,-7.95852c4.48138,0 8.11425,3.56316 8.11425,7.95852c0,4.39536 -3.63287,7.95851 -8.11425,7.95851z" fill="#000000" stroke="none" stroke-width="3.5" stroke-linecap="butt"/><path d="M248.80209,88.65054c0,0 3.39637,-17.60999 26.01015,-11.77338c11.2831,2.91217 44.04359,25.86191 48.78226,26.09697c6.32801,0.31393 8.31324,-10.20087 8.31324,-10.20087" fill="none" stroke="#000000" stroke-width="3.5" stroke-linecap="round"/><path d="M344.24303,83.53695c0,0 7.52668,1.83207 8.25735,-1.14059c3.98618,-16.21666 17.66467,-31.42362 28.17336,-31.11145c18.07926,0.53713 34.83056,26.77105 34.83056,26.77105" fill="none" stroke="#000000" stroke-width="3.5" stroke-linecap="round"/><path d="M291.23502,180.39432l93.65731,-11.41611" fill="none" stroke="#000000" stroke-width="3.5" stroke-linecap="round"/><path d="M364.02289,190.25738c-10.22536,4.1858 -19.80406,-1.77569 -21.39459,-13.31531c-0.04282,-0.31062 -0.07941,-0.62214 -0.10987,-0.93433c2.20324,-0.56465 4.44563,-1.02327 6.82288,-1.22932c9.53023,-0.82602 19.77063,-2.09736 30.0023,-4.36393c-1.75275,8.68777 -7.62271,16.69168 -15.3207,19.84289z" fill="#ffb1ee" stroke="#000000" stroke-width="3.5" stroke-linecap="butt"/><path d="M359.50001,174.45911l-0.77507,4.16245" fill="none" stroke="#000000" stroke-width="3.5" stroke-linecap="round"/><path d="M416.61583,89.44511c0,0 15.20596,-3.17773 20.13783,-2.05594c4.93187,1.1218 12.65589,6.19629 11.60877,8.72953c-1.04711,2.53321 -5.89405,3.67741 -10.82591,2.55562c-4.93187,-1.1218 -20.92066,-9.22921 -20.92066,-9.22921z" fill-opacity="0.5451" fill="#2ac1ff" stroke="none" stroke-width="3.5" stroke-linecap="butt"/><path d="M434.44547,123.38949c3.05442,4.48001 3.22791,9.67544 1.33957,10.44555c-1.88834,0.7701 -4.99669,-1.12172 -6.94272,-4.22548c-1.94602,-3.10376 -5.87531,-15.47128 -5.87531,-15.47128c0,0 9.41341,6.22235 11.47846,9.25122z" fill-opacity="0.5451" fill="#2ac1ff" stroke="none" stroke-width="3.5" stroke-linecap="butt"/><g stroke="#000000" stroke-width="3.5"><path d="M266.9262,148.76108c7.65095,12.94764 13.23362,24.4881 5.57558,28.84129c-7.65805,4.35318 -27.39784,-6.06099 -35.04875,-19.00861c-7.65095,-12.94764 -0.31575,-23.52575 7.34228,-27.87893c7.65805,-4.35318 14.47996,5.09861 22.13088,18.04626z" fill="#ffffff" stroke-linecap="butt"/><path d="M262.435,175.66408c0.84906,1.43686 6.44922,5.71189 8.62007,9.6966c3.41623,6.27071 4.14372,11.91866 4.60501,13.75123c0.46935,1.86471 2.78193,2.17386 4.61223,6.44466c3.38418,7.89656 1.84257,12.1526 1.55262,13.1991c-2.62624,9.47843 -17.91834,17.55355 -27.08991,25.12945c-21.42518,17.6976 -36.74142,24.35607 -52.12785,-1.68229c-9.62803,-16.29346 -38.28965,-57.21348 -33.46798,-75.1218c2.88377,-10.7107 24.50024,-22.21483 32.66162,-26.85415c5.17488,-2.94165 25.2075,-11.31279 30.97807,-9.78319c11.36757,3.01325 11.82842,15.5805 16.01999,20.30248c1.70333,1.91888 6.18168,5.0616 8.32667,9.16539c1.62896,3.1165 2.76795,11.45152 5.30948,15.7525z" fill="#ffffff" stroke-linecap="butt"/><path d="M245.2812,150.68481l-43.81641,23.17697" fill="none" stroke-linecap="round"/><path d="M260.50459,175.25307l-48.79433,26.69879" fill="none" stroke-linecap="round"/><path d="M226.60226,227.74669l45.84529,-25.71454" fill="none" stroke-linecap="round"/></g><g fill-opacity="0.12549" fill="#ffffff" stroke="none" stroke-width="3.5"><path d="M252.88346,147.83663c5.72688,9.98515 9.58142,18.74103 1.16746,20.90642c-8.41396,2.16539 -26.75093,-7.44861 -32.47781,-17.43374c-5.72686,-9.98515 3.32501,-16.56027 11.73898,-18.72569c8.41396,-2.16539 13.84449,5.26786 19.57136,15.25301z" stroke-linecap="butt"/><path d="M240.93587,126.07894l-47.87346,11.1743" stroke-linecap="round"/><path d="M252.51585,145.10805l-53.44995,13.06798" stroke-linecap="round"/><path d="M260.43796,165.30782l-50.31704,12.72022" stroke-linecap="round"/></g><path d="M0.36481,359.84478v-96.37314h637.65346v96.37314z" fill="url(#color-7)" stroke="none" stroke-width="0" stroke-linecap="butt"/><path d="M68.73802,357.46821c0,-27.00171 120.97922,-48.89092 270.21464,-48.89092c149.23542,0 270.21464,21.88921 270.21464,48.89092c0,1.11337 -0.20569,2.21806 -0.61057,3.31287c-179.82348,1.0759 -359.69558,-0.88831 -539.54478,-1.09158c-0.18197,-0.73631 -0.27392,-1.47686 -0.27392,-2.22129z" fill="url(#color-8)" stroke="none" stroke-width="0" stroke-linecap="butt"/><path d="M278.07855,217.87733c0,0 -9.29138,8.71415 -15.22398,13.33411c-6.82315,5.31346 -23.41814,16.75803 -23.41814,16.75803" fill="none" stroke-opacity="0.38039" stroke="#ff6666" stroke-width="3" stroke-linecap="round"/><g><path d="M270.40022,286.13264c-0.82955,-7.5952 1.8648,-21.14979 6.12679,-24.28565c8.2154,-6.04463 54.03237,-4.99872 66.20951,-4.81882c6.59166,0.55894 46.95965,7.3878 50.24728,11.18895c3.22652,3.73047 -0.48058,10.70114 0.51302,14.65572c0.43807,1.74357 6.89482,1.88288 7.26587,2.01559c11.6094,4.15233 15.96405,12.07959 19.37933,22.0069c9.59373,44.59062 -17.29547,49.69663 -48.66046,52.10768c-8.37174,0.64354 -45.08764,-0.48663 -59.36826,-0.4957c-28.85834,-0.01833 -61.53686,-4.93647 -63.94381,-24.08319c-0.57017,-5.64857 -0.23752,-11.26078 0.85074,-16.80601l-0.69774,-0.87552l0.19039,-0.10996c-0.28067,-0.29859 -0.54142,-0.61134 -0.77793,-0.9413c-1.13307,-1.58094 -0.01969,-3.69991 -0.11979,-5.54769c-0.39471,-7.2851 -3.96262,-17.21388 4.72337,-22.12342c4.28266,-2.42069 12.10689,-2.1195 18.06169,-1.8876zM259.82722,333.82925c1.38655,20.97488 72.07236,17.44588 89.28717,14.76118c38.85927,-9.2829 75.90154,8.55565 65.02719,-39.93028c-5.19599,-16.07973 -12.1812,-11.63125 -25.57439,-20.24548c-8.46398,-5.44387 -0.6078,-12.63179 -3.94126,-16.1379c-1.02315,-1.07614 -34.96328,-7.17512 -39.64926,-7.57805c-11.34699,-0.15478 -55.29423,-0.95831 -63.42001,2.51142c-0.61583,0.26297 0.73842,20.11914 0.90447,22.30332c0,0 0.28745,3.81548 -4.18631,4.045c-0.26988,0.01387 -0.52455,0.01297 -0.76482,-0.0009l-0.92959,0.37032c-4.72102,-0.06716 -8.88612,-0.00491 -13.55295,0.51007c-1.805,0.19919 -4.10132,-0.50741 -4.65553,1.61828c-0.24185,0.92766 -0.26885,1.985 -0.17777,3.11757c0.40438,-0.09561 0.83169,-0.14395 1.2731,-0.13767c2.4757,0.03523 4.45732,1.77486 4.42611,3.88562l-0.08478,5.73276l-0.08568,-0.00122c0.02381,0.09723 0.04661,0.19471 0.06831,0.29244c0.37419,1.684 -0.64472,3.3773 -0.98161,5.06601l-0.50679,4.81978c-0.0983,1.05081 -0.69415,1.97793 -1.58473,2.61341c-0.82339,3.98136 -1.344,8.0221 -0.89092,12.38425z" fill="#000000" stroke="none" stroke-width="0.5" stroke-linecap="butt"/><path d="M253.59361,332.40074c0.03064,-2.07151 -1.14346,-35.44004 0.79796,-37.31649c9.63098,-9.30878 44.27232,15.5952 81.56484,16.12573c36.89946,0.52494 67.46145,-20.15647 77.17089,-10.72499c2.08152,2.02193 3.66638,32.05717 3.63414,34.23701c-0.0065,0.43994 -0.05908,0.87624 -0.15646,1.3086c-2.63572,11.70285 -38.09635,20.5097 -81.30983,19.89495c-44.80998,-0.63747 -81.88412,-11.17692 -81.70152,-23.52477z" fill="#000000" stroke="none" stroke-width="NaN" stroke-linecap="butt"/><path d="M251.40141,298.7303c0.1826,-12.34785 36.6563,-21.841 81.46627,-21.20353c44.80998,0.63747 80.98761,11.16417 80.80501,23.51201c-0.1826,12.34785 -36.65629,21.841 -81.46628,21.20353c-44.80998,-0.63747 -80.9876,-11.16415 -80.805,-23.51201z" fill="#141017" stroke="none" stroke-width="NaN" stroke-linecap="butt"/><g><path d="M386.32412,294.96868c-0.09725,6.57578 -24.51875,11.5602 -54.54698,11.13302c-30.0282,-0.42719 -54.29204,-6.1042 -54.19479,-12.67999c0.02012,-1.35992 -0.49972,-21.7287 1.4355,-22.91871c7.42237,-4.56416 29.29332,11.44684 53.11145,11.78568c24.77891,0.35251 48.10186,-11.56374 54.58097,-6.50651c1.37257,1.07135 -0.36916,18.03697 -0.38615,19.18649z" fill="#ff8686" stroke="none" stroke-width="NaN" stroke-linecap="butt"/><path d="M386.62462,274.64824c-0.09725,6.57578 -24.51875,11.5602 -54.54698,11.13302c-30.0282,-0.42719 -54.29204,-6.10421 -54.19479,-12.67999c0.09725,-6.57576 24.51873,-11.56021 54.54695,-11.13302c30.0282,0.42719 54.29207,6.1042 54.19482,12.68z" fill="#ffbcbc" stroke="none" stroke-width="NaN" stroke-linecap="butt"/><path d="M379.13539,277.32648c-21.99839,6.71226 -68.8125,4.48595 -92.72715,-1.40455" fill="none" stroke-opacity="0.68627" stroke="#ffffff" stroke-width="6" stroke-linecap="round"/><path d="M341.89864,276.55256c-0.29692,20.07805 -18.62791,36.09716 -40.94339,35.7797c-22.31549,-0.31746 -40.16504,-16.85128 -39.86812,-36.92933c0.29692,-20.07805 18.62789,-36.09717 40.94337,-35.77971c22.31549,0.31746 40.16506,16.8513 39.86814,36.92934z" fill="url(#color-9)" stroke="none" stroke-width="0" stroke-linecap="butt"/><path d="M362.02722,275.56862c-0.29692,20.07805 -18.6279,36.09716 -40.94337,35.7797c-22.31549,-0.31746 -40.16505,-16.85129 -39.86813,-36.92933c0.29692,-20.07805 18.6279,-36.09717 40.94338,-35.77971c22.31549,0.31746 40.16504,16.85129 39.86813,36.92934z" fill="url(#color-10)" stroke="none" stroke-width="0" stroke-linecap="butt"/><path d="M386.95008,277.82861c-0.29692,20.07805 -18.6279,36.09716 -40.94337,35.7797c-22.31549,-0.31746 -40.16505,-16.85129 -39.86813,-36.92933c0.29692,-20.07805 18.6279,-36.09717 40.94337,-35.77971c22.31549,0.31746 40.16505,16.85129 39.86813,36.92934z" fill="url(#color-11)" stroke="none" stroke-width="0" stroke-linecap="butt"/><path d="M406.28685,280.00913c-0.29692,20.07805 -18.6279,36.09717 -40.94337,35.77971c-22.31549,-0.31746 -40.16504,-16.85129 -39.86813,-36.92933c0.29692,-20.07805 18.6279,-36.09717 40.94337,-35.77971c22.31549,0.31746 40.16504,16.85128 39.86813,36.92933z" fill="url(#color-12)" stroke="none" stroke-width="0" stroke-linecap="butt"/><path d="M401.72297,286.37398c-0.25998,17.57988 -16.31014,31.60582 -35.84903,31.32785c-19.5389,-0.27797 -35.16755,-14.75457 -34.90758,-32.33445c0.25998,-17.57988 16.31011,-31.60582 35.84902,-31.32785c19.5389,0.27797 35.16756,14.75457 34.90758,32.33445z" fill="url(#color-13)" stroke="none" stroke-width="0" stroke-linecap="butt"/><path d="M333.96902,283.82225c-0.25998,17.57988 -16.31014,31.60582 -35.84904,31.32786c-19.5389,-0.27797 -35.16755,-14.75457 -34.90757,-32.33445c0.25998,-17.57988 16.31012,-31.60583 35.84903,-31.32785c19.5389,0.27797 35.16756,14.75457 34.90758,32.33445z" fill="url(#color-14)" stroke="none" stroke-width="0" stroke-linecap="butt"/><path d="M365.5341,290.30518c-0.25998,17.57988 -16.31011,31.60583 -35.84902,31.32786c-19.5389,-0.27797 -35.16756,-14.75459 -34.90758,-32.33446c0.25998,-17.57988 16.31014,-31.60581 35.84904,-31.32784c19.5389,0.27797 35.16755,14.75456 34.90757,32.33444z" fill="url(#color-15)" stroke="none" stroke-width="0" stroke-linecap="butt"/><path d="M336.70966,274.81039c-0.25349,17.14147 -15.90342,30.81765 -34.95507,30.54662c-19.05167,-0.27103 -34.29059,-14.38664 -34.0371,-31.52811c0.25349,-17.14147 15.90343,-30.81767 34.95508,-30.54664c19.05167,0.27103 34.29058,14.38665 34.03709,31.52813z" fill="url(#color-16)" stroke="none" stroke-width="0" stroke-linecap="butt"/><path d="M355.01849,270.94239c-0.25349,17.14147 -15.90342,30.81765 -34.95507,30.54662c-19.05167,-0.27103 -34.29059,-14.38664 -34.0371,-31.52811c0.25349,-17.14147 15.90343,-30.81767 34.95508,-30.54664c19.05167,0.27103 34.29058,14.38665 34.03709,31.52814z" fill="url(#color-17)" stroke="none" stroke-width="0" stroke-linecap="butt"/><path d="M379.5971,271.29204c-0.25349,17.14147 -15.90342,30.81766 -34.95507,30.54663c-19.05167,-0.27103 -34.29062,-14.38665 -34.03713,-31.52812c0.25349,-17.14147 15.90343,-30.81766 34.95511,-30.54663c19.05167,0.27103 34.29058,14.38665 34.03709,31.52812z" fill="url(#color-18)" stroke="none" stroke-width="0" stroke-linecap="butt"/><path d="M397.84957,271.23413c-0.25349,17.14147 -15.90342,30.81766 -34.9551,30.54663c-19.05168,-0.27103 -34.29059,-14.38665 -34.0371,-31.52812c0.25349,-17.14147 15.90341,-30.81767 34.95508,-30.54664c19.05168,0.27103 34.29061,14.38666 34.03712,31.52813z" fill="url(#color-19)" stroke="none" stroke-width="0" stroke-linecap="butt"/></g></g><path d="M399.23205,291.42102c-0.39362,-0.17924 -0.76953,-0.49002 -1.0631,-1.00412c-1.10368,-1.93273 1.16321,-2.87371 1.16321,-2.87371c5.73525,-2.37957 10.6708,-4.34112 17.20975,-4.38059c1.46337,-0.00883 3.39704,-0.80213 4.38807,0.11589c1.30696,1.21069 0.86025,3.22209 0.9878,4.86394c0.16937,2.1801 -0.49634,4.35426 -0.53209,6.53893c-0.02887,1.76328 0.22004,3.60724 -0.44651,5.27659c-0.51626,1.29296 -0.40494,3.32769 -1.92701,3.7537c-1.80979,0.50654 -3.71207,-0.88508 -5.34756,-1.71761c-4.26792,-2.17257 -7.43365,-6.15359 -11.69346,-8.47548l-1.35267,-0.57996c0,0 -1.17053,-0.51223 -1.38643,-1.51756z" fill="#ffffff" stroke="none" stroke-width="0.5" stroke-linecap="butt"/><path d="M398.5275,297.09135c0.26436,0.11734 0.51699,0.26262 0.74717,0.46144c0.8478,0.73223 1.33048,1.88013 2.00698,2.81066c1.10002,1.51307 3.41517,2.43197 3.58703,4.26909c0.45141,4.82563 -1.88707,3.93886 -4.14279,5.06727c-3.29931,1.65049 -6.23099,3.70662 -7.65069,-2.90427c-0.2101,-0.97831 0.45322,-1.82059 0.63671,-2.74823c0.32272,-1.63175 0.59062,-3.22286 0.95059,-4.80801c-0.17825,-0.38592 -0.26387,-0.87381 -0.14301,-1.4796c0.28427,-1.42468 1.30617,-1.47406 1.87219,-1.38396l0.15893,-0.13814c0,0 1.23354,-0.23618 1.97693,0.85377z" fill="#ffffff" stroke="none" stroke-width="0.5" stroke-linecap="butt"/><path d="M0.27581,359.84478v-358.94073h639.37946v358.94073z" fill="none" stroke="#ffffff" stroke-width="3.5" stroke-linecap="butt"/></g></g></svg>