<svg version="1.1" xmlns="http://www.w3.org/2000/svg" xmlns:xlink="http://www.w3.org/1999/xlink" width="88" height="169.30328" viewBox="0,0,88,169.30328"><g transform="translate(-276.02776,-53.7606)"><g stroke-miterlimit="10"><path d="M354.31229,161.26585c0,0.26707 4.01286,41.39495 4.00544,46.22436c-0.02211,14.3897 -5.39091,4.40591 -6.64964,6.56447c-8.26543,14.17416 -38.55628,3.93037 -52.43912,3.93037c-12.9328,0 -16.61799,0.67938 -15.66527,-15.93576c0.278,-4.84833 4.91527,-39.52966 4.91527,-40.9501c0,-2.97641 12.36761,-9.68608 17.3354,-11.71467c1.57293,-0.64231 5.24793,-22.33785 5.24793,-22.33785c0,0 13.95999,-3.50506 19.10186,1.9276c0.63563,0.67158 4.56625,20.22505 5.12545,20.62095c2.24863,1.59195 19.0227,9.74196 19.0227,11.67064z" fill="#ffffff" stroke="#000000" stroke-width="3" stroke-linecap="butt"/><path d="M277.52776,100.8329c0,-25.16888 19.0279,-45.57229 42.5,-45.57229c23.47211,0 42.5,20.40341 42.5,45.57229c0,25.16888 -19.02789,43.01205 -42.5,43.01205c-23.4721,0 -42.5,-17.84316 -42.5,-43.01204z" fill="#ffffff" stroke="#000000" stroke-width="3" stroke-linecap="butt"/><path d="M316.69398,99.79226c0.53247,10.15797 -7.07396,18.814 -16.98942,19.33375c-9.91546,0.51976 -18.38519,-7.29357 -18.91766,-17.45154c-0.28166,-5.37329 1.71404,-10.32632 5.12421,-13.87712c8.63603,0.19183 17.21107,0.23856 25.77005,0.18368c2.89891,3.08331 4.77144,7.20635 5.01282,11.81122z" fill="#ffffff" stroke="#000000" stroke-width="3.5" stroke-linecap="butt"/><path d="M301.41617,102.52127c0,-3.04572 2.46904,-5.51477 5.51476,-5.51477c3.04572,0 5.51476,2.46905 5.51476,5.51477c0,3.04572 -2.46904,5.51477 -5.51476,5.51477c-3.04572,0 -5.51476,-2.46904 -5.51476,-5.51477z" fill="#000000" stroke="none" stroke-width="0.5" stroke-linecap="butt"/><path d="M328.95903,88.84328c8.55897,0.05488 17.13402,0.00816 25.77005,-0.18368c3.41017,3.55079 5.40586,8.50383 5.1242,13.87712c-0.53247,10.15798 -9.00219,17.9713 -18.91765,17.45154c-9.91546,-0.51976 -17.52189,-9.17579 -16.98942,-19.33375c0.24138,-4.60487 2.1139,-8.72791 5.01282,-11.81123z" fill="#ffffff" stroke="#000000" stroke-width="3.5" stroke-linecap="butt"/><path d="M333.81023,108.29578c-2.88004,0 -5.21476,-2.33472 -5.21476,-5.21477c0,-2.88004 2.33472,-5.21477 5.21476,-5.21477c2.88004,0 5.21476,2.33474 5.21476,5.21477c0,2.88004 -2.33472,5.21477 -5.21476,5.21477z" fill="#000000" stroke="none" stroke-width="0.5" stroke-linecap="butt"/><path d="M305.07563,132.00424l15.17177,-3.21825l13.79252,3.44813" fill="none" stroke="#000000" stroke-width="3.5" stroke-linecap="round"/></g></g></svg>