<svg version="1.1" xmlns="http://www.w3.org/2000/svg" xmlns:xlink="http://www.w3.org/1999/xlink" width="140.3907" height="211.15243" viewBox="0,0,140.3907,211.15243"><g transform="translate(-260.76388,-11.91145)"><g stroke-miterlimit="10"><path d="M359.5926,169.42349c4.26121,2.27926 5.81512,7.68005 3.47074,12.06302c-2.34438,4.38297 -7.69927,6.08836 -11.96049,3.8091c-4.26121,-2.27926 -5.81512,-7.68005 -3.47074,-12.06302c2.34438,-4.38297 7.69927,-6.08836 11.96049,-3.8091z" fill="#ffc14d" stroke="none" stroke-width="NaN" stroke-linecap="butt"/><path d="M384.63109,105.50305c2.34438,-4.38297 7.69927,-6.08836 11.96049,-3.80911c4.26121,2.27926 5.81513,7.68005 3.47075,12.06302c-2.34438,4.38297 -7.69927,6.08836 -11.96049,3.80911c-4.26121,-2.27926 -5.81513,-7.68005 -3.47075,-12.06302z" fill="#ffc14d" stroke="none" stroke-width="NaN" stroke-linecap="butt"/><path d="M320.72898,158.89926c2.34438,4.38297 0.79047,9.78376 -3.47075,12.06302c-4.26122,2.27925 -9.61611,0.57386 -11.96049,-3.80911c-2.34438,-4.38297 -0.79047,-9.78376 3.47075,-12.06302c4.26122,-2.27925 9.61611,-0.57386 11.96049,3.80911z" fill="#ffc14d" stroke="none" stroke-width="NaN" stroke-linecap="butt"/><path d="M277.59261,114.89941c-4.26122,2.27925 -9.61611,0.57386 -11.96049,-3.80911c-2.34438,-4.38297 -0.79047,-9.78376 3.47075,-12.06302c4.26122,-2.27925 9.61611,-0.57386 11.96049,3.80911c2.34438,4.38297 0.79047,9.78376 -3.47075,12.06302z" fill="#ffc14d" stroke="none" stroke-width="NaN" stroke-linecap="butt"/><path d="M354.31229,161.26585c0,0.26707 4.01286,41.39495 4.00544,46.22436c-0.02211,14.3897 -5.39091,4.40591 -6.64964,6.56447c-8.26543,14.17416 -38.55628,3.93037 -52.43912,3.93037c-12.9328,0 -16.61799,0.67938 -15.66527,-15.93576c0.278,-4.84833 4.91527,-39.52966 4.91527,-40.9501c0,-2.97641 12.36761,-9.68608 17.3354,-11.71467c1.57293,-0.64231 5.24793,-22.33785 5.24793,-22.33785c0,0 13.95999,-3.50506 19.10186,1.9276c0.63563,0.67158 4.56625,20.22505 5.12545,20.62095c2.24863,1.59195 19.0227,9.74196 19.0227,11.67064z" fill="#ffffff" stroke="#000000" stroke-width="3" stroke-linecap="butt"/><path d="M277.52776,101.23291c0,-25.16888 19.0279,-45.57229 42.5,-45.57229c23.47211,0 42.5,20.40341 42.5,45.57229c0,25.16888 -19.02789,43.01205 -42.5,43.01205c-23.4721,0 -42.5,-17.84316 -42.5,-43.01204z" fill="#ffffff" stroke="#000000" stroke-width="3" stroke-linecap="butt"/><path d="M317.17832,97.0634c0,10.06146 -8.04911,18.2179 -17.97819,18.2179c-9.92908,0 -17.97818,-8.15643 -17.97818,-18.2179c0,-10.06146 8.0491,-18.21789 17.97818,-18.21789c9.92908,0 17.97819,8.15643 17.97819,18.21789z" fill="#ffffff" stroke="#000000" stroke-width="3.5" stroke-linecap="butt"/><path d="M304.58284,92.38793c0,-2.38298 1.93178,-4.31477 4.31476,-4.31477c2.38298,0 4.31476,1.93179 4.31476,4.31477c0,2.38298 -1.93178,4.31477 -4.31476,4.31477c-2.38298,0 -4.31476,-1.93178 -4.31476,-4.31477z" fill="#000000" stroke="none" stroke-width="0.5" stroke-linecap="butt"/><path d="M342.8272,78.84551c9.92908,0 17.97819,8.15643 17.97819,18.21789c0,10.06146 -8.04911,18.2179 -17.97819,18.2179c-9.92908,0 -17.97819,-8.15643 -17.97819,-18.2179c0,-10.06146 8.04911,-18.21789 17.97819,-18.21789z" fill="#ffffff" stroke="#000000" stroke-width="3.5" stroke-linecap="butt"/><path d="M332.7964,97.36936c-2.38298,0 -4.31476,-1.93178 -4.31476,-4.31477c0,-2.38298 1.93178,-4.31477 4.31476,-4.31477c2.38298,0 4.31476,1.93179 4.31476,4.31477c0,2.38298 -1.93178,4.31477 -4.31476,4.31477z" fill="#000000" stroke="none" stroke-width="0.5" stroke-linecap="butt"/><path d="M310.19907,135.24209l10.21895,-7.66666l9.44772,6.59334" fill="none" stroke="#000000" stroke-width="3.5" stroke-linecap="round"/><path d="M278.26388,58.24478c0,4.97056 -3.91751,9 -8.75,9c-4.83249,0 -8.75,-4.02944 -8.75,-9c0,-4.97056 3.91751,-9 8.75,-9c4.83249,0 8.75,4.02944 8.75,9z" fill="#ffc14d" stroke="none" stroke-width="NaN" stroke-linecap="butt"/><path d="M379.43056,151.57812c0,4.97056 -3.91751,9 -8.75,9c-4.83249,0 -8.75,-4.02944 -8.75,-9c0,-4.97056 3.91751,-9 8.75,-9c4.83249,0 8.75,4.02944 8.75,9z" fill="#ffc14d" stroke="none" stroke-width="NaN" stroke-linecap="butt"/><path d="M271.34722,186.07812c-4.83249,0 -8.75,-4.02944 -8.75,-9c0,-4.97056 3.91751,-9 8.75,-9c4.83249,0 8.75,4.02944 8.75,9c0,4.97056 -3.91751,9 -8.75,9z" fill="#ffc14d" stroke="none" stroke-width="NaN" stroke-linecap="butt"/><path d="M372.34722,70.74478c-4.83249,0 -8.75,-4.02944 -8.75,-9c0,-4.97056 3.91751,-9 8.75,-9c4.83249,0 8.75,4.02944 8.75,9c0,4.97056 -3.91751,9 -8.75,9z" fill="#ffc14d" stroke="none" stroke-width="NaN" stroke-linecap="butt"/><path d="M303.26388,20.91145c0,4.97056 -3.91751,9 -8.75,9c-4.83249,0 -8.75,-4.02944 -8.75,-9c0,-4.97056 3.91751,-9 8.75,-9c4.83249,0 8.75,4.02944 8.75,9z" fill="#ffc14d" stroke="none" stroke-width="NaN" stroke-linecap="butt"/></g></g></svg>