<svg version="1.1" xmlns="http://www.w3.org/2000/svg" xmlns:xlink="http://www.w3.org/1999/xlink" width="100" height="100" viewBox="0,0,100,100"><g transform="translate(-270,-130)"><g stroke-miterlimit="10"><path d="M282.5,230c-6.90356,0 -12.5,-5.59644 -12.5,-12.5v-75c0,-6.90356 5.59644,-12.5 12.5,-12.5h75c6.90356,0 12.5,5.59644 12.5,12.5v75c0,6.90356 -5.59644,12.5 -12.5,12.5z" fill="#28263a" stroke="none" stroke-width="0" stroke-linecap="butt"/><path d="M325.05338,168.4771c0.99539,1.16249 1.59662,2.67248 1.59662,4.3229c0,3.6727 -2.97731,6.65 -6.65,6.65c-3.6727,0 -6.65,-2.97731 -6.65,-6.65c0,-1.77786 0.69767,-3.39278 1.83417,-4.58589" fill="none" stroke="#ffffff" stroke-width="2" stroke-linecap="round"/><path d="M319.85,172.55v-6.5" fill="none" stroke="#ffffff" stroke-width="2" stroke-linecap="round"/><text transform="translate(299.36432,199.49245) scale(0.21831,0.21831)" font-size="40" xml:space="preserve" fill="#ffffff" stroke="none" stroke-width="1" stroke-linecap="butt" font-family="Sans Serif" font-weight="normal" text-anchor="start"><tspan x="0" dy="0">Power off</tspan></text></g></g></svg>