<svg version="1.1" xmlns="http://www.w3.org/2000/svg" xmlns:xlink="http://www.w3.org/1999/xlink" width="269.15644" height="170.25764" viewBox="0,0,269.15644,170.25764"><g transform="translate(-154.40798,-100.7517)"><g stroke-miterlimit="10"><path d="M239.08995,203.9102c0.02898,0.26549 8.48148,40.71498 8.99821,45.51667c1.53964,14.30711 -4.88093,4.96493 -5.89797,7.24734c-6.67839,14.98744 -37.90203,8.09142 -51.70287,9.59803c-12.85642,1.40351 -16.44611,2.47881 -17.30215,-14.14159c-0.2498,-4.84986 0.59635,-39.82962 0.44219,-41.24167c-0.32301,-2.95883 11.2434,-10.97105 15.9617,-13.52678c1.49393,-0.80922 2.79276,-22.77544 2.79276,-22.77544c0,0 13.49716,-4.99934 19.19823,-0.15678c0.70476,0.59863 6.73417,19.61005 7.33303,19.94293c2.40811,1.33852 19.96758,7.62001 20.17689,9.5373z" fill="#ffffff" stroke="#000000" stroke-width="3" stroke-linecap="butt"/><path d="M156.20053,152.16708c-2.73141,-25.02023 13.96986,-47.36811 37.30333,-49.91538c23.33348,-2.54727 44.46324,15.67066 47.19465,40.69089c2.73141,25.02023 -14.24769,44.82299 -37.58118,47.37026c-23.33347,2.54727 -44.18539,-13.12553 -46.9168,-38.14576z" fill="#ffffff" stroke="#000000" stroke-width="3" stroke-linecap="butt"/><path d="M195.29609,147.99682c1.0919,10.00204 -6.0245,18.98382 -15.89494,20.06136c-9.87044,1.07754 -18.75716,-6.1572 -19.84907,-16.15925c-1.0919,-10.00204 6.02449,-18.98381 15.89493,-20.06135c9.87044,-1.07754 18.75717,6.1572 19.84908,16.15924z" fill="#ffffff" stroke="#000000" stroke-width="3.5" stroke-linecap="butt"/><path d="M182.13108,150.91968c-0.33053,-3.02773 1.85598,-5.75015 4.88371,-6.08068c3.02773,-0.33053 5.75014,1.85599 6.08067,4.88372c0.33053,3.02773 -1.85598,5.75015 -4.88371,6.08068c-3.02773,0.33053 -5.75014,-1.85598 -6.08067,-4.88372z" fill="#000000" stroke="none" stroke-width="0.5" stroke-linecap="butt"/><path d="M218.79471,126.90421c9.87044,-1.07754 18.75717,6.1572 19.84908,16.15924c1.0919,10.00204 -6.0245,18.98382 -15.89494,20.06136c-9.87044,1.07754 -18.75717,-6.1572 -19.84908,-16.15925c-1.0919,-10.00204 6.0245,-18.98381 15.89494,-20.06135z" fill="#ffffff" stroke="#000000" stroke-width="3.5" stroke-linecap="butt"/><path d="M216.15799,151.92109c-2.86303,0.31255 -5.43733,-1.75501 -5.74989,-4.61805c-0.31255,-2.86303 1.75501,-5.43734 4.61804,-5.74989c2.86303,-0.31255 5.43734,1.75503 5.74989,4.61805c0.31255,2.86303 -1.75501,5.43734 -4.61804,5.74989z" fill="#000000" stroke="none" stroke-width="0.5" stroke-linecap="butt"/><path d="M220.1282,174.39061c0,0 7.44382,4.52085 -17.03891,8.58028c-23.99603,3.97874 -19.1416,-2.75679 -19.1416,-2.75679" fill="none" stroke="#000000" stroke-width="3.5" stroke-linecap="round"/><path d="M408.86911,210.94171c-0.02142,0.26621 0.68025,41.58344 0.28555,46.3967c-1.17603,14.34158 -5.72688,3.95939 -7.15466,6.01006c-9.37551,13.46566 -38.74729,0.82567 -52.58542,-0.28767c-12.89115,-1.03715 -16.61895,-0.6555 -14.33684,-17.14072c0.66592,-4.81042 8.06954,-39.00816 8.18345,-40.42402c0.23869,-2.96682 13.10456,-8.66306 18.21903,-10.28672c1.61937,-0.5141 7.02242,-21.84504 7.02242,-21.84504c0,0 14.19612,-2.37424 18.88575,3.45327c0.57973,0.72039 2.92958,20.5261 3.45523,20.96557c2.11372,1.76715 18.18017,11.23612 18.0255,13.15859z" fill="#ffffff" stroke="#000000" stroke-width="3" stroke-linecap="butt"/><path d="M337.17834,144.54562c2.01843,-25.08781 22.62131,-43.89956 46.01781,-42.0172c23.39651,1.88236 40.72685,23.746 38.70842,48.83382c-2.01843,25.08781 -22.41598,41.34756 -45.81249,39.46521c-23.3965,-1.88236 -40.93217,-21.194 -38.91374,-46.28181z" fill="#ffffff" stroke="#000000" stroke-width="3" stroke-linecap="butt"/><path d="M376.36114,147.79554c-0.80688,10.02905 -9.48418,17.51372 -19.38128,16.71745c-9.8971,-0.79627 -17.26617,-9.57193 -16.45928,-19.60099c0.80688,-10.02905 9.48417,-17.51371 19.38127,-16.71744c9.8971,0.79627 17.26618,9.57193 16.45929,19.60098z" fill="#ffffff" stroke="#000000" stroke-width="3.5" stroke-linecap="butt"/><path d="M355.25232,146.70978c0.60301,-7.49501 4.08846,-13.32985 7.78498,-13.03245c3.69652,0.2974 6.2043,6.61442 5.60129,14.10943c-0.60301,7.49501 -4.08846,13.32984 -7.78498,13.03244c-3.69652,-0.2974 -6.2043,-6.61439 -5.60129,-14.10942z" fill="#000000" stroke="none" stroke-width="0.5" stroke-linecap="butt"/><path d="M403.40445,131.49389c9.8971,0.79627 17.26618,9.57193 16.45929,19.60098c-0.80688,10.02905 -9.48418,17.51372 -19.38128,16.71745c-9.8971,-0.79627 -17.26618,-9.57193 -16.45929,-19.60099c0.80688,-10.02905 9.48418,-17.51371 19.38128,-16.71744z" fill="#ffffff" stroke="#000000" stroke-width="3.5" stroke-linecap="butt"/><path d="M385.7698,148.9644c0.60301,-7.49501 4.08846,-13.32984 7.78498,-13.03244c3.69652,0.2974 6.2043,6.61441 5.60129,14.10942c-0.60301,7.49501 -4.08846,13.32984 -7.78498,13.03244c-3.69652,-0.2974 -6.2043,-6.61439 -5.60129,-14.10942z" fill="#000000" stroke="none" stroke-width="0.5" stroke-linecap="butt"/><path d="M395.30635,177.13561c0,0 -14.17306,1.25364 -20.29953,0.65783c-5.80108,-0.56416 -15.53641,-4.14293 -15.53641,-4.14293" fill="none" stroke="#000000" stroke-width="4.5" stroke-linecap="round"/></g></g></svg>