<svg version="1.1" xmlns="http://www.w3.org/2000/svg" xmlns:xlink="http://www.w3.org/1999/xlink" width="71.33333" height="69.78288" viewBox="0,0,71.33333,69.78288"><g transform="translate(-246.56481,-43.86796)"><g stroke-miterlimit="10"><path d="" fill="#ffffff" stroke="#000000" stroke-width="3" stroke-linecap="butt"/><path d="" fill="#ffffff" stroke="#000000" stroke-width="3" stroke-linecap="butt"/><path d="" fill="#ffffff" stroke="#000000" stroke-width="3" stroke-linecap="butt"/><path d="" fill="#ffffff" stroke="#000000" stroke-width="3" stroke-linecap="butt"/><path d="" fill="#ffffff" stroke="#000000" stroke-width="3" stroke-linecap="butt"/><path d="" fill="#ffffff" stroke="#000000" stroke-width="3" stroke-linecap="round"/><path d="" fill="#ffffff" stroke="#000000" stroke-width="3" stroke-linecap="round"/><path d="" fill="#000000" stroke="#000000" stroke-width="3" stroke-linecap="round"/><path d="M311.4788,48.53786c0.09728,-0.1358 -0.06419,0.45928 -0.29134,1.23605c-0.23814,0.02751 -0.4752,0.05496 -0.71125,0.08237c0.34954,-0.43509 0.68501,-0.87508 1.00259,-1.31843z" fill="#000000" stroke="#000000" stroke-width="3" stroke-linecap="round"/><path d="" fill="#000000" stroke="#000000" stroke-width="3" stroke-linecap="butt"/><path d="" fill="#ffffff" stroke="#000000" stroke-width="1.5" stroke-linecap="butt"/><path d="" fill="#ffffff" stroke="#000000" stroke-width="1.5" stroke-linecap="butt"/><path d="" fill="#ffffff" stroke="#000000" stroke-width="1.5" stroke-linecap="butt"/><path d="M311.23148,52.81751c0,-0.86787 0.44222,-1.63244 1.11362,-2.08069c0.01896,-0.06061 0.04017,-0.12023 0.06353,-0.17876c-0.21536,0.06046 -0.44248,0.09279 -0.67715,0.09279c-1.38071,0 -2.5,-1.11929 -2.5,-2.5c0,-1.38071 1.11929,-2.5 2.5,-2.5c1.38071,0 2.5,1.11929 2.5,2.5c0,0.04133 -0.001,0.08242 -0.00299,0.12326c0.349,-0.18509 0.74708,-0.28993 1.16965,-0.28993c1.38071,0 2.5,1.11929 2.5,2.5c0,0.73062 -0.31341,1.38803 -0.81313,1.84514c-0.18259,0.5084 -0.52523,0.9405 -0.96716,1.23555c-0.31775,1.01564 -1.266,1.75264 -2.38638,1.75264c-1.38071,0 -2.5,-1.11929 -2.5,-2.5z" fill="#ffffff" stroke="none" stroke-width="0.5" stroke-linecap="butt"/><path d="M302.23148,55.81751c0,-1.38071 1.11929,-2.5 2.5,-2.5c1.38071,0 2.5,1.11929 2.5,2.5c0,1.38071 -1.11929,2.5 -2.5,2.5c-1.38071,0 -2.5,-1.11929 -2.5,-2.5z" fill="#ffffff" stroke="none" stroke-width="0.5" stroke-linecap="butt"/><path d="M246.56481,111.15084c0,-1.38071 1.11929,-2.5 2.5,-2.5c1.38071,0 2.5,1.11929 2.5,2.5c0,1.38071 -1.11929,2.5 -2.5,2.5c-1.38071,0 -2.5,-1.11929 -2.5,-2.5z" fill="#ffffff" stroke="none" stroke-width="0.5" stroke-linecap="butt"/></g></g></svg>