<svg version="1.1" xmlns="http://www.w3.org/2000/svg" xmlns:xlink="http://www.w3.org/1999/xlink" width="62.15378" height="82.98085" viewBox="0,0,62.15378,82.98085"><g transform="translate(-230.53659,-122.63404)"><g stroke-miterlimit="10"><g stroke-linecap="butt"><path d="M232.29084,204.36489l-0.43301,-7.79703l52.25,-0.07797v7.875z" fill="#151212" stroke="#000000" stroke-width="2.5"/><path d="M281.35783,187.73989l2.875,8.25c0,0 -45.72319,0.43345 -51.33666,0.42507c-1.13101,-0.00169 -0.91334,-0.50304 -0.91334,-0.50304l20.68301,-8.29703z" fill="#151212" stroke="#000000" stroke-width="2.5"/><path d="M270.98996,191.02988c0.71932,0.00738 1.45227,0.03905 1.92409,0.10969c1.56846,0.23484 -6.04466,1.32806 -9.65741,1.6511c-0.3844,0.04665 -0.84443,0.07876 -1.32934,0.08834c-0.78601,0.01553 -1.44625,-0.03193 -1.79421,-0.11627c-2.56378,-0.09491 -8.98793,-1.05674 -8.19203,-1.41201c0.31006,-0.1384 2.46181,-0.26696 3.2021,-0.19789c0.43329,0.04043 2.4612,0.3042 4.33842,0.55665c0.43912,-0.4927 1.30485,-1.02166 1.58858,-1.22338c0.17035,-0.12111 0.50068,-0.61302 1.24747,-0.66749l1.7572,-0.1519c0.58739,0.05123 1.514,0.05921 1.87767,0.13906c0.04709,0.01034 0.08475,0.02188 0.111,0.03488c0.62866,0.31129 -1.70373,1.61515 -2.16784,2.01676c-0.03062,0.0265 -0.05758,0.0563 -0.08436,0.08848c3.04326,-0.435 6.79588,-0.91996 7.17868,-0.91604z" fill="#ffffff" stroke="none" stroke-width="0.5"/></g><g stroke="#000000" stroke-width="3"><path d="M291.19037,140.84928c-0.32122,6.24454 -1.03238,11.53408 -4.6549,11.34774c-3.62252,-0.18634 -8.03142,-8.2446 -7.7102,-14.48914c0.32122,-6.24454 5.25091,-8.31069 8.87343,-8.12435c3.62252,0.18634 3.81289,5.02119 3.49167,11.26574z" fill="#ffffff" stroke-linecap="butt"/><path d="M283.53506,150.33386c-0.03565,0.69298 0.91432,3.44164 0.75233,5.32238c-0.25492,2.95969 -1.29166,5.10049 -1.55067,5.84543c-0.26356,0.758 0.46046,1.383 0.11631,3.28785c-0.63632,3.522 -2.13549,4.66827 -2.47349,4.97004c-3.06149,2.73312 -10.71988,4.19874 -15.62732,3.9463c-10.31557,-0.53063 -17.57437,-0.87577 -16.92838,-13.43385c0.40422,-7.8582 -0.12013,-28.59492 5.61597,-33.79015c3.43068,-3.10719 13.47749,-2.30672 17.3381,-2.10813c2.4479,0.12592 11.23687,1.66986 12.87081,3.49498c3.21873,3.59535 0.51411,8.10013 0.87836,10.6906c0.14802,1.05269 0.97055,3.15409 0.77256,5.07076c-0.15036,1.45556 -1.65786,4.62947 -1.76456,6.7038z" fill="#ffffff" stroke-linecap="butt"/><path d="M283.33261,137.75184l-20.33249,-1.67223" fill="none" stroke-linecap="round"/><path d="M282.96553,149.75858l-22.84489,-1.55092" fill="none" stroke-linecap="round"/><path d="M280.96784,161.80672l-21.60757,-1.23675" fill="none" stroke-linecap="round"/></g></g></g></svg>