<svg version="1.1" xmlns="http://www.w3.org/2000/svg" xmlns:xlink="http://www.w3.org/1999/xlink" width="88" height="169.30329" viewBox="0,0,88,169.30329"><g transform="translate(-276.02776,-53.76059)"><g stroke-miterlimit="10"><path d="M354.31229,161.26585c0,0.26707 4.01286,41.39495 4.00544,46.22436c-0.02211,14.3897 -5.39091,4.40591 -6.64964,6.56447c-8.26543,14.17416 -38.55628,3.93037 -52.43912,3.93037c-12.9328,0 -16.61799,0.67938 -15.66527,-15.93576c0.278,-4.84833 4.91527,-39.52966 4.91527,-40.9501c0,-2.97641 12.36761,-9.68608 17.3354,-11.71467c1.57293,-0.64231 5.24793,-22.33785 5.24793,-22.33785c0,0 13.95999,-3.50506 19.10186,1.9276c0.63563,0.67158 4.56625,20.22505 5.12545,20.62095c2.24863,1.59195 19.0227,9.74196 19.0227,11.67064z" fill="#ffffff" stroke="#000000" stroke-width="3" stroke-linecap="butt"/><path d="M277.52776,100.83289c0,-25.16888 19.0279,-45.57229 42.5,-45.57229c23.47211,0 42.5,20.40341 42.5,45.57229c0,25.16888 -19.02789,43.01205 -42.5,43.01205c-23.4721,0 -42.5,-17.84316 -42.5,-43.01204z" fill="#ffffff" stroke="#000000" stroke-width="3" stroke-linecap="butt"/><path d="M316.84499,100.93005c0,10.06146 -8.04911,18.2179 -17.97819,18.2179c-9.92908,0 -17.97818,-8.15643 -17.97818,-18.2179c0,-10.06146 8.0491,-18.21789 17.97818,-18.21789c9.92908,0 17.97819,8.15643 17.97819,18.21789z" fill="#ffffff" stroke="#000000" stroke-width="3.5" stroke-linecap="butt"/><path d="M298.01617,101.02124c0,-7.51923 3.0063,-13.61479 6.71476,-13.61479c3.70846,0 6.71476,6.09556 6.71476,13.61479c0,7.51923 -3.0063,13.61478 -6.71476,13.61478c-3.70846,0 -6.71476,-6.09553 -6.71476,-13.61478z" fill="#000000" stroke="none" stroke-width="0.5" stroke-linecap="butt"/><path d="M342.49387,82.51216c9.92908,0 17.97819,8.15643 17.97819,18.21789c0,10.06146 -8.04911,18.2179 -17.97819,18.2179c-9.92908,0 -17.97819,-8.15643 -17.97819,-18.2179c0,-10.06146 8.04911,-18.21789 17.97819,-18.21789z" fill="#ffffff" stroke="#000000" stroke-width="3.5" stroke-linecap="butt"/><path d="M328.61617,100.82124c0,-7.51923 3.0063,-13.61478 6.71476,-13.61478c3.70846,0 6.71476,6.09555 6.71476,13.61478c0,7.51923 -3.0063,13.61478 -6.71476,13.61478c-3.70846,0 -6.71476,-6.09553 -6.71476,-13.61478z" fill="#000000" stroke="none" stroke-width="0.5" stroke-linecap="butt"/><path d="M302.08212,128.0563c0,0 9.99097,2.78652 15.81861,2.88364c6.15452,0.10258 20.18139,-2.28364 20.18139,-2.28364" fill="none" stroke="#000000" stroke-width="4.5" stroke-linecap="round"/></g></g></svg>