<svg version="1.1" xmlns="http://www.w3.org/2000/svg" xmlns:xlink="http://www.w3.org/1999/xlink" width="140.3907" height="213.50719" viewBox="0,0,140.3907,213.50719"><g transform="translate(-253.84006,-9.55669)"><g stroke-miterlimit="10"><path d="M352.66878,167.06873c4.26121,2.27926 5.81512,7.68005 3.47074,12.06302c-2.34438,4.38297 -7.69927,6.08836 -11.96049,3.8091c-4.26121,-2.27926 -5.81512,-7.68005 -3.47074,-12.06302c2.34438,-4.38297 7.69927,-6.08836 11.96049,-3.8091z" fill="#ffc14d" stroke="none" stroke-width="NaN"/><path d="M377.70727,103.14829c2.34438,-4.38297 7.69927,-6.08836 11.96049,-3.80911c4.26121,2.27926 5.81513,7.68005 3.47075,12.06302c-2.34438,4.38297 -7.69927,6.08836 -11.96049,3.80911c-4.26121,-2.27926 -5.81513,-7.68005 -3.47075,-12.06302z" fill="#ffc14d" stroke="none" stroke-width="NaN"/><path d="M332.55948,153.06872c4.26122,2.27926 5.81513,7.68005 3.47075,12.06302c-2.34438,4.38297 -7.69927,6.08836 -11.96049,3.80911c-4.26122,-2.27926 -5.81513,-7.68005 -3.47075,-12.06302c2.34438,-4.38297 7.69927,-6.08836 11.96049,-3.80911z" fill="#ffc14d" stroke="none" stroke-width="NaN"/><path d="M270.66879,112.54465c-4.26122,2.27925 -9.61611,0.57386 -11.96049,-3.80911c-2.34438,-4.38297 -0.79047,-9.78376 3.47075,-12.06302c4.26122,-2.27925 9.61611,-0.57386 11.96049,3.80911c2.34438,4.38297 0.79047,9.78376 -3.47075,12.06302z" fill="#ffc14d" stroke="none" stroke-width="NaN"/><path d="M354.31229,161.26585c0,0.26707 4.01286,41.39495 4.00544,46.22436c-0.02211,14.3897 -5.39091,4.40591 -6.64964,6.56447c-8.26543,14.17416 -38.55628,3.93037 -52.43912,3.93037c-12.9328,0 -16.61799,0.67938 -15.66527,-15.93576c0.278,-4.84833 4.91527,-39.52966 4.91527,-40.9501c0,-2.97641 12.36761,-9.68608 17.3354,-11.71467c1.57293,-0.64231 5.24793,-22.33785 5.24793,-22.33785c0,0 13.95999,-3.50506 19.10186,1.9276c0.63563,0.67158 4.56625,20.22505 5.12545,20.62095c2.24863,1.59195 19.0227,9.74196 19.0227,11.67064z" fill="#ffffff" stroke="#000000" stroke-width="3"/><path d="M277.52776,101.23291c0,-25.16888 19.0279,-45.57229 42.5,-45.57229c23.47211,0 42.5,20.40341 42.5,45.57229c0,25.16888 -19.02789,43.01205 -42.5,43.01205c-23.4721,0 -42.5,-17.84316 -42.5,-43.01204z" fill="#ffffff" stroke="#000000" stroke-width="3"/><path d="M317.03547,97.77768c0,10.06146 -8.04911,18.2179 -17.97819,18.2179c-9.92908,0 -17.97818,-8.15643 -17.97818,-18.2179c0,-10.06146 8.0491,-18.21789 17.97818,-18.21789c9.92908,0 17.97819,8.15643 17.97819,18.21789z" fill="#ffffff" stroke="#000000" stroke-width="3.5"/><path d="M304.58284,99.38792c0,-2.38298 1.93178,-4.31477 4.31476,-4.31477c2.38298,0 4.31476,1.93179 4.31476,4.31477c0,2.38298 -1.93178,4.31477 -4.31476,4.31477c-2.38298,0 -4.31476,-1.93178 -4.31476,-4.31477z" fill="#000000" stroke="none" stroke-width="0.5"/><path d="M342.39863,79.84551c9.92908,0 17.97819,8.15643 17.97819,18.21789c0,10.06146 -8.04911,18.2179 -17.97819,18.2179c-9.92908,0 -17.97819,-8.15643 -17.97819,-18.2179c0,-10.06146 8.04911,-18.21789 17.97819,-18.21789z" fill="#ffffff" stroke="#000000" stroke-width="3.5"/><path d="M331.82497,103.16936c-2.38298,0 -4.31476,-1.93178 -4.31476,-4.31477c0,-2.38298 1.93178,-4.31477 4.31476,-4.31477c2.38298,0 4.31476,1.93179 4.31476,4.31477c0,2.38298 -1.93178,4.31477 -4.31476,4.31477z" fill="#000000" stroke="none" stroke-width="0.5"/><path d="M271.34006,55.89002c0,4.97056 -3.91751,9 -8.75,9c-4.83249,0 -8.75,-4.02944 -8.75,-9c0,-4.97056 3.91751,-9 8.75,-9c4.83249,0 8.75,4.02944 8.75,9z" fill="#ffc14d" stroke="none" stroke-width="NaN"/><path d="M372.50674,149.22336c0,4.97056 -3.91751,9 -8.75,9c-4.83249,0 -8.75,-4.02944 -8.75,-9c0,-4.97056 3.91751,-9 8.75,-9c4.83249,0 8.75,4.02944 8.75,9z" fill="#ffc14d" stroke="none" stroke-width="NaN"/><path d="M264.4234,183.72336c-4.83249,0 -8.75,-4.02944 -8.75,-9c0,-4.97056 3.91751,-9 8.75,-9c4.83249,0 8.75,4.02944 8.75,9c0,4.97056 -3.91751,9 -8.75,9z" fill="#ffc14d" stroke="none" stroke-width="NaN"/><path d="M365.4234,68.39002c-4.83249,0 -8.75,-4.02944 -8.75,-9c0,-4.97056 3.91751,-9 8.75,-9c4.83249,0 8.75,4.02944 8.75,9c0,4.97056 -3.91751,9 -8.75,9z" fill="#ffc14d" stroke="none" stroke-width="NaN"/><path d="M296.34006,18.55669c0,4.97056 -3.91751,9 -8.75,9c-4.83249,0 -8.75,-4.02944 -8.75,-9c0,-4.97056 3.91751,-9 8.75,-9c4.83249,0 8.75,4.02944 8.75,9z" fill="#ffc14d" stroke="none" stroke-width="NaN"/><path d="M346.99338,128.38517c0,8.4147 -11.60781,15.23611 -25.92677,15.23611c-14.31894,0 -25.92677,-6.82141 -25.92677,-15.23611c0,-4.25741 51.85354,-4.04327 51.85354,0z" fill="#ffffff" stroke="#000000" stroke-width="3"/></g></g></svg>