<svg version="1.1" xmlns="http://www.w3.org/2000/svg" xmlns:xlink="http://www.w3.org/1999/xlink" width="165.25886" height="153.53441" viewBox="0,0,165.25886,153.53441"><g transform="translate(-233.63928,-44.7831)"><g stroke-miterlimit="10"><path d="M288.47898,161.0992c0,-2.97641 12.36761,-9.68608 17.3354,-11.71467c1.57293,-0.64231 5.24793,-22.33785 5.24793,-22.33785c0,0 13.95999,-3.50506 19.10186,1.9276c0.63563,0.67158 4.56625,20.22505 5.12545,20.62095c0.5352,0.37891 1.89328,1.12933 3.65221,2.07896c-6.03937,3.66842 -12.31486,7.02019 -18.24577,10.7067c-11.49673,7.14609 -22.14785,16.09126 -32.96458,24.10328c-0.62255,0.46113 -1.57842,1.12119 -2.61791,1.87945c1.44344,-11.65016 3.36541,-26.34996 3.36541,-27.26442z" fill="#ffffff" stroke="#000000" stroke-width="3" stroke-linecap="butt"/><path d="" fill="#ffffff" stroke="#000000" stroke-width="3" stroke-linecap="butt"/><path d="" fill="#ffffff" stroke="#000000" stroke-width="3" stroke-linecap="butt"/><path d="" fill="#ffffff" stroke="#000000" stroke-width="3" stroke-linecap="butt"/><path d="M277.52776,101.23292c0,-25.16888 19.0279,-45.57229 42.5,-45.57229c23.47211,0 42.5,20.40341 42.5,45.57229c0,7.68496 -1.77397,14.68694 -4.90676,20.70655c-1.25157,2.40487 -0.14542,7.57082 -1.80427,9.64302c-2.56084,3.19895 -8.15004,3.06088 -11.52103,5.3513c-6.88062,4.67504 -15.24599,7.31118 -24.26795,7.31118c-8.8277,0 -17.02678,-2.52385 -23.82144,-7.01204c-2.71745,-1.79501 -6.92666,-1.32962 -9.1452,-3.71723c-2.33817,-2.51636 -2.65531,-7.91656 -4.32609,-11.00951c-3.31962,-6.14526 -5.20727,-13.34588 -5.20727,-21.27325z" fill="#ffffff" stroke="#000000" stroke-width="3" stroke-linecap="butt"/><path d="M296.30711,130.33896c0,0 -1.37376,0.04931 -2.2706,0.80529c-1.03776,0.87477 -2.02614,2.25941 -3.24812,3.15923c-1.20439,0.88687 -2.64318,1.29904 -3.56486,0.79534c-4.05428,-2.21564 -5.10714,-10.07557 -5.50805,-13.93134c-0.13054,-1.25543 -0.42544,-2.31984 -0.42544,-2.31984" fill="#ffffff" stroke="#000000" stroke-width="3" stroke-linecap="round"/><path d="M357.56227,122.25931c0,0 -0.2949,1.06441 -0.42544,2.31984c-0.40091,3.85577 0.24381,11.19337 -3.81047,13.40901c-0.92168,0.5037 -3.53572,0.09153 -4.74011,-0.79534c-1.22198,-0.89982 -2.73269,-1.76213 -3.77045,-2.6369c-0.89684,-0.75598 -2.14001,-1.32763 -2.14001,-1.32763" fill="#ffffff" stroke="#000000" stroke-width="3" stroke-linecap="round"/><path d="M324.60946,62.52003c0,0 15.02762,1.63991 17.36885,8.8848" fill="none" stroke="#000000" stroke-width="3" stroke-linecap="round"/><path d="M291.64006,72.76123c13.29234,-13.74358 21.17503,-9.0291 21.17503,-9.0291" fill="none" stroke="#000000" stroke-width="3" stroke-linecap="round"/><path d="M309.29882,63.36483c0,0 -1.22126,7.68893 -7.98819,9.29605" fill="none" stroke="#000000" stroke-width="3" stroke-linecap="round"/><path d="M334.02423,70.90373c-5.98566,-1.64428 -6.68557,-7.90948 -6.68557,-7.90948" fill="none" stroke="#000000" stroke-width="3" stroke-linecap="round"/><path d="M337.61263,59.7148c0,0 -5.17452,0.32143 -8.48791,-2.21991c-3.31338,-2.54133 -3.91749,-4.96216 -3.91749,-4.96216c0.23826,0.32047 -1.34024,-3.80442 -1.08099,-3.49528c4.74566,5.65882 13.48639,10.67736 13.48639,10.67736z" fill="#000000" stroke="#000000" stroke-width="3" stroke-linecap="round"/><path d="M297.99241,61.03832c0,0 8.74073,-5.87543 13.48639,-12.50046c0.25925,-0.36192 -1.31925,4.46727 -1.08099,4.09209c0,0 -0.60411,2.83417 -3.91749,5.80942c-3.31339,2.97526 -8.48791,2.59895 -8.48791,2.59895z" fill="#000000" stroke="#000000" stroke-width="3" stroke-linecap="round"/><path d="M351.81463,117.33325c0,4.60372 2.5426,14.48641 -6.04889,10.81695c-2.25495,-0.96309 -6.9703,-5.43389 -10.62571,-10.0877c-5.10092,-6.49414 -11.00366,-11.9632 -15.2021,-11.9632c-3.82245,0 -11.4328,3.18834 -15.11853,7.34864c-5.20064,5.87027 -8.62597,12.11044 -12.2617,13.74392c-6.37307,2.86332 -6.78746,-1.94832 -6.78746,-5.74523c0,-3.91946 1.8328,-17.16706 7.2842,-28.5683c4.97744,-10.40999 13.03676,-19.17474 24.1574,-20.03232c25.51243,-2.22419 34.60278,36.98911 34.60278,44.48725z" fill="#000000" stroke="#000000" stroke-width="3" stroke-linecap="butt"/><path d="M374.2028,120.82526c3.79838,-7.72336 12.3593,-11.33566 19.36562,-8.29013c-6.94736,2.97135 -14.35779,7.66325 -20.75144,12.19019c0.29937,-1.31476 0.75855,-2.62462 1.38582,-3.90006z" fill="#ffffff" stroke="#000000" stroke-width="1.5" stroke-linecap="butt"/><path d="" fill="#ffffff" stroke="#000000" stroke-width="1.5" stroke-linecap="butt"/><path d="M242.00369,111.79325c7.1035,-3.49352 16.02339,0.10253 19.92313,8.03202c3.89974,7.92948 1.30259,17.18966 -5.8009,20.68318c-7.1035,3.49352 -16.02339,-0.10253 -19.92313,-8.03202c-3.89974,-7.92948 -1.30259,-17.18966 5.8009,-20.68318z" fill="#ffffff" stroke="#000000" stroke-width="1.5" stroke-linecap="butt"/><path d="M322.89814,163.15084c0,-1.12814 0.74724,-2.08175 1.77378,-2.39289c0.31114,-1.02654 1.26475,-1.77378 2.39289,-1.77378c0.056,0 0.11158,0.00184 0.16667,0.00547c0.05509,-0.00363 0.11066,-0.00547 0.16667,-0.00547c0.11077,0 0.21986,0.0072 0.32682,0.02117c0.22059,-0.29011 0.42342,-0.45606 0.42342,-0.45606l3.66667,-3c0,0 0.96414,-0.78885 2.0881,-0.57226c-0.00332,-0.05274 -0.00501,-0.10593 -0.00501,-0.15952c0,-1.38071 1.11929,-2.5 2.5,-2.5c1.38071,0 2.5,1.11929 2.5,2.5c0,1.38071 -1.11929,2.5 -2.5,2.5c-0.15407,0 -0.30489,-0.01394 -0.45127,-0.04062c0.11708,1.25632 -0.96564,2.14218 -0.96564,2.14218l-3.66667,3c0,0 -0.88037,0.72031 -1.93931,0.59533c-0.38641,0.49853 -0.9572,0.84697 -1.61009,0.94303c-0.33553,0.98494 -1.26854,1.69342 -2.36703,1.69342c-1.38071,0 -2.5,-1.11929 -2.5,-2.5z" fill="#ffffff" stroke="none" stroke-width="0.5" stroke-linecap="butt"/><path d="M313.56481,168.15084c0,-0.75998 0.33911,-1.44075 0.87426,-1.89926c0.39428,-0.44676 0.84104,-0.67014 0.84104,-0.67014l0.54435,-0.26787c0.77778,-0.44444 1.55556,-0.88889 2.33333,-1.33333c0,0 2.17061,-1.24035 3.41096,0.93026c1.24035,2.17061 -0.93026,3.41096 -0.93026,3.41096c-0.77778,0.44444 -1.55556,0.88889 -2.33333,1.33333l-0.42478,0.21471c-0.45566,0.48119 -1.10056,0.78135 -1.81556,0.78135c-1.38071,0 -2.5,-1.11929 -2.5,-2.5z" fill="#ffffff" stroke="none" stroke-width="0.5" stroke-linecap="butt"/><path d="M308.23148,170.81751c0,-1.38071 1.11929,-2.5 2.5,-2.5c1.38071,0 2.5,1.11929 2.5,2.5c0,1.38071 -1.11929,2.5 -2.5,2.5c-1.38071,0 -2.5,-1.11929 -2.5,-2.5z" fill="#ffffff" stroke="none" stroke-width="0.5" stroke-linecap="butt"/><path d="M299.89814,177.15084c0,-0.471 0.13025,-0.91158 0.3567,-1.28768c0.27898,-0.99128 1.21696,-1.53843 1.21696,-1.53843l4,-2.33333c0,0 2.15945,-1.25968 3.41912,0.89977c1.25968,2.15945 -0.89977,3.41912 -0.89977,3.41912l-3.35582,1.95756c-0.4102,0.81998 -1.25795,1.38299 -2.23719,1.38299c-1.38071,0 -2.5,-1.11929 -2.5,-2.5z" fill="#ffffff" stroke="none" stroke-width="0.5" stroke-linecap="butt"/><path d="M291.23148,184.15084c0,-1.38071 1.11929,-2.5 2.5,-2.5c1.38071,0 2.5,1.11929 2.5,2.5c0,1.38071 -1.11929,2.5 -2.5,2.5c-1.38071,0 -2.5,-1.11929 -2.5,-2.5z" fill="#ffffff" stroke="none" stroke-width="0.5" stroke-linecap="butt"/><path d="M296.56481,181.81751c0,-1.38071 1.11929,-2.5 2.5,-2.5c1.38071,0 2.5,1.11929 2.5,2.5c0,1.38071 -1.11929,2.5 -2.5,2.5c-1.38071,0 -2.5,-1.11929 -2.5,-2.5z" fill="#ffffff" stroke="none" stroke-width="0.5" stroke-linecap="butt"/><path d="M278.23148,189.81751c0,-1.38071 1.11929,-2.5 2.5,-2.5c1.38071,0 2.5,1.11929 2.5,2.5c0,1.38071 -1.11929,2.5 -2.5,2.5c-1.38071,0 -2.5,-1.11929 -2.5,-2.5z" fill="#ffffff" stroke="none" stroke-width="0.5" stroke-linecap="butt"/><path d="M286.56481,187.48418c0,-1.38071 1.11929,-2.5 2.5,-2.5c1.38071,0 2.5,1.11929 2.5,2.5c0,1.38071 -1.11929,2.5 -2.5,2.5c-1.38071,0 -2.5,-1.11929 -2.5,-2.5z" fill="#ffffff" stroke="none" stroke-width="0.5" stroke-linecap="butt"/><path d="M292.23148,193.15084c0,-1.38071 1.11929,-2.5 2.5,-2.5c1.38071,0 2.5,1.11929 2.5,2.5c0,1.38071 -1.11929,2.5 -2.5,2.5c-1.38071,0 -2.5,-1.11929 -2.5,-2.5z" fill="#ffffff" stroke="none" stroke-width="0.5" stroke-linecap="butt"/><path d="M298.89814,187.15084c0,-1.38071 1.11929,-2.5 2.5,-2.5c1.38071,0 2.5,1.11929 2.5,2.5c0,1.31095 -1.00905,2.38623 -2.29284,2.49154c0.1869,0.35031 0.29284,0.75035 0.29284,1.17513c0,1.38071 -1.11929,2.5 -2.5,2.5c-1.38071,0 -2.5,-1.11929 -2.5,-2.5c0,-1.31095 1.00905,-2.38623 2.29284,-2.49154c-0.1869,-0.35031 -0.29284,-0.75035 -0.29284,-1.17513z" fill="#ffffff" stroke="none" stroke-width="0.5" stroke-linecap="butt"/><path d="M304.89814,182.15084c0,-1.38071 1.11929,-2.5 2.5,-2.5c1.38071,0 2.5,1.11929 2.5,2.5c0,1.38071 -1.11929,2.5 -2.5,2.5c-1.38071,0 -2.5,-1.11929 -2.5,-2.5z" fill="#ffffff" stroke="none" stroke-width="0.5" stroke-linecap="butt"/><path d="M310.56481,177.48418c0,-1.38071 1.11929,-2.5 2.5,-2.5c1.38071,0 2.5,1.11929 2.5,2.5c0,1.38071 -1.11929,2.5 -2.5,2.5c-1.38071,0 -2.5,-1.11929 -2.5,-2.5z" fill="#ffffff" stroke="none" stroke-width="0.5" stroke-linecap="butt"/><path d="M319.89814,172.81751c0,-1.38071 1.11929,-2.5 2.5,-2.5c1.38071,0 2.5,1.11929 2.5,2.5c0,1.38071 -1.11929,2.5 -2.5,2.5c-1.38071,0 -2.5,-1.11929 -2.5,-2.5z" fill="#ffffff" stroke="none" stroke-width="0.5" stroke-linecap="butt"/><path d="M327.56481,168.48418c0,-1.38071 1.11929,-2.5 2.5,-2.5c1.38071,0 2.5,1.11929 2.5,2.5c0,1.38071 -1.11929,2.5 -2.5,2.5c-1.38071,0 -2.5,-1.11929 -2.5,-2.5z" fill="#ffffff" stroke="none" stroke-width="0.5" stroke-linecap="butt"/><path d="M333.56481,164.48418c0,-1.38071 1.11929,-2.5 2.5,-2.5c1.38071,0 2.5,1.11929 2.5,2.5c0,1.38071 -1.11929,2.5 -2.5,2.5c-1.38071,0 -2.5,-1.11929 -2.5,-2.5z" fill="#ffffff" stroke="none" stroke-width="0.5" stroke-linecap="butt"/><path d="M337.56481,173.81751c0,-1.1708 0.80483,-2.15363 1.89141,-2.4254c-0.34896,-0.42984 -0.55808,-0.9778 -0.55808,-1.5746c0,-1.38071 1.11929,-2.5 2.5,-2.5c1.38071,0 2.5,1.11929 2.5,2.5c0,1.1708 -0.80483,2.15363 -1.89141,2.4254c0.34896,0.42984 0.55808,0.9778 0.55808,1.5746c0,1.38071 -1.11929,2.5 -2.5,2.5c-1.38071,0 -2.5,-1.11929 -2.5,-2.5z" fill="#ffffff" stroke="none" stroke-width="0.5" stroke-linecap="butt"/><path d="M329.23148,181.15084c0,-1.38071 1.11929,-2.5 2.5,-2.5c1.38071,0 2.5,1.11929 2.5,2.5c0,1.38071 -1.11929,2.5 -2.5,2.5c-1.38071,0 -2.5,-1.11929 -2.5,-2.5z" fill="#ffffff" stroke="none" stroke-width="0.5" stroke-linecap="butt"/><path d="M320.56481,190.81751c0,-1.38071 1.11929,-2.5 2.5,-2.5c1.38071,0 2.5,1.11929 2.5,2.5c0,1.38071 -1.11929,2.5 -2.5,2.5c-1.38071,0 -2.5,-1.11929 -2.5,-2.5z" fill="#ffffff" stroke="none" stroke-width="0.5" stroke-linecap="butt"/><path d="M312.23148,195.81751c0,-1.38071 1.11929,-2.5 2.5,-2.5c1.38071,0 2.5,1.11929 2.5,2.5c0,1.38071 -1.11929,2.5 -2.5,2.5c-1.38071,0 -2.5,-1.11929 -2.5,-2.5z" fill="#ffffff" stroke="none" stroke-width="0.5" stroke-linecap="butt"/><path d="M339.89814,193.15084c0,-1.38071 1.11929,-2.5 2.5,-2.5c1.38071,0 2.5,1.11929 2.5,2.5c0,1.38071 -1.11929,2.5 -2.5,2.5c-1.38071,0 -2.5,-1.11929 -2.5,-2.5z" fill="#ffffff" stroke="none" stroke-width="0.5" stroke-linecap="butt"/><path d="M346.23148,167.48418c0,-1.38071 1.11929,-2.5 2.5,-2.5c1.38071,0 2.5,1.11929 2.5,2.5c0,1.38071 -1.11929,2.5 -2.5,2.5c-1.38071,0 -2.5,-1.11929 -2.5,-2.5z" fill="#ffffff" stroke="none" stroke-width="0.5" stroke-linecap="butt"/><path d="M354.23148,188.48418c0,-1.38071 1.11929,-2.5 2.5,-2.5c1.38071,0 2.5,1.11929 2.5,2.5c0,1.38071 -1.11929,2.5 -2.5,2.5c-1.38071,0 -2.5,-1.11929 -2.5,-2.5z" fill="#ffffff" stroke="none" stroke-width="0.5" stroke-linecap="butt"/><path d="M372.56481,124.81751c0,-1.38071 1.11929,-2.5 2.5,-2.5c1.38071,0 2.5,1.11929 2.5,2.5c0,1.38071 -1.11929,2.5 -2.5,2.5c-1.38071,0 -2.5,-1.11929 -2.5,-2.5z" fill="#ffffff" stroke="none" stroke-width="0.5" stroke-linecap="butt"/><path d="M382.89814,117.48418c0,-1.38071 1.11929,-2.5 2.5,-2.5c1.38071,0 2.5,1.11929 2.5,2.5c0,1.38071 -1.11929,2.5 -2.5,2.5c-0.07366,0 -0.14657,-0.00319 -0.21861,-0.00943c0.03405,0.16447 0.05194,0.33486 0.05194,0.50943c0,0.98632 -0.57118,1.83923 -1.4008,2.24602c-0.26133,1.10135 -1.25125,1.92065 -2.43253,1.92065c-1.38071,0 -2.5,-1.11929 -2.5,-2.5c0,-0.98632 0.57118,-1.83923 1.4008,-2.24602c0.26133,-1.10135 1.25125,-1.92065 2.43253,-1.92065c0.07366,0 0.14657,0.00319 0.21861,0.00943c-0.03405,-0.16447 -0.05194,-0.33486 -0.05194,-0.50943z" fill="#ffffff" stroke="none" stroke-width="0.5" stroke-linecap="butt"/><path d="M387.23148,114.15084c0,-1.38071 1.11929,-2.5 2.5,-2.5c1.38071,0 2.5,1.11929 2.5,2.5c0,1.38071 -1.11929,2.5 -2.5,2.5c-1.38071,0 -2.5,-1.11929 -2.5,-2.5z" fill="#ffffff" stroke="none" stroke-width="0.5" stroke-linecap="butt"/><path d="M390.63038,122.58528c-1.70114,-1.70114 -0.12823,-3.40228 -0.00725,-3.5281c0.27016,-0.63038 0.54032,-1.26076 0.81049,-1.89114c0,0 0.9848,-2.29786 3.28266,-1.31306c2.29786,0.9848 1.31306,3.28266 1.31306,3.28266c-0.33333,0.77778 -0.66667,1.55556 -1,2.33333l-0.86343,1.1163c0,0 -1.76777,1.76777 -3.53553,0z" fill="#ffffff" stroke="none" stroke-width="0.5" stroke-linecap="butt"/><path d="M385.89814,127.48418c0,-1.38071 1.11929,-2.5 2.5,-2.5c1.38071,0 2.5,1.11929 2.5,2.5c0,1.38071 -1.11929,2.5 -2.5,2.5c-1.38071,0 -2.5,-1.11929 -2.5,-2.5z" fill="#ffffff" stroke="none" stroke-width="0.5" stroke-linecap="butt"/><path d="M393.89814,133.15084c0,-1.38071 1.11929,-2.5 2.5,-2.5c1.38071,0 2.5,1.11929 2.5,2.5c0,1.38071 -1.11929,2.5 -2.5,2.5c-1.38071,0 -2.5,-1.11929 -2.5,-2.5z" fill="#ffffff" stroke="none" stroke-width="0.5" stroke-linecap="butt"/></g></g></svg>