<svg version="1.1" xmlns="http://www.w3.org/2000/svg" xmlns:xlink="http://www.w3.org/1999/xlink" width="461.4" height="98" viewBox="0,0,461.4,98"><g transform="translate(-128.5,-143.5)"><g stroke-miterlimit="10"><g><path d="M128.5,241.5v-77.86667c0,0 81.85341,-20.13333 229.57261,-20.13333c150.38934,0 231.82739,20.13333 231.82739,20.13333l-2.67014,74.86667c0,0 -109.60213,-11.54257 -225.18171,-11.93333c-125.4339,-0.42408 -233.54815,14.93334 -233.54815,14.93334z" fill-opacity="0.61176" fill="#29273b" stroke="none" stroke-width="0" stroke-linecap="butt"/><text transform="translate(153.67532,207.6979) scale(0.14181,0.14181)" font-size="40" xml:space="preserve" fill="#ffffff" stroke="none" stroke-width="1" stroke-linecap="butt" font-family="Sans Serif" font-weight="normal" text-anchor="start"><tspan x="0" dy="0">Safe</tspan></text><path d="M156.84707,194.64784c-0.53812,0 -0.97434,-0.43623 -0.97434,-0.97434v-4.28711c0,-0.53812 0.43623,-0.97434 0.97434,-0.97434h5.71615c0.53812,0 0.97434,0.43623 0.97434,0.97434v4.28711c0,0.53812 -0.43623,0.97434 -0.97434,0.97434z" fill="none" stroke="#ffffff" stroke-width="2" stroke-linecap="butt"/><path d="M157.56159,188.28213c0,0 -0.67249,-3.33576 2.14355,-3.44268c3.01097,-0.11432 2.33842,3.37772 2.33842,3.37772" fill="none" stroke="#ffffff" stroke-width="2" stroke-linecap="round"/><path d="M158.71679,191.51293c0,-0.53812 0.43623,-0.97434 0.97434,-0.97434c0.53812,0 0.97434,0.43623 0.97434,0.97434c0,0.53812 -0.43623,0.97434 -0.97434,0.97434c-0.53812,0 -0.97434,-0.43623 -0.97434,-0.97434z" fill="#ffffff" stroke="none" stroke-width="2" stroke-linecap="butt"/><path d="M224.84819,181.06272c0.64657,0.75511 1.0371,1.73594 1.0371,2.80799c0,2.38565 -1.93395,4.31959 -4.31959,4.31959c-2.38565,0 -4.31959,-1.93395 -4.31959,-4.31959c0,-1.15483 0.45318,-2.20382 1.19141,-2.97882" fill="none" stroke="#ffffff" stroke-width="2" stroke-linecap="round"/><path d="M221.46827,179.48617v4.22215" fill="none" stroke="#ffffff" stroke-width="2" stroke-linecap="round"/><text transform="translate(208.16155,201.20911) scale(0.14181,0.14181)" font-size="40" xml:space="preserve" fill="#ffffff" stroke="none" stroke-width="1" stroke-linecap="butt" font-family="Sans Serif" font-weight="normal" text-anchor="start"><tspan x="0" dy="0">Power off</tspan></text><text transform="translate(280.26293,200.72356) scale(0.14181,0.14181)" font-size="40" xml:space="preserve" fill="#ffffff" stroke="none" stroke-width="1" stroke-linecap="butt" font-family="Sans Serif" font-weight="normal" text-anchor="start"><tspan x="0" dy="0">Safe</tspan></text><path d="M283.43468,187.6735c-0.53812,0 -0.97434,-0.43623 -0.97434,-0.97434v-4.28711c0,-0.53812 0.43623,-0.97434 0.97434,-0.97434h5.71615c0.53812,0 0.97434,0.43623 0.97434,0.97434v4.28711c0,0.53812 -0.43623,0.97434 -0.97434,0.97434z" fill="none" stroke="#ffffff" stroke-width="2" stroke-linecap="butt"/><path d="M284.1492,181.30779c0,0 -0.67249,-3.33576 2.14355,-3.44268c3.01097,-0.11432 2.33842,3.37772 2.33842,3.37772" fill="none" stroke="#ffffff" stroke-width="2" stroke-linecap="round"/><path d="M285.3044,184.53859c0,-0.53812 0.43623,-0.97434 0.97434,-0.97434c0.53812,0 0.97434,0.43623 0.97434,0.97434c0,0.53812 -0.43623,0.97434 -0.97434,0.97434c-0.53812,0 -0.97434,-0.43623 -0.97434,-0.97434z" fill="#ffffff" stroke="none" stroke-width="2" stroke-linecap="butt"/><path d="M354.26058,179.03707c0.64657,0.75511 1.0371,1.73594 1.0371,2.80799c0,2.38565 -1.93394,4.31959 -4.31959,4.31959c-2.38565,0 -4.31959,-1.93395 -4.31959,-4.31959c0,-1.15483 0.45319,-2.20382 1.19141,-2.97882" fill="none" stroke="#ffffff" stroke-width="2" stroke-linecap="round"/><path d="M350.88067,181.68267v-4.22215" fill="none" stroke="#ffffff" stroke-width="2" stroke-linecap="round"/><text transform="translate(337.57395,199.18346) scale(0.1418,0.1418)" font-size="40" xml:space="preserve" fill="#ffffff" stroke="none" stroke-width="1" stroke-linecap="butt" font-family="Sans Serif" font-weight="normal" text-anchor="start"><tspan x="0" dy="0">Power off</tspan></text><text transform="translate(409.67532,198.6979) scale(0.1418,0.1418)" font-size="40" xml:space="preserve" fill="#ffffff" stroke="none" stroke-width="1" stroke-linecap="butt" font-family="Sans Serif" font-weight="normal" text-anchor="start"><tspan x="0" dy="0">Safe</tspan></text><path d="M412.84707,185.64784c-0.53812,0 -0.97434,-0.43622 -0.97434,-0.97434v-4.28711c0,-0.53812 0.43623,-0.97434 0.97434,-0.97434h5.71614c0.53812,0 0.97434,0.43623 0.97434,0.97434v4.28711c0,0.53812 -0.43622,0.97434 -0.97434,0.97434z" fill="none" stroke="#ffffff" stroke-width="2" stroke-linecap="butt"/><path d="M413.56159,179.28213c0,0 -0.67249,-3.33576 2.14355,-3.44268c3.01096,-0.11432 2.33842,3.37772 2.33842,3.37772" fill="none" stroke="#ffffff" stroke-width="2" stroke-linecap="round"/><path d="M414.71679,182.51294c0,-0.53812 0.43623,-0.97434 0.97434,-0.97434c0.53812,0 0.97435,0.43623 0.97435,0.97434c0,0.53812 -0.43623,0.97434 -0.97435,0.97434c-0.53812,0 -0.97434,-0.43623 -0.97434,-0.97434z" fill="#ffffff" stroke="none" stroke-width="2" stroke-linecap="butt"/><path d="M483.84819,183.06272c0.64657,0.75511 1.0371,1.73594 1.0371,2.80799c0,2.38565 -1.93395,4.31959 -4.31959,4.31959c-2.38565,0 -4.31959,-1.93395 -4.31959,-4.31959c0,-1.15483 0.45318,-2.20382 1.19141,-2.97882" fill="none" stroke="#ffffff" stroke-width="2" stroke-linecap="round"/><path d="M480.46828,181.48617v4.22216" fill="none" stroke="#ffffff" stroke-width="2" stroke-linecap="round"/><text transform="translate(467.16156,203.20912) scale(0.1418,0.1418)" font-size="40" xml:space="preserve" fill="#ffffff" stroke="none" stroke-width="1" stroke-linecap="butt" font-family="Sans Serif" font-weight="normal" text-anchor="start"><tspan x="0" dy="0">Power off</tspan></text><text transform="translate(536.26293,208.72356) scale(0.1418,0.1418)" font-size="40" xml:space="preserve" fill="#ffffff" stroke="none" stroke-width="1" stroke-linecap="butt" font-family="Sans Serif" font-weight="normal" text-anchor="start"><tspan x="0" dy="0">Safe</tspan></text><path d="M539.43468,195.6735c-0.53811,0 -0.97434,-0.43623 -0.97434,-0.97434v-4.28711c0,-0.53812 0.43623,-0.97434 0.97434,-0.97434h5.71615c0.53812,0 0.97434,0.43623 0.97434,0.97434v4.28711c0,0.53812 -0.43622,0.97434 -0.97434,0.97434z" fill="none" stroke="#ffffff" stroke-width="2" stroke-linecap="butt"/><path d="M540.1492,189.30779c0,0 -0.67249,-3.33576 2.14355,-3.44268c3.01096,-0.11432 2.33842,3.37773 2.33842,3.37773" fill="none" stroke="#ffffff" stroke-width="2" stroke-linecap="round"/><path d="M541.3044,192.5386c0,-0.53812 0.43623,-0.97434 0.97435,-0.97434c0.53811,0 0.97434,0.43623 0.97434,0.97434c0,0.53812 -0.43623,0.97434 -0.97434,0.97434c-0.53812,0 -0.97435,-0.43623 -0.97435,-0.97434z" fill="#ffffff" stroke="none" stroke-width="2" stroke-linecap="butt"/><path d="M328.83333,217.66667c-4.41828,0 -8,-3.58172 -8,-8v-48c0,-4.41828 3.58172,-8 8,-8h48c4.41828,0 8,3.58172 8,8v48c0,4.41828 -3.58172,8 -8,8z" fill="none" stroke="#ffffff" stroke-width="2" stroke-linecap="butt"/><path d="M345.50005,218h-31.33337c-4.41828,0 -8,-3.58172 -8,-8v-48c0,-4.41828 3.58172,-8 8,-8h25.04337" fill="none" stroke-opacity="0.28627" stroke="#ffffff" stroke-width="2" stroke-linecap="butt"/><path d="M344.29161,217.33334h-45.7916c-4.41828,0 -8,-3.58172 -8,-8v-48c0,-4.41828 3.58172,-8 8,-8h41.88666" fill="none" stroke-opacity="0.08235" stroke="#ffffff" stroke-width="2" stroke-linecap="butt"/></g></g></g></svg>