<svg version="1.1" xmlns="http://www.w3.org/2000/svg" xmlns:xlink="http://www.w3.org/1999/xlink" width="221.4593" height="223.72108" viewBox="0,0,221.4593,223.72108"><defs><linearGradient x1="354.46257" y1="85.83334" x2="354.46257" y2="300.79263" gradientUnits="userSpaceOnUse" id="color-1"><stop offset="0" stop-color="#38c7ff"/><stop offset="1" stop-color="#3873ff"/></linearGradient><radialGradient cx="353.87203" cy="196.26572" r="110.03869" gradientUnits="userSpaceOnUse" id="color-2"><stop offset="0" stop-color="#ac1010"/><stop offset="1" stop-color="#ac1010" stop-opacity="0"/></radialGradient><radialGradient cx="357.67262" cy="179.09067" r="81.21359" gradientUnits="userSpaceOnUse" id="color-3"><stop offset="0" stop-color="#ffffff" stop-opacity="0.2549"/><stop offset="1" stop-color="#ffffff" stop-opacity="0"/></radialGradient></defs><g transform="translate(-243.73292,-82.58334)"><g stroke-miterlimit="10"><path d="M267.06154,300.79263c-11.08911,0 -20.07862,-8.9895 -20.07862,-20.07861v-174.80207c0,-11.08911 8.98951,-20.07861 20.07862,-20.07861h174.80207c11.08911,0 20.07862,8.9895 20.07862,20.07862v174.80207c0,11.08911 -8.98951,20.07861 -20.07862,20.07861z" fill="url(#color-1)" stroke-opacity="0.85882" stroke="#ffffff" stroke-width="6.5" stroke-linecap="butt"/><path d="M271.34301,306.30442c-15.19318,0 -27.50968,-12.3165 -27.50968,-27.50968v-165.05803c0,-15.19318 12.3165,-27.50967 27.50968,-27.50967h165.05803c15.19318,0 27.50967,12.3165 27.50967,27.50968v165.05803c0,15.19318 -12.31649,27.50968 -27.50967,27.50968z" fill="url(#color-2)" stroke="none" stroke-width="0" stroke-linecap="butt"/><path d="M295.19235,278.16562c-10.92898,0 -19.78866,-8.70603 -19.78866,-19.44551v-116.67304c0,-10.73947 8.85968,-19.44551 19.78866,-19.44551h118.73197c10.92898,0 19.78866,8.70604 19.78866,19.44552v116.67304c0,10.73948 -8.85968,19.44551 -19.78866,19.44551z" fill="#0d0c18" stroke="none" stroke-width="0" stroke-linecap="butt"/><path d="M295.19235,253.4584c-10.92898,0 -19.78866,-8.20673 -19.78866,-18.33025v-109.9815c0,-10.12352 8.85968,-18.33025 19.78866,-18.33025h118.73197c10.92898,0 19.78866,8.20673 19.78866,18.33025v109.98151c0,10.12352 -8.85968,18.33025 -19.78866,18.33025z" fill="#28263a" stroke="none" stroke-width="0" stroke-linecap="butt"/><path d="M362.55831,163.23999c1.57581,1.7047 2.5276,3.91896 2.5276,6.33917c0,5.38573 -4.71337,9.7517 -10.52758,9.7517c-5.81423,0 -10.52758,-4.36599 -10.52758,-9.7517c0,-2.60709 1.10448,-4.97525 2.90366,-6.72484" fill="none" stroke="#ffffff" stroke-width="3.5" stroke-linecap="round"/><path d="M354.32088,169.21256v-9.53173" fill="none" stroke="#ffffff" stroke-width="3.5" stroke-linecap="round"/><text transform="translate(306.80158,205.27269) scale(0.3456,0.32013)" font-size="40" xml:space="preserve" fill="#ffffff" stroke="none" stroke-width="1" stroke-linecap="butt" font-family="Sans Serif" font-weight="normal" text-anchor="start"><tspan x="0" dy="0">CHROMEBOOK</tspan></text><path d="M296.76243,260.30426c-11.21326,0 -20.3034,-9.09015 -20.3034,-20.3034v-121.82038c0,-11.21326 9.09015,-20.3034 20.3034,-20.3034h121.82038c11.21326,0 20.3034,9.09014 20.3034,20.3034v121.82038c0,11.21326 -9.09015,20.3034 -20.3034,20.3034z" fill="url(#color-3)" stroke="none" stroke-width="0" stroke-linecap="butt"/><text transform="translate(291.7499,231.35434) scale(0.62646,0.58957)" font-size="40" xml:space="preserve" fill="#ffffff" stroke="#ffffff" stroke-width="5" stroke-linecap="butt" font-family="Sans Serif" font-weight="normal" text-anchor="start"><tspan x="0" dy="0">ROULETTE</tspan></text></g></g></svg>