<svg version="1.1" xmlns="http://www.w3.org/2000/svg" xmlns:xlink="http://www.w3.org/1999/xlink" width="449.78653" height="272" viewBox="0,0,449.78653,272"><defs><linearGradient x1="319.41679" y1="44.81016" x2="319.41679" y2="313.31016" gradientUnits="userSpaceOnUse" id="color-1"><stop offset="0" stop-color="#38c7ff"/><stop offset="1" stop-color="#3873ff"/></linearGradient><linearGradient x1="320" y1="110.25" x2="320" y2="46.75" gradientUnits="userSpaceOnUse" id="color-2"><stop offset="0" stop-color="#f5faff" stop-opacity="0"/><stop offset="1" stop-color="#f5faff" stop-opacity="0.32157"/></linearGradient><linearGradient x1="320" y1="45.75" x2="320" y2="199.25" gradientUnits="userSpaceOnUse" id="color-3"><stop offset="0" stop-color="#3896ff" stop-opacity="0"/><stop offset="1" stop-color="#3896ff"/></linearGradient><linearGradient x1="254.3185" y1="99.04227" x2="254.3185" y2="183.04254" gradientUnits="userSpaceOnUse" id="color-4"><stop offset="0" stop-color="#ffffff" stop-opacity="0"/><stop offset="1" stop-color="#ffffff" stop-opacity="0.44314"/></linearGradient><linearGradient x1="318" y1="132.75" x2="318" y2="314.25" gradientUnits="userSpaceOnUse" id="color-5"><stop offset="0" stop-color="#386fff" stop-opacity="0"/><stop offset="1" stop-color="#386fff"/></linearGradient><radialGradient cx="316.25" cy="205.75" r="167" gradientUnits="userSpaceOnUse" id="color-6"><stop offset="0" stop-color="#f5faff" stop-opacity="0.32157"/><stop offset="1" stop-color="#f5faff" stop-opacity="0"/></radialGradient><linearGradient x1="322" y1="207.75" x2="322" y2="314.25" gradientUnits="userSpaceOnUse" id="color-7"><stop offset="0" stop-color="#3849ff" stop-opacity="0"/><stop offset="1" stop-color="#3849ff" stop-opacity="0.48235"/></linearGradient><linearGradient x1="333.19673" y1="275.90016" x2="333.19673" y2="315.18985" gradientUnits="userSpaceOnUse" id="color-8"><stop offset="0" stop-color="#132758"/><stop offset="1" stop-color="#0c0c2b"/></linearGradient><radialGradient cx="305.7134" cy="251.51458" r="31.28737" gradientUnits="userSpaceOnUse" id="color-9"><stop offset="0" stop-color="#ff0000" stop-opacity="0.37647"/><stop offset="1" stop-color="#ff0000" stop-opacity="0"/></radialGradient><radialGradient cx="320.48125" cy="250.77856" r="31.28737" gradientUnits="userSpaceOnUse" id="color-10"><stop offset="0" stop-color="#ff0000" stop-opacity="0.37647"/><stop offset="1" stop-color="#ff0000" stop-opacity="0"/></radialGradient><radialGradient cx="338.76653" cy="252.46911" r="31.28737" gradientUnits="userSpaceOnUse" id="color-11"><stop offset="0" stop-color="#ff0000" stop-opacity="0.37647"/><stop offset="1" stop-color="#ff0000" stop-opacity="0"/></radialGradient><radialGradient cx="352.95349" cy="254.10021" r="31.28737" gradientUnits="userSpaceOnUse" id="color-12"><stop offset="0" stop-color="#ff0000" stop-opacity="0.37647"/><stop offset="1" stop-color="#ff0000" stop-opacity="0"/></radialGradient><radialGradient cx="353.29358" cy="258.91484" r="27.39447" gradientUnits="userSpaceOnUse" id="color-13"><stop offset="0" stop-color="#ff0000" stop-opacity="0.37647"/><stop offset="1" stop-color="#ff0000" stop-opacity="0"/></radialGradient><radialGradient cx="303.58414" cy="257.00605" r="27.39447" gradientUnits="userSpaceOnUse" id="color-14"><stop offset="0" stop-color="#ff0000" stop-opacity="0.37647"/><stop offset="1" stop-color="#ff0000" stop-opacity="0"/></radialGradient><radialGradient cx="326.74269" cy="261.85551" r="27.39447" gradientUnits="userSpaceOnUse" id="color-15"><stop offset="0" stop-color="#ff0000" stop-opacity="0.37647"/><stop offset="1" stop-color="#ff0000" stop-opacity="0"/></radialGradient><radialGradient cx="306.24216" cy="250.27426" r="26.71134" gradientUnits="userSpaceOnUse" id="color-16"><stop offset="0" stop-color="#ffffff" stop-opacity="0.1451"/><stop offset="1" stop-color="#ffffff" stop-opacity="0"/></radialGradient><radialGradient cx="319.67488" cy="247.38086" r="26.71134" gradientUnits="userSpaceOnUse" id="color-17"><stop offset="0" stop-color="#ffffff" stop-opacity="0.1451"/><stop offset="1" stop-color="#ffffff" stop-opacity="0"/></radialGradient><radialGradient cx="337.70763" cy="247.64242" r="26.71133" gradientUnits="userSpaceOnUse" id="color-18"><stop offset="0" stop-color="#ffffff" stop-opacity="0.1451"/><stop offset="1" stop-color="#ffffff" stop-opacity="0"/></radialGradient><radialGradient cx="351.09901" cy="247.5991" r="26.71134" gradientUnits="userSpaceOnUse" id="color-19"><stop offset="0" stop-color="#ffffff" stop-opacity="0.1451"/><stop offset="1" stop-color="#ffffff" stop-opacity="0"/></radialGradient></defs><g transform="translate(-94.77334,-44)"><g stroke-miterlimit="10"><path d="M96.60692,313.31016v-268.5h445.61975v268.5z" fill="url(#color-1)" stroke="none" stroke-width="NaN" stroke-linecap="butt"/><path d="M315.22107,152.8173c-111.82378,0.49044 -217.86435,14.97755 -217.86435,14.97755l-2.58337,-93.96531c0,0 78.7917,-25.26939 224.29409,-25.26939c142.91902,0 222.11258,25.26939 222.11258,25.26939v97.73061c0,0 -104.60104,-19.27512 -225.95893,-18.74286z" fill-opacity="0.61176" fill="#29273b" stroke="none" stroke-width="0" stroke-linecap="butt"/><g><path d="M96.47,162.27109v-81.95119c0,0 79.19356,-21.18944 222.11258,-21.18944c145.50238,0 224.29408,21.18944 224.29408,21.18944l-2.58337,78.79382c0,0 -106.04057,-12.14804 -217.86436,-12.5593c-121.35789,-0.44633 -225.95893,15.71667 -225.95893,15.71667z" fill-opacity="0.61176" fill="#29273b" stroke="none" stroke-width="0" stroke-linecap="butt"/><text transform="translate(120.82724,126.69589) scale(0.1372,0.14925)" font-size="40" xml:space="preserve" fill="#ffffff" stroke="none" stroke-width="1" stroke-linecap="butt" font-family="Sans Serif" font-weight="normal" text-anchor="start"><tspan x="0" dy="0">Safe</tspan></text><path d="M123.89593,112.96129c-0.52063,0 -0.94268,-0.45911 -0.94268,-1.02545v-4.51199c0,-0.56635 0.42206,-1.02545 0.94268,-1.02545h5.5304c0.52063,0 0.94268,0.45911 0.94268,1.02545v4.51199c0,0.56635 -0.42206,1.02545 -0.94268,1.02545z" fill="none" stroke="#ffffff" stroke-width="2" stroke-linecap="butt"/><path d="M124.58723,106.26166c0,0 -0.65064,-3.51074 2.0739,-3.62327c2.91313,-0.12032 2.26243,3.5549 2.26243,3.5549" fill="none" stroke="#ffffff" stroke-width="2" stroke-linecap="round"/><path d="M125.70489,109.66193c0,-0.56635 0.42206,-1.02545 0.94268,-1.02545c0.52063,0 0.94268,0.45911 0.94268,1.02545c0,0.56635 -0.42206,1.02545 -0.94268,1.02545c-0.52063,0 -0.94268,-0.45911 -0.94268,-1.02545z" fill="#ffffff" stroke="none" stroke-width="2" stroke-linecap="butt"/><path d="M189.68733,98.66355c0.62556,0.79472 1.0034,1.827 1.0034,2.95528c0,2.51079 -1.87111,4.54618 -4.17923,4.54618c-2.30813,0 -4.17923,-2.0354 -4.17923,-4.54618c0,-1.21541 0.43845,-2.31942 1.1527,-3.13508" fill="none" stroke="#ffffff" stroke-width="2" stroke-linecap="round"/><path d="M186.41724,97.00431v4.44362" fill="none" stroke="#ffffff" stroke-width="2" stroke-linecap="round"/><text transform="translate(173.54293,119.86673) scale(0.1372,0.14925)" font-size="40" xml:space="preserve" fill="#ffffff" stroke="none" stroke-width="1" stroke-linecap="butt" font-family="Sans Serif" font-weight="normal" text-anchor="start"><tspan x="0" dy="0">Power off</tspan></text><text transform="translate(243.30135,119.35571) scale(0.1372,0.14925)" font-size="40" xml:space="preserve" fill="#ffffff" stroke="none" stroke-width="1" stroke-linecap="butt" font-family="Sans Serif" font-weight="normal" text-anchor="start"><tspan x="0" dy="0">Safe</tspan></text><path d="M246.37003,105.62111c-0.52063,0 -0.94268,-0.45911 -0.94268,-1.02545v-4.51199c0,-0.56635 0.42206,-1.02545 0.94268,-1.02545h5.5304c0.52063,0 0.94268,0.45911 0.94268,1.02545v4.51199c0,0.56635 -0.42206,1.02545 -0.94268,1.02545z" fill="none" stroke="#ffffff" stroke-width="2" stroke-linecap="butt"/><path d="M247.06134,98.92148c0,0 -0.65064,-3.51074 2.0739,-3.62327c2.91313,-0.12032 2.26243,3.5549 2.26243,3.5549" fill="none" stroke="#ffffff" stroke-width="2" stroke-linecap="round"/><path d="M248.179,102.32175c0,-0.56635 0.42206,-1.02545 0.94268,-1.02545c0.52063,0 0.94268,0.45911 0.94268,1.02545c0,0.56635 -0.42206,1.02545 -0.94268,1.02545c-0.52063,0 -0.94268,-0.45911 -0.94268,-1.02545z" fill="#ffffff" stroke="none" stroke-width="2" stroke-linecap="butt"/><path d="M314.89441,96.53165c0.62556,0.79472 1.0034,1.827 1.0034,2.95528c0,2.51079 -1.87109,4.54618 -4.17922,4.54618c-2.30813,0 -4.17923,-2.0354 -4.17923,-4.54618c0,-1.21541 0.43846,-2.31942 1.1527,-3.13508" fill="none" stroke="#ffffff" stroke-width="2" stroke-linecap="round"/><path d="M311.62435,99.31602v-4.44362" fill="none" stroke="#ffffff" stroke-width="2" stroke-linecap="round"/><text transform="translate(298.75003,117.73482) scale(0.13719,0.14924)" font-size="40" xml:space="preserve" fill="#ffffff" stroke="none" stroke-width="1" stroke-linecap="butt" font-family="Sans Serif" font-weight="normal" text-anchor="start"><tspan x="0" dy="0">Power off</tspan></text><text transform="translate(368.50844,117.22379) scale(0.13719,0.14924)" font-size="40" xml:space="preserve" fill="#ffffff" stroke="none" stroke-width="1" stroke-linecap="butt" font-family="Sans Serif" font-weight="normal" text-anchor="start"><tspan x="0" dy="0">Safe</tspan></text><path d="M371.57712,103.48919c-0.52063,0 -0.94268,-0.4591 -0.94268,-1.02545v-4.51199c0,-0.56635 0.42206,-1.02545 0.94268,-1.02545h5.53039c0.52063,0 0.94268,0.45911 0.94268,1.02545v4.51199c0,0.56635 -0.42205,1.02545 -0.94268,1.02545z" fill="none" stroke="#ffffff" stroke-width="2" stroke-linecap="butt"/><path d="M372.26843,96.78956c0,0 -0.65064,-3.51074 2.0739,-3.62327c2.91312,-0.12032 2.26244,3.5549 2.26244,3.5549" fill="none" stroke="#ffffff" stroke-width="2" stroke-linecap="round"/><path d="M373.38609,100.18985c0,-0.56635 0.42206,-1.02545 0.94268,-1.02545c0.52063,0 0.94269,0.45911 0.94269,1.02545c0,0.56635 -0.42206,1.02545 -0.94269,1.02545c-0.52063,0 -0.94268,-0.45911 -0.94268,-1.02545z" fill="#ffffff" stroke="none" stroke-width="2" stroke-linecap="butt"/><path d="M440.27104,100.76847c0.62556,0.79472 1.0034,1.827 1.0034,2.95528c0,2.51079 -1.8711,4.54618 -4.17922,4.54618c-2.30813,0 -4.17923,-2.0354 -4.17923,-4.54618c0,-1.21541 0.43845,-2.31942 1.1527,-3.13508" fill="none" stroke="#ffffff" stroke-width="2" stroke-linecap="round"/><path d="M437.00096,99.10922v4.44363" fill="none" stroke="#ffffff" stroke-width="2" stroke-linecap="round"/><text transform="translate(424.12665,121.97165) scale(0.13719,0.14924)" font-size="40" xml:space="preserve" fill="#ffffff" stroke="none" stroke-width="1" stroke-linecap="butt" font-family="Sans Serif" font-weight="normal" text-anchor="start"><tspan x="0" dy="0">Power off</tspan></text><text transform="translate(490.98255,127.77535) scale(0.13719,0.14924)" font-size="40" xml:space="preserve" fill="#ffffff" stroke="none" stroke-width="1" stroke-linecap="butt" font-family="Sans Serif" font-weight="normal" text-anchor="start"><tspan x="0" dy="0">Safe</tspan></text><path d="M494.05123,114.04075c-0.52062,0 -0.94268,-0.45911 -0.94268,-1.02545v-4.51199c0,-0.56635 0.42206,-1.02545 0.94268,-1.02545h5.5304c0.52063,0 0.94268,0.45911 0.94268,1.02545v4.51199c0,0.56635 -0.42205,1.02545 -0.94268,1.02545z" fill="none" stroke="#ffffff" stroke-width="2" stroke-linecap="butt"/><path d="M494.74253,107.34112c0,0 -0.65064,-3.51074 2.0739,-3.62327c2.91312,-0.12032 2.26243,3.55491 2.26243,3.55491" fill="none" stroke="#ffffff" stroke-width="2" stroke-linecap="round"/><path d="M495.8602,110.74141c0,-0.56635 0.42206,-1.02545 0.94269,-1.02545c0.52062,0 0.94268,0.45911 0.94268,1.02545c0,0.56635 -0.42206,1.02545 -0.94268,1.02545c-0.52063,0 -0.94269,-0.45911 -0.94269,-1.02545z" fill="#ffffff" stroke="none" stroke-width="2" stroke-linecap="butt"/><path d="M290.29345,137.18757c-4.27471,0 -7.74004,-3.7696 -7.74004,-8.41964v-50.51786c0,-4.65004 3.46533,-8.41964 7.74004,-8.41964h46.44022c4.27471,0 7.74004,3.7696 7.74004,8.41964v50.51786c0,4.65004 -3.46533,8.41964 -7.74004,8.41964z" fill="none" stroke="#ffffff" stroke-width="2" stroke-linecap="butt"/><path d="M306.41856,137.53839h-30.31519c-4.27471,0 -7.74004,-3.7696 -7.74004,-8.41964v-50.51786c0,-4.65004 3.46533,-8.41964 7.74004,-8.41964h24.22958" fill="none" stroke-opacity="0.28627" stroke="#ffffff" stroke-width="2" stroke-linecap="butt"/><path d="M305.2494,136.83676h-44.30359c-4.27471,0 -7.74004,-3.7696 -7.74004,-8.41964v-50.51786c0,-4.65004 3.46533,-8.41964 7.74004,-8.41964h40.52554" fill="none" stroke-opacity="0.08235" stroke="#ffffff" stroke-width="2" stroke-linecap="butt"/></g><path d="M542.80988,46.75v63.5h-445.61975v-63.5z" fill="url(#color-2)" stroke="none" stroke-width="0" stroke-linecap="butt"/><path d="M97.19013,199.25v-153.5h445.61975v153.5z" fill="url(#color-3)" stroke="none" stroke-width="0" stroke-linecap="butt"/><path d="M256.60002,151.05777c0,14.39347 -2.60354,31.98477 -19.94112,31.98477c-17.33758,0 -27.44373,-10.48359 -27.44373,-24.87704c0,-7.54579 4.92878,-42.078 27.52115,-54.06565c20.50219,-10.87858 54.45917,-0.82181 62.70749,-0.82181c17.33757,0 -42.8438,33.38626 -42.8438,47.77973z" fill="url(#color-4)" stroke="none" stroke-width="3.5" stroke-linecap="butt"/><g><path d="M240.3984,246.18661c0.02387,0.2186 6.98349,33.52392 7.40895,37.47754c1.26772,11.78019 -4.01886,4.08802 -4.85627,5.96731c-5.49885,12.34037 -31.20779,6.66233 -42.57113,7.90283c-10.58573,1.15562 -13.5414,2.041 -14.24625,-11.64391c-0.20568,-3.99329 0.49103,-32.79493 0.36409,-33.95758c-0.26596,-2.43625 9.2576,-9.03335 13.14255,-11.13769c1.23007,-0.66629 2.2995,-18.75285 2.2995,-18.75285c0,0 11.1133,-4.11636 15.80745,-0.12909c0.58029,0.49291 5.54478,16.14654 6.03787,16.42063c1.98279,1.10211 16.44092,6.27417 16.61326,7.85283z" fill="#c4c4c4" stroke="#000000" stroke-width="3" stroke-linecap="butt"/><path d="M172.14887,203.58233c-2.24899,-20.60118 11.50251,-39.00197 30.71484,-41.09934c19.21233,-2.09737 36.61016,12.90291 38.85915,33.50408c2.24899,20.60118 -11.73127,36.90637 -30.94361,39.00375c-19.21232,2.09737 -36.38139,-10.8073 -38.63038,-31.40847z" fill="#c4c4c4" stroke="#000000" stroke-width="3" stroke-linecap="butt"/><path d="M204.33939,200.14862c0.89905,8.23549 -4.96045,15.63091 -13.08758,16.51814c-8.12713,0.88723 -15.44429,-5.06972 -16.34334,-13.30521c-0.89905,-8.23549 4.96044,-15.6309 13.08757,-16.51812c8.12713,-0.88723 15.4443,5.06972 16.34335,13.3052z" fill="#c4c4c4" stroke="#000000" stroke-width="3.5" stroke-linecap="butt"/><path d="M193.49958,202.55525c-0.27215,-2.49298 1.52818,-4.73457 4.02115,-5.00672c2.49298,-0.27215 4.73455,1.52819 5.00671,4.02116c0.27215,2.49298 -1.52818,4.73456 -4.02115,5.00671c-2.49298,0.27215 -4.73455,-1.52817 -5.00671,-4.02115z" fill="#000000" stroke="none" stroke-width="0.5" stroke-linecap="butt"/><path d="M223.6877,182.78137c8.12713,-0.88723 15.44429,5.06972 16.34335,13.30521c0.89905,8.23549 -4.96045,15.63091 -13.08758,16.51814c-8.12713,0.88723 -15.44429,-5.06973 -16.34334,-13.30522c-0.89905,-8.23549 4.96045,-15.6309 13.08758,-16.51812z" fill="#c4c4c4" stroke="#000000" stroke-width="3.5" stroke-linecap="butt"/><path d="M221.51667,203.37978c-2.35736,0.25734 -4.47699,-1.44504 -4.73435,-3.80241c-0.25734,-2.35736 1.44504,-4.47701 3.80241,-4.73435c2.35736,-0.25734 4.477,1.44506 4.73434,3.80241c0.25734,2.35736 -1.44504,4.477 -3.8024,4.73435z" fill="#000000" stroke="none" stroke-width="0.5" stroke-linecap="butt"/><path d="M224.78567,221.88075c0,0 6.12909,3.72237 -14.02951,7.06483c-19.75787,3.27602 -15.76082,-2.26988 -15.76082,-2.26988" fill="none" stroke="#000000" stroke-width="3.5" stroke-linecap="round"/><path d="M453.19967,250.40614c-0.01764,0.21919 0.5601,34.23899 0.23512,38.20214c-0.96832,11.80858 -4.7154,3.26009 -5.89101,4.94857c-7.71961,11.08736 -31.90376,0.67984 -43.29781,-0.23687c-10.61432,-0.85397 -13.68372,-0.53972 -11.80468,-14.11333c0.54831,-3.9608 6.6443,-32.11857 6.73809,-33.28436c0.19653,-2.44282 10.79004,-7.13299 15.00119,-8.46989c1.33336,-0.4233 5.78213,-17.98678 5.78213,-17.98678c0,0 11.68881,-1.9549 15.55015,2.84336c0.47734,0.59315 2.41215,16.90079 2.84497,17.26264c1.7404,1.45504 14.96921,9.2516 14.84185,10.83453z" fill="#c4c4c4" stroke="#000000" stroke-width="3" stroke-linecap="butt"/><path d="M394.17088,195.73689c1.66194,-20.65681 18.62595,-36.14604 37.89017,-34.59614c19.26423,1.5499 33.5337,19.552 31.87176,40.20882c-1.66194,20.65681 -18.45688,34.04477 -37.72111,32.49488c-19.26422,-1.5499 -33.70276,-17.45072 -32.04082,-38.10753z" fill="#c4c4c4" stroke="#000000" stroke-width="3" stroke-linecap="butt"/><path d="M426.43324,198.41282c-0.66437,8.25772 -7.80909,14.42045 -15.95817,13.76482c-8.14908,-0.65563 -14.21662,-7.88134 -13.55224,-16.13907c0.66437,-8.25772 7.80907,-14.42044 15.95815,-13.76481c8.14908,0.65563 14.21664,7.88134 13.55226,16.13906z" fill="#c4c4c4" stroke="#000000" stroke-width="3.5" stroke-linecap="butt"/><path d="M409.05265,197.51882c0.49651,-6.17125 3.36635,-10.97554 6.41,-10.73067c3.04365,0.24488 5.1085,5.44618 4.61199,11.61743c-0.49651,6.17125 -3.36635,10.97553 -6.41,10.73065c-3.04365,-0.24488 -5.1085,-5.44616 -4.61199,-11.61742z" fill="#000000" stroke="none" stroke-width="0.5" stroke-linecap="butt"/><path d="M448.70017,184.99035c8.14908,0.65563 14.21664,7.88134 13.55226,16.13906c-0.66437,8.25772 -7.80909,14.42046 -15.95817,13.76483c-8.14908,-0.65563 -14.21664,-7.88134 -13.55226,-16.13908c0.66437,-8.25772 7.80909,-14.42045 15.95817,-13.76482z" fill="#c4c4c4" stroke="#000000" stroke-width="3.5" stroke-linecap="butt"/><path d="M434.18015,199.37523c0.49651,-6.17125 3.36635,-10.97554 6.41,-10.73066c3.04365,0.24488 5.1085,5.44618 4.61199,11.61743c-0.49651,6.17125 -3.36635,10.97554 -6.41,10.73066c-3.04365,-0.24488 -5.1085,-5.44617 -4.612,-11.61743z" fill="#000000" stroke="none" stroke-width="0.5" stroke-linecap="butt"/><path d="M442.03235,222.57086c0,0 -11.66982,1.03223 -16.71424,0.54164c-4.7765,-0.46452 -12.79237,-3.4112 -12.79237,-3.4112" fill="none" stroke="#000000" stroke-width="4.5" stroke-linecap="round"/></g><path d="M95.19013,314.25v-181.5h445.61975v181.5z" fill="url(#color-5)" stroke="none" stroke-width="0" stroke-linecap="butt"/><path d="M370.24273,214.18886c0,0.3506 15.77001,67.79747 15.76027,74.13732c-0.02902,18.89023 -17.57906,-7.67189 -19.23147,-4.83822c-10.85054,18.60728 -50.61517,5.15964 -68.84002,5.15964c-16.97767,0 -28.37925,4.83015 -27.12856,-16.98156c0.36495,-6.3647 13.01638,-55.83127 13.01638,-57.69597c0,-3.90732 16.23572,-12.71551 22.75724,-15.37856c2.06488,-0.8432 6.88927,-29.32425 6.88927,-29.32425c0,0 18.32612,-4.60131 25.07617,2.53048c0.83444,0.88162 5.9944,26.55065 6.72849,27.07037c2.95191,2.08985 24.97225,12.78886 24.97225,15.32075z" fill="#ffffff" stroke="#000000" stroke-width="3.5" stroke-linecap="butt"/><path d="M483.25,205.75c0,39.78972 -14.87952,76.21859 -39.5511,104.36672c-4.26378,-1.45364 -8.50203,-3.70132 -12.70131,-4.67887c-2.83649,-0.6603 -5.78973,-0.66193 -8.6614,-1.14689c-1.55877,-0.26324 -3.0392,-0.96109 -4.61435,-1.0951c-2.53093,-0.21533 -5.08738,0.24829 -7.62002,0.0542c-0.72607,-0.05564 -1.32559,-0.63038 -2.03514,-0.79412c-3.6327,-0.83832 -7.28715,-1.59451 -10.96486,-2.20588c-2.97542,-0.49463 -5.98696,-0.73987 -8.98044,-1.1098c-4.3169,0.00426 -8.60368,-0.7298 -12.91249,-0.99416c-15.76743,-0.9674 -31.91775,-0.02516 -47.70889,-0.02516c-28.66667,0 -57.33333,-0.00414 -86,0c-18.73636,0.0027 -40.17996,-2.15141 -57.41116,6.3698c-21.84143,-27.30011 -34.83884,-61.55255 -34.83884,-98.74073c0,-89.19399 74.76845,-161.5 167,-161.5c92.23155,0 167,72.30601 167,161.5z" fill="url(#color-6)" stroke="none" stroke-width="0" stroke-linecap="butt"/><path d="M270.45509,138.84847c0,-34.72639 26.25347,-62.87769 58.63875,-62.87769c32.38529,0 58.63875,28.1513 58.63875,62.87769c0,34.72639 -26.25346,59.34524 -58.63875,59.34524c-32.38528,0 -58.63875,-24.61883 -58.63875,-59.34523z" fill="#ffffff" stroke="#000000" stroke-width="3.5" stroke-linecap="butt"/><path d="M324.4063,135.19314c0,13.88215 -11.10565,25.13588 -24.80514,25.13588c-13.6995,0 -24.80513,-11.25371 -24.80513,-25.13588c0,-13.88215 11.10562,-25.13586 24.80513,-25.13586c13.6995,0 24.80514,11.25371 24.80514,25.13586z" fill="#ffffff" stroke="#000000" stroke-width="3.5" stroke-linecap="butt"/><path d="M306.96862,143.66846c0,-3.28788 2.66535,-5.95324 5.95323,-5.95324c3.28788,0 5.95323,2.66536 5.95323,5.95324c0,3.28788 -2.66535,5.95324 -5.95323,5.95324c-3.28788,0 -5.95323,-2.66535 -5.95323,-5.95324z" fill="#000000" stroke="none" stroke-width="3.5" stroke-linecap="butt"/><path d="M359.79497,110.05726c13.6995,0 24.80514,11.25371 24.80514,25.13586c0,13.88215 -11.10565,25.13588 -24.80514,25.13588c-13.6995,0 -24.80514,-11.25371 -24.80514,-25.13588c0,-13.88215 11.10565,-25.13586 24.80514,-25.13586z" fill="#ffffff" stroke="#000000" stroke-width="3.5" stroke-linecap="butt"/><path d="M346.77041,148.43706c-3.28788,0 -5.95323,-2.66535 -5.95323,-5.95324c0,-3.28788 2.66535,-5.95324 5.95323,-5.95324c3.28788,0 5.95323,2.66536 5.95323,5.95324c0,3.28788 -2.66535,5.95324 -5.95323,5.95324z" fill="#000000" stroke="none" stroke-width="3.5" stroke-linecap="butt"/><path d="M267.05541,111.38739c0,0 2.49184,-13.17288 19.08303,-8.80689c8.27814,2.1784 32.31372,19.3456 35.79037,19.52143c4.64271,0.23483 6.09922,-7.6306 6.09922,-7.6306" fill="none" stroke="#000000" stroke-width="3.5" stroke-linecap="round"/><path d="M337.07814,107.56225c0,0 5.52214,1.37045 6.05822,-0.8532c2.92457,-12.13062 12.96015,-23.50595 20.67012,-23.27244c13.26432,0.40179 25.55435,20.02567 25.55435,20.02567" fill="none" stroke="#000000" stroke-width="3.5" stroke-linecap="round"/><path d="M298.18744,180.01489l68.71412,-8.53964" fill="none" stroke="#000000" stroke-width="3.5" stroke-linecap="round"/><path d="M351.59015,187.3928c-7.5021,3.13112 -14.52976,-1.32827 -15.6967,-9.96031c-0.03142,-0.23236 -0.05826,-0.46539 -0.08061,-0.69891c1.61646,-0.42238 3.26165,-0.76544 5.00578,-0.91957c6.9921,-0.61789 14.50524,-1.5689 22.01197,-3.26437c-1.28595,6.49875 -5.5926,12.48595 -11.24043,14.84317z" fill="#ffb1ee" stroke="#000000" stroke-width="3.5" stroke-linecap="butt"/><path d="M348.27182,175.57515l-0.56865,3.11365" fill="none" stroke="#000000" stroke-width="3.5" stroke-linecap="round"/><path d="M390.17633,111.98176c0,0 11.15625,-2.37705 14.77464,-1.53791c3.61839,0.83915 9.28532,4.63504 8.51707,6.52999c-0.76824,1.89493 -4.32432,2.75083 -7.94271,1.91169c-3.61839,-0.83914 -15.34899,-6.90377 -15.34899,-6.90377z" fill-opacity="0.5451" fill="#2ac1ff" stroke="none" stroke-width="3.5" stroke-linecap="butt"/><path d="M403.25751,137.37332c2.24096,3.3512 2.36824,7.23757 0.98281,7.81363c-1.38543,0.57606 -3.66595,-0.83909 -5.09371,-3.16081c-1.42775,-2.32172 -4.31058,-11.57305 -4.31058,-11.57305c0,0 6.90639,4.65453 8.42147,6.92023z" fill-opacity="0.5451" fill="#2ac1ff" stroke="none" stroke-width="3.5" stroke-linecap="butt"/><g stroke="#000000" stroke-width="3.5"><path d="M280.35264,156.35214c5.61332,9.68528 9.70919,18.31794 4.09067,21.57427c-5.61853,3.25633 -20.10114,-4.53383 -25.71443,-14.21909c-5.61332,-9.68528 -0.23166,-17.59807 5.38685,-20.8544c5.61853,-3.25633 10.6236,3.81394 16.2369,13.49922z" fill="#ffffff" stroke-linecap="butt"/><path d="M277.05755,176.47651c0.62293,1.07482 4.73164,4.27269 6.32434,7.25339c2.50641,4.69071 3.04015,8.91557 3.37859,10.28639c0.34435,1.39487 2.04103,1.62612 3.38388,4.82083c2.48289,5.9069 1.35185,9.09056 1.13912,9.87338c-1.92681,7.09019 -13.14625,13.13066 -19.87522,18.79769c-15.71914,13.23841 -26.9563,18.21918 -38.24495,-1.25841c-7.06385,-12.18807 -28.0922,-42.79765 -24.55466,-56.19369c2.11575,-8.01197 17.97524,-16.61745 23.96305,-20.08782c3.79669,-2.20046 18.49414,-8.46236 22.72787,-7.31816c8.34011,2.25401 8.67823,11.65475 11.75348,15.18695c1.24969,1.43539 4.53535,3.78625 6.10908,6.85603c1.19513,2.33125 2.03078,8.56613 3.89544,11.78341z" fill="#ffffff" stroke-linecap="butt"/><path d="M264.47222,157.79116l-32.14705,17.33717" fill="none" stroke-linecap="round"/><path d="M275.64126,176.16906l-35.79923,19.97161" fill="none" stroke-linecap="round"/><path d="M250.76793,215.43609l33.63559,-19.23536" fill="none" stroke-linecap="round"/></g><g fill-opacity="0.12549" fill="#ffffff" stroke="none" stroke-width="3.5"><path d="M270.04982,155.66062c4.20167,7.46924 7.02966,14.01893 0.85654,15.63872c-6.17312,1.61979 -19.62652,-5.57182 -23.82819,-13.04104c-4.20166,-7.46924 2.43948,-12.38765 8.61261,-14.00746c6.17312,-1.61979 10.15737,3.94054 14.35904,11.40977z" stroke-linecap="butt"/><path d="M261.28416,139.38512l-35.12361,8.35876" stroke-linecap="round"/><path d="M230.56516,163.39485l39.21495,-9.7753" stroke-linecap="round"/><path d="M238.67596,178.24483l36.91641,-9.51516" stroke-linecap="round"/></g><path d="M100.19013,314.25v-106.5h443.61975v106.5z" fill="url(#color-7)" stroke="none" stroke-width="0" stroke-linecap="butt"/><path d="M134.94672,312.47225c0,-20.19821 88.75955,-36.57209 198.25,-36.57209c109.49045,0 198.25,16.37388 198.25,36.57209c0,0.83284 -0.15091,1.65919 -0.44796,2.47814c-131.93218,0.80481 -263.90002,-0.66449 -395.85107,-0.81654c-0.13351,-0.55079 -0.20097,-1.10474 -0.20097,-1.6616z" fill="url(#color-8)" stroke="none" stroke-width="0" stroke-linecap="butt"/><path d="M288.53485,208.05347c0,0 -6.81686,6.51848 -11.16947,9.97437c-5.00598,3.97465 -17.18133,12.53558 -17.18133,12.53558" fill="none" stroke-opacity="0.38039" stroke="#ff6666" stroke-width="3" stroke-linecap="round"/><g><path d="M282.90144,259.11079c-0.60862,-5.68147 1.36816,-15.82077 4.49508,-18.1665c6.02744,-4.52159 39.64225,-3.73921 48.57633,-3.60464c4.83614,0.41811 34.45317,5.52633 36.86523,8.36972c2.36722,2.79052 -0.35259,8.00482 0.37639,10.96298c0.3214,1.30425 5.05857,1.40846 5.3308,1.50773c8.51754,3.10609 11.71244,9.03595 14.21815,16.46192c7.03869,33.35532 -12.68927,37.17478 -35.70101,38.97833c-6.14214,0.48139 -33.07972,-0.36401 -43.55707,-0.3708c-21.17267,-0.01371 -45.14812,-3.69265 -46.91404,-18.01505c-0.41832,-4.22533 -0.17426,-8.42345 0.62417,-12.57147l-0.51192,-0.65492l0.13969,-0.08225c-0.20592,-0.22336 -0.39723,-0.45731 -0.57075,-0.70413c-0.83131,-1.1826 -0.01445,-2.76766 -0.08789,-4.14986c-0.28959,-5.44951 -2.90728,-12.87657 3.46542,-16.54908c3.14209,-1.81076 8.88254,-1.58546 13.25143,-1.41199zM275.14429,294.78949c1.01728,15.68993 52.87776,13.05012 65.50785,11.04187c28.51012,-6.94393 55.68714,6.39992 47.70889,-29.86922c-3.81217,-12.02819 -8.93705,-8.70058 -18.76332,-15.14432c-6.20982,-4.0722 -0.44593,-9.44901 -2.89161,-12.0717c-0.75066,-0.80499 -25.65172,-5.36724 -29.08971,-5.66864c-8.32501,-0.11578 -40.56805,-0.71685 -46.52974,1.87863c-0.45182,0.19671 0.54176,15.04981 0.66359,16.68365c0,0 0.21089,2.85411 -3.0714,3.0258c-0.198,0.01037 -0.38485,0.0097 -0.56113,-0.00067l-0.68202,0.27701c-3.4637,-0.05024 -6.51953,-0.00367 -9.94347,0.38155c-1.32429,0.149 -3.00904,-0.37956 -3.41565,1.21053c-0.17744,0.69392 -0.19725,1.48485 -0.13043,2.33205c0.29668,-0.07152 0.61019,-0.10768 0.93404,-0.10298c1.81636,0.02635 3.27023,1.32766 3.24733,2.90658l-0.0622,4.2883l-0.06286,-0.00091c0.01747,0.07273 0.0342,0.14565 0.05012,0.21876c0.27453,1.25969 -0.47302,2.52634 -0.72018,3.78955l-0.37182,3.60536c-0.07212,0.78604 -0.50928,1.47956 -1.16268,1.95492c-0.6041,2.97819 -0.98606,6.00081 -0.65364,9.26385z" fill="#000000" stroke="none" stroke-width="0.5" stroke-linecap="butt"/><path d="M270.57084,293.72092c0.02248,-1.54956 -0.83893,-26.51037 0.58544,-27.91402c7.06602,-6.96329 32.48154,11.66575 59.84217,12.0626c27.07225,0.39267 49.49485,-15.07774 56.61843,-8.02266c1.52716,1.51247 2.68993,23.97987 2.66628,25.61046c-0.00477,0.32909 -0.04334,0.65546 -0.11479,0.97888c-1.93377,8.75413 -27.95038,15.34196 -59.65507,14.8821c-32.87601,-0.47685 -60.07642,-8.36072 -59.94245,-17.59734z" fill="#000000" stroke="none" stroke-width="NaN" stroke-linecap="butt"/><path d="M268.96247,268.53427c0.13397,-9.23662 26.89385,-16.33782 59.76985,-15.86097c32.87601,0.47685 59.41867,8.35118 59.2847,17.58779c-0.13397,9.23662 -26.89385,16.33782 -59.76986,15.86097c-32.87601,-0.47685 -59.41866,-8.35117 -59.28469,-17.58779z" fill="#141017" stroke="none" stroke-width="NaN" stroke-linecap="butt"/><g><path d="M367.95203,265.72045c-0.07135,4.91891 -17.98882,8.64743 -40.01981,8.32788c-22.03097,-0.31955 -39.83277,-4.56615 -39.76142,-9.48507c0.01476,-1.01727 -0.36664,-16.25381 1.05319,-17.14398c5.44562,-3.41415 21.49181,8.56263 38.9666,8.81609c18.17969,0.26369 35.29118,-8.65007 40.04475,-4.86709c1.00702,0.80141 -0.27084,13.49227 -0.28331,14.35215z" fill="#ff8686" stroke="none" stroke-width="NaN" stroke-linecap="butt"/><path d="M368.1725,250.52006c-0.07135,4.91891 -17.98882,8.64743 -40.01981,8.32788c-22.03097,-0.31955 -39.83277,-4.56616 -39.76142,-9.48507c0.07135,-4.9189 17.98881,-8.64743 40.01979,-8.32788c22.03097,0.31955 39.83279,4.56615 39.76144,9.48507z" fill="#ffbcbc" stroke="none" stroke-width="NaN" stroke-linecap="butt"/><path d="M362.67783,252.52348c-16.13969,5.021 -50.48608,3.35565 -68.03169,-1.05065" fill="none" stroke-opacity="0.68627" stroke="#ffffff" stroke-width="6" stroke-linecap="round"/><path d="M335.35812,251.94456c-0.21784,15.01907 -13.66685,27.00192 -30.03918,26.76445c-16.37234,-0.23747 -29.46813,-12.60534 -29.25029,-27.62441c0.21784,-15.01907 13.66684,-27.00192 30.03917,-26.76445c16.37234,0.23747 29.46814,12.60535 29.2503,27.62441z" fill="url(#color-9)" stroke="none" stroke-width="0" stroke-linecap="butt"/><path d="M350.12598,251.20854c-0.21784,15.01907 -13.66684,27.00192 -30.03917,26.76445c-16.37234,-0.23747 -29.46813,-12.60535 -29.25029,-27.62441c0.21784,-15.01907 13.66684,-27.00192 30.03917,-26.76445c16.37234,0.23747 29.46813,12.60534 29.25029,27.62441z" fill="url(#color-10)" stroke="none" stroke-width="0" stroke-linecap="butt"/><path d="M368.41128,252.89909c-0.21784,15.01907 -13.66684,27.00192 -30.03917,26.76445c-16.37234,-0.23747 -29.46813,-12.60535 -29.25029,-27.62441c0.21784,-15.01907 13.66684,-27.00192 30.03917,-26.76445c16.37234,0.23747 29.46813,12.60534 29.25029,27.62441z" fill="url(#color-11)" stroke="none" stroke-width="0" stroke-linecap="butt"/><path d="M382.59821,254.53019c-0.21784,15.01907 -13.66684,27.00192 -30.03917,26.76445c-16.37234,-0.23747 -29.46813,-12.60535 -29.25029,-27.62441c0.21784,-15.01907 13.66684,-27.00192 30.03917,-26.76445c16.37234,0.23747 29.46813,12.60534 29.25029,27.62441z" fill="url(#color-12)" stroke="none" stroke-width="0" stroke-linecap="butt"/><path d="M379.2498,259.29132c-0.19074,13.15035 -11.96636,23.64224 -26.30158,23.43431c-14.33522,-0.20793 -25.80159,-11.03693 -25.61085,-24.18728c0.19074,-13.15035 11.96634,-23.64224 26.30157,-23.43431c14.33522,0.20793 25.8016,11.03693 25.61086,24.18728z" fill="url(#color-13)" stroke="none" stroke-width="0" stroke-linecap="butt"/><path d="M329.54035,257.38254c-0.19074,13.15035 -11.96636,23.64224 -26.30158,23.43431c-14.33522,-0.20793 -25.80159,-11.03693 -25.61085,-24.18728c0.19074,-13.15035 11.96634,-23.64224 26.30157,-23.43431c14.33522,0.20793 25.8016,11.03693 25.61086,24.18728z" fill="url(#color-14)" stroke="none" stroke-width="0" stroke-linecap="butt"/><path d="M352.69889,262.23199c-0.19074,13.15035 -11.96634,23.64225 -26.30157,23.43432c-14.33522,-0.20793 -25.8016,-11.03694 -25.61086,-24.18729c0.19074,-13.15035 11.96636,-23.64223 26.30158,-23.4343c14.33522,0.20793 25.80159,11.03692 25.61085,24.18727z" fill="url(#color-15)" stroke="none" stroke-width="0" stroke-linecap="butt"/><path d="M331.55109,250.64136c-0.18598,12.82241 -11.66796,23.05266 -25.6457,22.84992c-13.97775,-0.20274 -25.15818,-10.7617 -24.9722,-23.58411c0.18598,-12.82241 11.66796,-23.05268 25.6457,-22.84994c13.97775,0.20274 25.15818,10.76171 24.9722,23.58413z" fill="url(#color-16)" stroke="none" stroke-width="0" stroke-linecap="butt"/><path d="M344.98384,247.74796c-0.18598,12.82241 -11.66796,23.05266 -25.6457,22.84992c-13.97775,-0.20274 -25.15818,-10.7617 -24.9722,-23.58411c0.18598,-12.82241 11.66796,-23.05268 25.6457,-22.84994c13.97775,0.20274 25.15818,10.76171 24.9722,23.58413z" fill="url(#color-17)" stroke="none" stroke-width="0" stroke-linecap="butt"/><path d="M363.01658,248.00951c-0.18598,12.82241 -11.66796,23.05267 -25.6457,22.84993c-13.97775,-0.20274 -25.1582,-10.76171 -24.97222,-23.58412c0.18598,-12.82241 11.66796,-23.05267 25.64572,-22.84993c13.97775,0.20274 25.15818,10.76171 24.9722,23.58412z" fill="url(#color-18)" stroke="none" stroke-width="0" stroke-linecap="butt"/><path d="M376.40798,247.96619c-0.18598,12.82241 -11.66796,23.05267 -25.64572,22.84993c-13.97776,-0.20274 -25.15818,-10.76171 -24.9722,-23.58412c0.18598,-12.82241 11.66795,-23.05267 25.6457,-22.84993c13.97776,0.20274 25.1582,10.76171 24.97222,23.58412z" fill="url(#color-19)" stroke="none" stroke-width="0" stroke-linecap="butt"/></g></g><path d="M377.42227,263.06668c-0.28879,-0.13408 -0.56458,-0.36655 -0.77997,-0.75112c-0.80974,-1.44575 0.85342,-2.14963 0.85342,-2.14963c4.20781,-1.78 7.82891,-3.2473 12.62638,-3.27683c1.07364,-0.00661 2.49232,-0.60002 3.21942,0.08669c0.95889,0.90564 0.63115,2.41023 0.72473,3.63839c0.12426,1.63079 -0.36415,3.25713 -0.39038,4.89134c-0.02118,1.31899 0.16144,2.69834 -0.32759,3.94707c-0.37877,0.96718 -0.2971,2.48923 -1.4138,2.8079c-1.3278,0.37891 -2.72346,-0.66207 -3.92338,-1.28483c-3.13127,-1.62516 -5.45389,-4.6031 -8.57921,-6.33995l-0.99242,-0.43383c0,0 -0.85879,-0.38317 -1.01719,-1.13519z" fill="#ffffff" stroke="none" stroke-width="0.5" stroke-linecap="butt"/><path d="M376.90536,267.30828c0.19395,0.08777 0.3793,0.19645 0.54818,0.34517c0.62201,0.54773 0.97614,1.4064 1.47247,2.10247c0.80706,1.13183 2.50563,1.8192 2.63172,3.19343c0.33119,3.60974 -1.3845,2.9464 -3.03946,3.79049c-2.42063,1.23462 -4.57153,2.77268 -5.61313,-2.17249c-0.15414,-0.73181 0.33252,-1.36186 0.46714,-2.05577c0.23677,-1.2206 0.43332,-2.41081 0.69742,-3.59656c-0.13078,-0.28868 -0.19359,-0.65364 -0.10492,-1.10679c0.20856,-1.06571 0.95831,-1.10265 1.37358,-1.03525l0.1166,-0.10333c0,0 0.90502,-0.17667 1.45043,0.63865z" fill="#ffffff" stroke="none" stroke-width="0.5" stroke-linecap="butt"/><path d="M97.19013,314.25v-268.5h445.61975v268.5z" fill="none" stroke="#ffffff" stroke-width="3.5" stroke-linecap="butt"/></g></g></svg>