<svg version="1.1" xmlns="http://www.w3.org/2000/svg" xmlns:xlink="http://www.w3.org/1999/xlink" width="140.3907" height="211.48576" viewBox="0,0,140.3907,211.48576"><g transform="translate(-247.09722,-11.57812)"><g stroke-miterlimit="10"><path d="M300.61968,172.89926c2.34438,4.38297 0.79047,9.78376 -3.47074,12.06302c-4.26122,2.27926 -9.61611,0.57387 -11.96049,-3.8091c-2.34438,-4.38297 -0.79047,-9.78376 3.47074,-12.06302c4.26122,-2.27926 9.61611,-0.57387 11.96049,3.8091z" fill="#ffc14d" stroke="none" stroke-width="NaN"/><path d="M260.14995,117.23274c-4.26122,2.27925 -9.61611,0.57386 -11.96049,-3.80911c-2.34438,-4.38297 -0.79046,-9.78376 3.47075,-12.06302c4.26122,-2.27925 9.61611,-0.57386 11.96049,3.80911c2.34438,4.38297 0.79046,9.78376 -3.47075,12.06302z" fill="#ffc14d" stroke="none" stroke-width="NaN"/><path d="M320.72898,158.89926c2.34438,4.38297 0.79047,9.78376 -3.47075,12.06302c-4.26122,2.27925 -9.61611,0.57386 -11.96049,-3.80911c-2.34438,-4.38297 -0.79047,-9.78376 3.47075,-12.06302c4.26122,-2.27925 9.61611,-0.57386 11.96049,3.80911z" fill="#ffc14d" stroke="none" stroke-width="NaN"/><path d="M367.18843,102.50306c2.34438,-4.38297 7.69927,-6.08836 11.96049,-3.80911c4.26122,2.27926 5.81513,7.68005 3.47075,12.06302c-2.34438,4.38297 -7.69927,6.08836 -11.96049,3.80911c-4.26122,-2.27926 -5.81513,-7.68005 -3.47075,-12.06302z" fill="#ffc14d" stroke="none" stroke-width="NaN"/><path d="M354.31229,161.26585c0,0.26707 4.01286,41.39495 4.00544,46.22436c-0.02211,14.3897 -5.39091,4.40591 -6.64964,6.56447c-8.26543,14.17416 -38.55628,3.93037 -52.43912,3.93037c-12.9328,0 -16.61799,0.67938 -15.66527,-15.93576c0.278,-4.84833 4.91527,-39.52966 4.91527,-40.9501c0,-2.97641 12.36761,-9.68608 17.3354,-11.71467c1.57293,-0.64231 5.24793,-22.33785 5.24793,-22.33785c0,0 13.95999,-3.50506 19.10186,1.9276c0.63563,0.67158 4.56625,20.22505 5.12545,20.62095c2.24863,1.59195 19.0227,9.74196 19.0227,11.67064z" fill="#ffffff" stroke="#000000" stroke-width="3"/><path d="M277.52776,101.23291c0,-25.16888 19.0279,-45.57229 42.5,-45.57229c23.47211,0 42.5,20.40341 42.5,45.57229c0,25.16888 -19.02789,43.01205 -42.5,43.01205c-23.4721,0 -42.5,-17.84316 -42.5,-43.01204z" fill="#ffffff" stroke="#000000" stroke-width="3"/><path d="M317.17832,97.0634c0,10.06146 -8.04911,18.2179 -17.97819,18.2179c-9.92908,0 -17.97818,-8.15643 -17.97818,-18.2179c0,-10.06146 8.0491,-18.21789 17.97818,-18.21789c9.92908,0 17.97819,8.15643 17.97819,18.21789z" fill="#ffffff" stroke="#000000" stroke-width="3.5"/><path d="M304.58284,92.38793c0,-2.38298 1.93178,-4.31477 4.31476,-4.31477c2.38298,0 4.31476,1.93179 4.31476,4.31477c0,2.38298 -1.93178,4.31477 -4.31476,4.31477c-2.38298,0 -4.31476,-1.93178 -4.31476,-4.31477z" fill="#000000" stroke="none" stroke-width="0.5"/><path d="M342.8272,78.84551c9.92908,0 17.97819,8.15643 17.97819,18.21789c0,10.06146 -8.04911,18.2179 -17.97819,18.2179c-9.92908,0 -17.97819,-8.15643 -17.97819,-18.2179c0,-10.06146 8.04911,-18.21789 17.97819,-18.21789z" fill="#ffffff" stroke="#000000" stroke-width="3.5"/><path d="M332.7964,97.36936c-2.38298,0 -4.31476,-1.93178 -4.31476,-4.31477c0,-2.38298 1.93178,-4.31477 4.31476,-4.31477c2.38298,0 4.31476,1.93179 4.31476,4.31477c0,2.38298 -1.93178,4.31477 -4.31476,4.31477z" fill="#000000" stroke="none" stroke-width="0.5"/><path d="M378.73791,48.91145c4.83249,0 8.75,4.02944 8.75,9c0,4.97056 -3.91751,9 -8.75,9c-4.83249,0 -8.75,-4.02944 -8.75,-9c0,-4.97056 3.91751,-9 8.75,-9z" fill="#ffc14d" stroke="none" stroke-width="NaN"/><path d="M277.57123,142.24479c4.83249,0 8.75,4.02944 8.75,9c0,4.97056 -3.91751,9 -8.75,9c-4.83249,0 -8.75,-4.02944 -8.75,-9c0,-4.97056 3.91751,-9 8.75,-9z" fill="#ffc14d" stroke="none" stroke-width="NaN"/><path d="M368.15457,176.74479c0,-4.97056 3.91751,-9 8.75,-9c4.83249,0 8.75,4.02944 8.75,9c0,4.97056 -3.91751,9 -8.75,9c-4.83249,0 -8.75,-4.02944 -8.75,-9z" fill="#ffc14d" stroke="none" stroke-width="NaN"/><path d="M267.15457,61.41145c0,-4.97056 3.91751,-9 8.75,-9c4.83249,0 8.75,4.02944 8.75,9c0,4.97056 -3.91751,9 -8.75,9c-4.83249,0 -8.75,-4.02944 -8.75,-9z" fill="#ffc14d" stroke="none" stroke-width="NaN"/><path d="M353.73791,11.57812c4.83249,0 8.75,4.02944 8.75,9c0,4.97056 -3.91751,9 -8.75,9c-4.83249,0 -8.75,-4.02944 -8.75,-9c0,-4.97056 3.91751,-9 8.75,-9z" fill="#ffc14d" stroke="none" stroke-width="NaN"/><path d="M335.31481,135.69271c0,3.866 -6.52918,7 -14.58334,7c-8.05415,0 -14.58334,-3.134 -14.58334,-7c0,-3.86599 6.52918,-7 14.58334,-7c8.05415,0 14.58334,3.13401 14.58334,7z" fill="#ffffff" stroke="#000000" stroke-width="3"/></g></g></svg>