<svg version="1.1" xmlns="http://www.w3.org/2000/svg" xmlns:xlink="http://www.w3.org/1999/xlink" width="147.92553" height="122.86774" viewBox="0,0,147.92553,122.86774"><g transform="translate(-233.63928,-44.7831)"><g stroke-miterlimit="10"><path d="" fill="#ffffff" stroke="#000000" stroke-width="3" stroke-linecap="butt"/><path d="" fill="#ffffff" stroke="#000000" stroke-width="3" stroke-linecap="butt"/><path d="" fill="#ffffff" stroke="#000000" stroke-width="3" stroke-linecap="butt"/><path d="" fill="#ffffff" stroke="#000000" stroke-width="3" stroke-linecap="butt"/><path d="M277.52776,101.23292c0,-25.16888 19.0279,-45.57229 42.5,-45.57229c22.36928,0 40.70215,18.53115 42.3755,42.05781c-11.91729,4.54102 -27.7731,8.77993 -37.01506,12.02882c-14.04575,4.9376 -27.6466,11.1469 -40.85945,18.05462c-0.53152,-1.91611 -1.01596,-3.8559 -1.79372,-5.2957c-3.31962,-6.14526 -5.20727,-13.34588 -5.20727,-21.27325z" fill="#ffffff" stroke="#000000" stroke-width="3" stroke-linecap="butt"/><path d="M281.71548,121.16748c-0.13054,-1.25543 -0.42544,-2.31984 -0.42544,-2.31984l8.30148,6.35243c-2.19138,1.1063 -4.37206,2.2335 -6.54227,3.37904c-0.78481,-2.67542 -1.13745,-5.52358 -1.33376,-7.41164z" fill="#ffffff" stroke="#000000" stroke-width="3" stroke-linecap="round"/><path d="" fill="#ffffff" stroke="#000000" stroke-width="3" stroke-linecap="round"/><path d="M324.60946,62.52003c0,0 15.02762,1.63991 17.36885,8.8848" fill="none" stroke="#000000" stroke-width="3" stroke-linecap="round"/><path d="M291.64006,72.76123c13.29234,-13.74358 21.17503,-9.0291 21.17503,-9.0291" fill="none" stroke="#000000" stroke-width="3" stroke-linecap="round"/><path d="M309.29882,63.36483c0,0 -1.22126,7.68893 -7.98819,9.29605" fill="none" stroke="#000000" stroke-width="3" stroke-linecap="round"/><path d="M334.02423,70.90373c-5.98566,-1.64428 -6.68557,-7.90948 -6.68557,-7.90948" fill="none" stroke="#000000" stroke-width="3" stroke-linecap="round"/><path d="M337.61263,59.7148c0,0 -5.17452,0.32143 -8.48791,-2.21991c-3.31338,-2.54133 -3.91749,-4.96216 -3.91749,-4.96216c0.23826,0.32047 -1.34024,-3.80442 -1.08099,-3.49528c4.74566,5.65882 13.48639,10.67736 13.48639,10.67736z" fill="#000000" stroke="#000000" stroke-width="3" stroke-linecap="round"/><path d="M297.99241,61.03832c0,0 8.74073,-5.87543 13.48639,-12.50046c0.25925,-0.36192 -1.31925,4.46727 -1.08099,4.09209c0,0 -0.60411,2.83417 -3.91749,5.80942c-3.31339,2.97526 -8.48791,2.59895 -8.48791,2.59895z" fill="#000000" stroke="#000000" stroke-width="3" stroke-linecap="round"/><path d="M319.93793,106.0993c-3.82245,0 -11.4328,3.18834 -15.11853,7.34864c-2.14273,2.41862 -3.98409,4.90004 -5.66297,7.09618c-4.19553,1.96403 -8.3516,4.01568 -12.46992,6.13776c-0.81948,-1.32812 -0.91628,-3.40019 -0.91628,-5.23525c0,-3.91946 1.8328,-17.16706 7.2842,-28.5683c4.97744,-10.40999 13.03676,-19.17474 24.1574,-20.03232c17.19422,-1.499 26.92929,15.82352 31.44959,29.57406c-7.98677,2.52953 -16.03898,4.86431 -21.91431,6.85818c-2.47338,-1.96424 -4.83055,-3.17894 -6.80919,-3.17894z" fill="#000000" stroke="#000000" stroke-width="3" stroke-linecap="butt"/><path d="" fill="#ffffff" stroke="#000000" stroke-width="1.5" stroke-linecap="butt"/><path d="" fill="#ffffff" stroke="#000000" stroke-width="1.5" stroke-linecap="butt"/><path d="M242.00369,111.79325c7.1035,-3.49352 16.02339,0.10253 19.92313,8.03202c3.89974,7.92948 1.30259,17.18966 -5.8009,20.68318c-7.1035,3.49352 -16.02339,-0.10253 -19.92313,-8.03202c-3.89974,-7.92948 -1.30259,-17.18966 5.8009,-20.68318z" fill="#ffffff" stroke="#000000" stroke-width="1.5" stroke-linecap="butt"/><path d="M376.56481,121.48418c0,-1.38071 1.11929,-2.5 2.5,-2.5c1.38071,0 2.5,1.11929 2.5,2.5c0,1.38071 -1.11929,2.5 -2.5,2.5c-1.38071,0 -2.5,-1.11929 -2.5,-2.5z" fill="#ffffff" stroke="none" stroke-width="0.5" stroke-linecap="butt"/><path d="M357.23148,98.81751c0,-1.38071 1.11929,-2.5 2.5,-2.5c1.38071,0 2.5,1.11929 2.5,2.5c0,1.38071 -1.11929,2.5 -2.5,2.5c-1.38071,0 -2.5,-1.11929 -2.5,-2.5z" fill="#ffffff" stroke="none" stroke-width="0.5" stroke-linecap="butt"/><path d="M350.06481,105.98418c1.38071,0 2.5,1.11929 2.5,2.5c0,1.38071 -1.11929,2.5 -2.5,2.5c-0.56067,0 -1.07822,-0.18456 -1.49523,-0.49625c-0.5447,0.81648 -1.52728,1.0785 -1.52728,1.0785c-1.61039,0.42944 -3.38961,0.9039 -5,1.33333c0,0 -2.41559,0.64416 -3.05974,-1.77143c-0.64416,-2.41559 1.77143,-3.05974 1.77143,-3.05974c0.87809,-0.23416 1.75617,-0.46831 2.63426,-0.70247c-0.13905,-0.13757 -0.27432,-0.30132 -0.40356,-0.49519c-1.38675,-2.08013 0.69338,-3.46688 0.69338,-3.46688l4,-2.66667c0,0 0.93335,-0.62224 1.96645,-0.40789c1.26507,0.12375 2.25363,1.19043 2.25363,2.48801c0,1.21018 -0.85988,2.21952 -2.00198,2.45039l-2.3884,1.59227c0.15592,0.06718 0.31,0.15482 0.4563,0.26815c0.44528,-0.68849 1.2198,-1.14414 2.10075,-1.14414z" fill="#ffffff" stroke="none" stroke-width="0.5" stroke-linecap="butt"/><path d="M315.30088,117.69948c1.11803,2.23607 -1.11803,3.3541 -1.11803,3.3541l-0.13844,-0.02129c-0.88889,0.77778 -1.77778,1.55556 -2.66667,2.33333c0,0 -1.44347,1.26303 -2.90801,0.31216c-0.37751,0.97446 -1.38957,1.42426 -1.38957,1.42426l-3,1.33333c0,0 -2.28453,1.01535 -3.29988,-1.26918c-0.1033,-0.23243 -0.17245,-0.45173 -0.21332,-0.65815c-0.33552,0.12905 -0.67104,0.25809 -1.00656,0.38714c0.21475,0.36899 0.33774,0.79797 0.33774,1.25567c0,1.38071 -1.11929,2.5 -2.5,2.5c-1.29311,0 -2.35692,-0.98177 -2.4867,-2.24058l-1.1023,0.20657c0,0 -1.22513,0.20419 -2.09225,-0.53881c-0.18692,0.42718 -0.4206,0.69981 -0.4206,0.69981l-2,2.33333c0,0 -0.41284,0.48164 -1.06521,0.75173c-0.0242,1.35977 -1.13404,2.45462 -2.4996,2.45462c-1.38071,0 -2.5,-1.11929 -2.5,-2.5c0,-1.0718 0.67447,-1.98606 1.62212,-2.34152c0.04439,-0.91644 0.64641,-1.61879 0.64641,-1.61879l2,-2.33333c0,0 1.61965,-1.88959 3.51229,-0.28211c0.45383,-1.30339 1.97486,-1.55689 1.97486,-1.55689l1.51355,-0.20071c1.44444,-0.55556 2.88889,-1.11111 4.33333,-1.66667c0,0 2.33336,-0.89745 3.23081,1.43592c0.07231,0.18801 0.12365,0.3667 0.15692,0.53634l2.8277,-1.25676c0,0 0.33694,-0.14975 0.80953,-0.20483c-1.16314,-2.13157 0.96547,-3.34791 0.96547,-3.34791l2.33333,-1.33333c0,0 2.04889,-1.17079 3.30293,0.75322c0.72801,-0.18769 2.0578,-0.26534 2.84015,1.29936z" fill="#ffffff" stroke="none" stroke-width="0.5" stroke-linecap="butt"/><path d="M337.23148,112.15084c0,1.38071 -1.11929,2.5 -2.5,2.5c-1.0841,0 -2.00703,-0.69004 -2.35354,-1.65486c-0.03605,-0.03298 -0.07114,-0.067 -0.1052,-0.10202c0.027,1.56967 -1.58939,2.23524 -1.58939,2.23524c-1.54113,0.63458 -3.08226,1.26917 -4.62339,1.90375l-1.04328,0.42958c0,0 -1.26567,0.52116 -2.30961,-0.14429c-0.39259,0.01167 -0.86096,-0.05122 -1.29364,-0.30872c-0.35025,0.95773 -1.26961,1.64132 -2.34863,1.64132c-1.38071,0 -2.5,-1.11929 -2.5,-2.5c0,-1.38071 1.11929,-2.5 2.5,-2.5c0.45483,0 0.88128,0.12146 1.24871,0.33371c0.38107,-1.07321 1.54015,-1.50786 1.54015,-1.50786l2.66667,-1c0,0 0.9709,-0.36409 1.89661,0.00199c0.86905,-0.35784 1.70954,-0.70393 2.36265,-0.97286c0,0 1.70208,-0.70086 2.7866,0.56071c0.04446,-1.34168 1.14611,-2.41568 2.4986,-2.41568c1.0841,0 2.00703,0.69004 2.35354,1.65486c0.49972,0.4571 0.81313,1.11452 0.81313,1.84514z" fill="#ffffff" stroke="none" stroke-width="0.5" stroke-linecap="butt"/><path d="M352.56481,105.81751c0,-1.38071 1.11929,-2.5 2.5,-2.5c1.38071,0 2.5,1.11929 2.5,2.5c0,1.38071 -1.11929,2.5 -2.5,2.5c-1.38071,0 -2.5,-1.11929 -2.5,-2.5z" fill="#ffffff" stroke="none" stroke-width="0.5" stroke-linecap="butt"/><path d="M356.56481,111.81751c0,-1.38071 1.11929,-2.5 2.5,-2.5c1.38071,0 2.5,1.11929 2.5,2.5c0,1.38071 -1.11929,2.5 -2.5,2.5c-1.38071,0 -2.5,-1.11929 -2.5,-2.5z" fill="#ffffff" stroke="none" stroke-width="0.5" stroke-linecap="butt"/><path d="M330.70138,126.29915c-0.81498,-2.36343 1.54846,-3.17841 1.54846,-3.17841c3.15124,-1.08664 6.51542,-2.2467 9.66667,-3.33333c0,0 0.45098,-0.15551 1.02688,-0.13367c0.04023,-0.00192 0.08072,-0.0029 0.12143,-0.0029c1.38071,0 2.5,1.11929 2.5,2.5c0,1.35051 -1.07085,2.4509 -2.40977,2.4984c-3.02077,1.04165 -6.04155,2.08329 -9.06232,3.12494l-0.21294,0.07343c0,0 -2.36343,0.81498 -3.17841,-1.54846z" fill="#ffffff" stroke="none" stroke-width="0.5" stroke-linecap="butt"/><path d="M313.53674,133.01464c-1.19713,-2.19474 0.99761,-3.39187 0.99761,-3.39187l3.82376,-2.07866c0.94297,-0.35581 1.88593,-0.71162 2.8289,-1.06743c0,0 2.34082,-0.87781 3.21863,1.46301c0.87781,2.34082 -1.46301,3.21863 -1.46301,3.21863c-0.83481,0.31086 -1.66963,0.62171 -2.50444,0.93257l-3.50957,1.92134c0,0 -2.19474,1.19713 -3.39187,-0.99761z" fill="#ffffff" stroke="none" stroke-width="0.5" stroke-linecap="butt"/><path d="M302.23148,136.48418c0,-1.38071 1.11929,-2.5 2.5,-2.5c1.38071,0 2.5,1.11929 2.5,2.5c0,1.38071 -1.11929,2.5 -2.5,2.5c-1.38071,0 -2.5,-1.11929 -2.5,-2.5z" fill="#ffffff" stroke="none" stroke-width="0.5" stroke-linecap="butt"/><path d="M309.56481,147.48418c0,-1.38071 1.11929,-2.5 2.5,-2.5c1.38071,0 2.5,1.11929 2.5,2.5c0,1.38071 -1.11929,2.5 -2.5,2.5c-1.38071,0 -2.5,-1.11929 -2.5,-2.5z" fill="#ffffff" stroke="none" stroke-width="0.5" stroke-linecap="butt"/><path d="M320.56481,148.48418c0,-1.38071 1.11929,-2.5 2.5,-2.5c1.38071,0 2.5,1.11929 2.5,2.5c0,1.38071 -1.11929,2.5 -2.5,2.5c-1.38071,0 -2.5,-1.11929 -2.5,-2.5z" fill="#ffffff" stroke="none" stroke-width="0.5" stroke-linecap="butt"/><path d="M344.23148,141.81751c0,-1.38071 1.11929,-2.5 2.5,-2.5c1.38071,0 2.5,1.11929 2.5,2.5c0,1.38071 -1.11929,2.5 -2.5,2.5c-1.38071,0 -2.5,-1.11929 -2.5,-2.5z" fill="#ffffff" stroke="none" stroke-width="0.5" stroke-linecap="butt"/><path d="M353.23148,128.48418c0,-1.38071 1.11929,-2.5 2.5,-2.5c1.38071,0 2.5,1.11929 2.5,2.5c0,1.38071 -1.11929,2.5 -2.5,2.5c-1.38071,0 -2.5,-1.11929 -2.5,-2.5z" fill="#ffffff" stroke="none" stroke-width="0.5" stroke-linecap="butt"/><path d="M356.23148,165.15084c0,-1.38071 1.11929,-2.5 2.5,-2.5c1.38071,0 2.5,1.11929 2.5,2.5c0,1.38071 -1.11929,2.5 -2.5,2.5c-1.38071,0 -2.5,-1.11929 -2.5,-2.5z" fill="#ffffff" stroke="none" stroke-width="0.5" stroke-linecap="butt"/></g></g></svg>