<svg version="1.1" xmlns="http://www.w3.org/2000/svg" xmlns:xlink="http://www.w3.org/1999/xlink" width="168.53528" height="173.73419" viewBox="0,0,168.53528,173.73419"><g transform="translate(-233.63927,-44.7831)"><g stroke-miterlimit="10"><path d="M283.56371,202.0493c0.278,-4.84833 4.91527,-39.52966 4.91527,-40.9501c0,-2.97641 12.36761,-9.68608 17.3354,-11.71467c1.57293,-0.64231 5.24793,-22.33785 5.24793,-22.33785c0,0 13.95999,-3.50506 19.10186,1.9276c0.63563,0.67158 4.56625,20.22505 5.12545,20.62095c1.36871,0.969 8.11909,4.36776 13.19253,7.31429c-2.85476,1.38877 -5.4812,3.21596 -8.41248,4.9068c-13.95927,8.05202 -22.61916,20.395 -32.26448,32.86287c-4.42548,5.72053 -10.90192,9.85704 -15.70757,15.34557c-1.86307,2.12781 -3.85017,4.25206 -5.57093,6.46833c-2.69233,-1.8022 -3.46079,-5.76208 -2.96297,-14.44378z" fill="#ffffff" stroke="#000000" stroke-width="3" stroke-linecap="butt"/><path d="" fill="#ffffff" stroke="#000000" stroke-width="3" stroke-linecap="butt"/><path d="" fill="#ffffff" stroke="#000000" stroke-width="3" stroke-linecap="butt"/><path d="M277.52776,101.23292c0,-25.16888 19.0279,-45.57229 42.5,-45.57229c23.47211,0 42.5,20.40341 42.5,45.57229c0,7.68496 -1.77397,14.68694 -4.90676,20.70655c-1.25157,2.40487 -0.14542,7.57082 -1.80427,9.64302c-2.56084,3.19895 -8.15004,3.06088 -11.52103,5.3513c-6.88062,4.67504 -15.24599,7.31118 -24.26795,7.31118c-8.8277,0 -17.02678,-2.52385 -23.82144,-7.01204c-2.71745,-1.79501 -6.92666,-1.32962 -9.1452,-3.71723c-2.33817,-2.51636 -2.65531,-7.91656 -4.32609,-11.00951c-3.31962,-6.14526 -5.20727,-13.34588 -5.20727,-21.27325z" fill="#ffffff" stroke="#000000" stroke-width="3" stroke-linecap="butt"/><path d="M296.30711,130.33896c0,0 -1.37376,0.04931 -2.2706,0.80529c-1.03776,0.87477 -2.02614,2.25941 -3.24812,3.15923c-1.20439,0.88687 -2.64318,1.29904 -3.56486,0.79534c-4.05428,-2.21564 -5.10714,-10.07557 -5.50805,-13.93134c-0.13054,-1.25543 -0.42544,-2.31984 -0.42544,-2.31984" fill="#ffffff" stroke="#000000" stroke-width="3" stroke-linecap="round"/><path d="M357.56227,122.25931c0,0 -0.2949,1.06441 -0.42544,2.31984c-0.40091,3.85577 0.24381,11.19337 -3.81047,13.40901c-0.92168,0.5037 -3.53572,0.09153 -4.74011,-0.79534c-1.22198,-0.89982 -2.73269,-1.76213 -3.77045,-2.6369c-0.89684,-0.75598 -2.14001,-1.32763 -2.14001,-1.32763" fill="#ffffff" stroke="#000000" stroke-width="3" stroke-linecap="round"/><path d="M324.60946,62.52003c0,0 15.02762,1.63991 17.36885,8.8848" fill="none" stroke="#000000" stroke-width="3" stroke-linecap="round"/><path d="M291.64006,72.76123c13.29234,-13.74358 21.17503,-9.0291 21.17503,-9.0291" fill="none" stroke="#000000" stroke-width="3" stroke-linecap="round"/><path d="M309.29882,63.36483c0,0 -1.22126,7.68893 -7.98819,9.29605" fill="none" stroke="#000000" stroke-width="3" stroke-linecap="round"/><path d="M334.02423,70.90373c-5.98566,-1.64428 -6.68557,-7.90948 -6.68557,-7.90948" fill="none" stroke="#000000" stroke-width="3" stroke-linecap="round"/><path d="M337.61263,59.7148c0,0 -5.17452,0.32143 -8.48791,-2.21991c-3.31338,-2.54133 -3.91749,-4.96216 -3.91749,-4.96216c0.23826,0.32047 -1.34024,-3.80442 -1.08099,-3.49528c4.74566,5.65882 13.48639,10.67736 13.48639,10.67736z" fill="#000000" stroke="#000000" stroke-width="3" stroke-linecap="round"/><path d="M297.99241,61.03832c0,0 8.74073,-5.87543 13.48639,-12.50046c0.25925,-0.36192 -1.31925,4.46727 -1.08099,4.09209c0,0 -0.60411,2.83417 -3.91749,5.80942c-3.31339,2.97526 -8.48791,2.59895 -8.48791,2.59895z" fill="#000000" stroke="#000000" stroke-width="3" stroke-linecap="round"/><path d="M351.81463,117.33325c0,4.60372 2.5426,14.48641 -6.04889,10.81695c-2.25495,-0.96309 -6.9703,-5.43389 -10.62571,-10.0877c-5.10092,-6.49414 -11.00366,-11.9632 -15.2021,-11.9632c-3.82245,0 -11.4328,3.18834 -15.11853,7.34864c-5.20064,5.87027 -8.62597,12.11044 -12.2617,13.74392c-6.37307,2.86332 -6.78746,-1.94832 -6.78746,-5.74523c0,-3.91946 1.8328,-17.16706 7.2842,-28.5683c4.97744,-10.40999 13.03676,-19.17474 24.1574,-20.03232c25.51243,-2.22419 34.60278,36.98911 34.60278,44.48725z" fill="#000000" stroke="#000000" stroke-width="3" stroke-linecap="butt"/><path d="M380.0037,141.50844c-7.1035,-3.49352 -9.70065,-12.7537 -5.8009,-20.68318c3.89975,-7.92948 12.81964,-11.52554 19.92313,-8.03202c3.8061,1.87185 6.31848,5.39925 7.23095,9.49044c-4.02449,4.346 -8.91133,7.99248 -13.28337,11.96956c-2.6465,2.40742 -5.21258,4.88776 -7.72915,7.41669c-0.11399,-0.05204 -0.22756,-0.10587 -0.34066,-0.16149z" fill="#ffffff" stroke="#000000" stroke-width="1.5" stroke-linecap="butt"/><path d="M242.00369,111.79325c7.1035,-3.49352 16.02339,0.10253 19.92313,8.03202c3.89974,7.92948 1.30259,17.18966 -5.8009,20.68318c-7.1035,3.49352 -16.02339,-0.10253 -19.92313,-8.03202c-3.89974,-7.92948 -1.30259,-17.18966 5.8009,-20.68318z" fill="#ffffff" stroke="#000000" stroke-width="1.5" stroke-linecap="butt"/><path d="M286.89814,212.48418c0,-1.38071 1.11929,-2.5 2.5,-2.5c1.38071,0 2.5,1.11929 2.5,2.5c0,1.38071 -1.11929,2.5 -2.5,2.5c-1.38071,0 -2.5,-1.11929 -2.5,-2.5z" fill="#ffffff" stroke="none" stroke-width="0.5" stroke-linecap="butt"/><path d="M297.89814,201.15084c0,-1.38071 1.11929,-2.5 2.5,-2.5c1.38071,0 2.5,1.11929 2.5,2.5c0,1.38071 -1.11929,2.5 -2.5,2.5c-0.1094,0 -0.21716,-0.00703 -0.32285,-0.02065c0.50537,0.45745 0.82285,1.11864 0.82285,1.85399c0,1.38071 -1.11929,2.5 -2.5,2.5c-0.04133,0 -0.08242,-0.001 -0.12326,-0.00299c0.18509,0.349 0.28993,0.74708 0.28993,1.16965c0,1.38071 -1.11929,2.5 -2.5,2.5c-1.38071,0 -2.5,-1.11929 -2.5,-2.5c0,-1.38071 1.11929,-2.5 2.5,-2.5c0.04133,0 0.08242,0.001 0.12326,0.00299c-0.18509,-0.349 -0.28993,-0.74708 -0.28993,-1.16965c0,-1.38071 1.11929,-2.5 2.5,-2.5c0.1094,0 0.21716,0.00703 0.32285,0.02065c-0.50537,-0.45745 -0.82285,-1.11864 -0.82285,-1.85399z" fill="#ffffff" stroke="none" stroke-width="0.5" stroke-linecap="butt"/><path d="M328.39814,166.98418c1.38071,0 2.5,1.11929 2.5,2.5c0,0.77477 -0.35243,1.46722 -0.90573,1.92578l-2.6421,3.30262c0,0 -0.4294,0.53676 -1.11934,0.8222c-0.01649,0.83045 -0.43791,1.5616 -1.07494,2.00409c0.04927,0.19583 0.07545,0.40085 0.07545,0.61197c0,1.38071 -1.11929,2.5 -2.5,2.5c-0.23467,0 -0.46179,-0.03233 -0.67715,-0.09279c0.1143,0.28642 0.17715,0.59893 0.17715,0.92612c0,1.38071 -1.11929,2.5 -2.5,2.5c-0.61699,0 -1.18179,-0.22351 -1.61782,-0.59398c0.07652,0.23985 0.11782,0.49543 0.11782,0.76065c0,1.38071 -1.11929,2.5 -2.5,2.5c-0.28429,0 -0.55749,-0.04745 -0.81213,-0.13487c-0.17454,0.93359 -0.92075,1.55542 -0.92075,1.55542l-2,1.66667c0,0 -0.34105,0.28421 -0.85548,0.46937c-0.1237,0.18459 -0.27134,0.3518 -0.43847,0.49716c-0.88407,1.37523 -2.01159,3.12913 -2.87023,4.46481c0,0 -0.14446,0.22471 -0.41238,0.48c0.09245,0.26106 0.14277,0.54204 0.14277,0.83478c0,1.38071 -1.11929,2.5 -2.5,2.5c-1.38071,0 -2.5,-1.11929 -2.5,-2.5c0,-0.70506 0.29187,-1.34195 0.76138,-1.79644c-0.40556,-1.12093 0.30234,-2.22212 0.30234,-2.22212c0.90126,-1.40196 1.80253,-2.80393 2.70379,-4.20589l0.29621,-0.46077c0,0 0.17343,-0.26978 0.49268,-0.55397c0.30826,-0.38053 0.72602,-0.66874 1.20533,-0.81667c0.23677,-0.33604 0.47114,-0.53135 0.47114,-0.53135l2,-1.66667c0,0 1.1831,-0.98592 2.46596,-0.48154c0.19233,-1.18954 1.224,-2.09791 2.46783,-2.09791c0.61699,0 1.18179,0.22351 1.61782,0.59398c-0.07652,-0.23985 -0.11782,-0.49543 -0.11782,-0.76065c0,-1.38071 1.11929,-2.5 2.5,-2.5c0.23467,0 0.46179,0.03233 0.67715,0.09279c-0.1143,-0.28642 -0.17715,-0.59893 -0.17715,-0.92612c0,-0.85131 0.42551,-1.60323 1.07545,-2.05469c-0.04927,-0.19583 -0.07545,-0.40085 -0.07545,-0.61197c0,-1.07337 0.67645,-1.98875 1.62629,-2.34308c0.04685,-0.8753 0.5882,-1.55199 0.5882,-1.55199l2.66667,-3.33333c0,0 0.11807,-0.14759 0.32986,-0.32914c0.45806,-0.57438 1.16387,-0.94246 1.95564,-0.94246z" fill="#ffffff" stroke="none" stroke-width="0.5" stroke-linecap="butt"/><path d="M339.89814,167.81751c0,-1.38071 1.11929,-2.5 2.5,-2.5c0.52711,0 1.01611,0.16313 1.41929,0.44166c-0.36567,-0.43472 -0.58595,-0.9958 -0.58595,-1.60832c0,-0.3853 0.08716,-0.75024 0.24285,-1.07618c-0.32594,0.15568 -0.69088,0.24285 -1.07618,0.24285c-0.17217,0 -0.34027,-0.0174 -0.50265,-0.05055c-0.04283,0.93682 -0.60126,1.73916 -1.39816,2.1299c-0.26133,1.10135 -1.25125,1.92065 -2.43253,1.92065c-0.80814,0 -1.52671,-0.38345 -1.98372,-0.97833c0.3041,0.41406 0.48372,0.92521 0.48372,1.47833c0,1.38071 -1.11929,2.5 -2.5,2.5c-1.38071,0 -2.5,-1.11929 -2.5,-2.5c0,-1.38071 1.11929,-2.5 2.5,-2.5c0.80814,0 1.52671,0.38345 1.98372,0.97833c-0.3041,-0.41406 -0.48372,-0.92521 -0.48372,-1.47833c0,-0.98632 0.57118,-1.83923 1.4008,-2.24602c0.26133,-1.10135 1.25125,-1.92065 2.43253,-1.92065c0.17217,0 0.34027,0.0174 0.50265,0.05055c0.06066,-1.32681 1.15556,-2.38388 2.49735,-2.38388c0.79216,0 1.49827,0.36844 1.95631,0.9433c-0.07982,-0.24447 -0.12298,-0.50551 -0.12298,-0.77663c0,-1.38071 1.11929,-2.5 2.5,-2.5c1.38071,0 2.5,1.11929 2.5,2.5c0,0.6468 -0.24563,1.23624 -0.6487,1.68011c0.59699,0.45686 0.98203,1.17675 0.98203,1.98656c0,0.96307 -0.54457,1.79895 -1.34258,2.21651c-0.10975,1.27934 -1.18299,2.28349 -2.49075,2.28349c-0.52711,0 -1.01611,-0.16313 -1.41929,-0.44166c0.36567,0.43472 0.58595,0.9958 0.58595,1.60832c0,1.38071 -1.11929,2.5 -2.5,2.5c-1.38071,0 -2.5,-1.11929 -2.5,-2.5zM344.77516,160.04088c0.07982,0.24447 0.12298,0.50551 0.12298,0.77663c0,0.02942 -0.00051,0.05873 -0.00152,0.08791c0.08999,-0.15633 0.1964,-0.30201 0.31688,-0.43468c-0.16311,-0.12483 -0.31041,-0.26929 -0.43834,-0.42986z" fill="#ffffff" stroke="none" stroke-width="0.5" stroke-linecap="butt"/><path d="M318.89814,191.15084c0,-1.38071 1.11929,-2.5 2.5,-2.5c1.38071,0 2.5,1.11929 2.5,2.5c0,1.38071 -1.11929,2.5 -2.5,2.5c-1.38071,0 -2.5,-1.11929 -2.5,-2.5z" fill="#ffffff" stroke="none" stroke-width="0.5" stroke-linecap="butt"/><path d="M307.50307,204.10301c-1.95217,-1.56174 -0.39043,-3.51391 -0.39043,-3.51391l2.66667,-3.33333c0,0 0.72086,-0.90108 1.79528,-0.98911c-0.4027,-1.70187 1.27612,-2.63455 1.27612,-2.63455l3,-1.66667c0,0 2.18539,-1.21411 3.3995,0.97129c1.21411,2.18539 -0.97129,3.3995 -0.97129,3.3995l-3,1.66667c0,0 -0.44214,0.24564 -1.03917,0.31706c0.20598,1.10668 -0.5561,2.05929 -0.5561,2.05929l-2.66667,3.33333c0,0 -1.56174,1.95217 -3.51391,0.39043z" fill="#ffffff" stroke="none" stroke-width="0.5" stroke-linecap="butt"/><path d="M300.23148,213.15084c0,-0.97451 0.55758,-1.81879 1.37112,-2.23122c-0.02484,-0.14141 -0.03779,-0.28692 -0.03779,-0.43545c0,-1.38071 1.11929,-2.5 2.5,-2.5c1.38071,0 2.5,1.11929 2.5,2.5c0,0.97451 -0.55758,1.81879 -1.37112,2.23122c0.02484,0.14141 0.03779,0.28692 0.03779,0.43545c0,1.38071 -1.11929,2.5 -2.5,2.5c-1.38071,0 -2.5,-1.11929 -2.5,-2.5z" fill="#ffffff" stroke="none" stroke-width="0.5" stroke-linecap="butt"/><path d="M328.23148,182.48418c0,-1.38071 1.11929,-2.5 2.5,-2.5c0.3853,0 0.75024,0.08716 1.07618,0.24285c-0.15568,-0.32594 -0.24285,-0.69088 -0.24285,-1.07618c0,-1.20383 0.85088,-2.20893 1.98403,-2.44669c-0.20213,-0.36085 -0.31736,-0.77695 -0.31736,-1.21997c0,-1.38071 1.11929,-2.5 2.5,-2.5c1.38071,0 2.5,1.11929 2.5,2.5c0,1.20383 -0.85088,2.20893 -1.98403,2.44669c0.20213,0.36085 0.31736,0.77695 0.31736,1.21997c0,1.38071 -1.11929,2.5 -2.5,2.5c-0.3853,0 -0.75024,-0.08716 -1.07618,-0.24285c0.15568,0.32594 0.24285,0.69088 0.24285,1.07618c0,0.72435 -0.30806,1.37675 -0.80031,1.83333c0.49225,0.45658 0.80031,1.10898 0.80031,1.83333c0,1.38071 -1.11929,2.5 -2.5,2.5c-1.38071,0 -2.5,-1.11929 -2.5,-2.5c0,-0.72435 0.30806,-1.37675 0.80031,-1.83333c-0.49225,-0.45658 -0.80031,-1.10898 -0.80031,-1.83333z" fill="#ffffff" stroke="none" stroke-width="0.5" stroke-linecap="butt"/><path d="M342.23148,185.15084c0,-1.38071 1.11929,-2.5 2.5,-2.5c1.38071,0 2.5,1.11929 2.5,2.5c0,1.38071 -1.11929,2.5 -2.5,2.5c-1.38071,0 -2.5,-1.11929 -2.5,-2.5z" fill="#ffffff" stroke="none" stroke-width="0.5" stroke-linecap="butt"/><path d="M339.89814,191.48418c0,-1.38071 1.11929,-2.5 2.5,-2.5c1.38071,0 2.5,1.11929 2.5,2.5c0,1.38071 -1.11929,2.5 -2.5,2.5c-1.38071,0 -2.5,-1.11929 -2.5,-2.5z" fill="#ffffff" stroke="none" stroke-width="0.5" stroke-linecap="butt"/><path d="M335.56481,197.48418c0,-1.38071 1.11929,-2.5 2.5,-2.5c1.38071,0 2.5,1.11929 2.5,2.5c0,1.38071 -1.11929,2.5 -2.5,2.5c-1.38071,0 -2.5,-1.11929 -2.5,-2.5z" fill="#ffffff" stroke="none" stroke-width="0.5" stroke-linecap="butt"/><path d="M316.89814,208.48418c0,-1.38071 1.11929,-2.5 2.5,-2.5c0.15297,0 0.30274,0.01374 0.44813,0.04005c0.03548,-1.33529 1.33776,-2.05878 1.33776,-2.05878l3,-1.66667c0,0 2.18539,-1.21411 3.3995,0.97129c1.21411,2.18539 -0.97129,3.3995 -0.97129,3.3995l-3,1.66667c0,0 -0.81089,0.45049 -1.71919,0.30871c-0.08288,1.30579 -1.16821,2.33923 -2.49491,2.33923c-1.38071,0 -2.5,-1.11929 -2.5,-2.5z" fill="#ffffff" stroke="none" stroke-width="0.5" stroke-linecap="butt"/><path d="M342.23148,204.15084c0,-1.38071 1.11929,-2.5 2.5,-2.5c1.38071,0 2.5,1.11929 2.5,2.5c0,1.38071 -1.11929,2.5 -2.5,2.5c-1.38071,0 -2.5,-1.11929 -2.5,-2.5z" fill="#ffffff" stroke="none" stroke-width="0.5" stroke-linecap="butt"/><path d="M348.23148,178.15084c0,-1.38071 1.11929,-2.5 2.5,-2.5c1.38071,0 2.5,1.11929 2.5,2.5c0,1.38071 -1.11929,2.5 -2.5,2.5c-1.38071,0 -2.5,-1.11929 -2.5,-2.5z" fill="#ffffff" stroke="none" stroke-width="0.5" stroke-linecap="butt"/><path d="M381.56481,141.15084c0,-1.38071 1.11929,-2.5 2.5,-2.5c1.38071,0 2.5,1.11929 2.5,2.5c0,1.38071 -1.11929,2.5 -2.5,2.5c-1.38071,0 -2.5,-1.11929 -2.5,-2.5z" fill="#ffffff" stroke="none" stroke-width="0.5" stroke-linecap="butt"/><path d="M387.89814,133.15084c0,-1.38071 1.11929,-2.5 2.5,-2.5c1.38071,0 2.5,1.11929 2.5,2.5c0,0.96049 -0.54166,1.79447 -1.33617,2.21315c0.00188,0.03982 0.00284,0.07989 0.00284,0.12018c0,1.38071 -1.11929,2.5 -2.5,2.5c-1.38071,0 -2.5,-1.11929 -2.5,-2.5c0,-0.96049 0.54166,-1.79447 1.33617,-2.21315c-0.00188,-0.03982 -0.00284,-0.07989 -0.00284,-0.12018z" fill="#ffffff" stroke="none" stroke-width="0.5" stroke-linecap="butt"/><path d="M398.98024,129.63844c-2.48759,0.24876 -2.73635,-2.23883 -2.73635,-2.23883l-0.00873,-0.08732c-0.26808,-0.01725 -0.52465,-0.07676 -0.76313,-0.17192c0.06046,0.21536 0.09279,0.44248 0.09279,0.67715c0,1.38071 -1.11929,2.5 -2.5,2.5c-1.38071,0 -2.5,-1.11929 -2.5,-2.5c0,-1.38071 1.11929,-2.5 2.5,-2.5c0.32719,0 0.63971,0.06286 0.92612,0.17715c-0.06046,-0.21536 -0.09279,-0.44248 -0.09279,-0.67715c0,-1.36094 1.08746,-2.46789 2.44084,-2.49931c0.3194,-0.4793 0.86893,-0.89413 1.8104,-0.98828c2.48759,-0.24876 2.73635,2.23883 2.73635,2.23883l0.33333,3.33333c0,0 0.24876,2.48759 -2.23883,2.73635z" fill="#ffffff" stroke="none" stroke-width="0.5" stroke-linecap="butt"/><path d="M393.23148,133.15084c0,-1.38071 1.11929,-2.5 2.5,-2.5c1.38071,0 2.5,1.11929 2.5,2.5c0,1.38071 -1.11929,2.5 -2.5,2.5c-1.38071,0 -2.5,-1.11929 -2.5,-2.5z" fill="#ffffff" stroke="none" stroke-width="0.5" stroke-linecap="butt"/><path d="M390.56481,139.81751c0,-1.38071 1.11929,-2.5 2.5,-2.5c1.38071,0 2.5,1.11929 2.5,2.5c0,1.38071 -1.11929,2.5 -2.5,2.5c-1.38071,0 -2.5,-1.11929 -2.5,-2.5z" fill="#ffffff" stroke="none" stroke-width="0.5" stroke-linecap="butt"/></g></g></svg>