<svg version="1.1" xmlns="http://www.w3.org/2000/svg" xmlns:xlink="http://www.w3.org/1999/xlink" width="88" height="169.30329" viewBox="0,0,88,169.30329"><g transform="translate(-276.02776,-53.76059)"><g stroke-miterlimit="10"><path d="M354.31229,161.26585c0,0.26707 4.01286,41.39495 4.00544,46.22436c-0.02211,14.3897 -5.39091,4.40591 -6.64964,6.56447c-8.26543,14.17416 -38.55628,3.93037 -52.43912,3.93037c-12.9328,0 -16.61799,0.67938 -15.66527,-15.93576c0.278,-4.84833 4.91527,-39.52966 4.91527,-40.9501c0,-2.97641 12.36761,-9.68608 17.3354,-11.71467c1.57293,-0.64231 5.24793,-22.33785 5.24793,-22.33785c0,0 13.95999,-3.50506 19.10186,1.9276c0.63563,0.67158 4.56625,20.22505 5.12545,20.62095c2.24863,1.59195 19.0227,9.74196 19.0227,11.67064z" fill="#ffffff" stroke="#000000" stroke-width="3" stroke-linecap="butt"/><path d="M277.52776,100.83288c0,-25.16888 19.0279,-45.57229 42.5,-45.57229c23.47211,0 42.5,20.40341 42.5,45.57229c0,25.16888 -19.02789,43.01205 -42.5,43.01205c-23.4721,0 -42.5,-17.84316 -42.5,-43.01204z" fill="#ffffff" stroke="#000000" stroke-width="3" stroke-linecap="butt"/><path d="M316.84499,100.93004c0,10.06146 -8.04911,18.2179 -17.97819,18.2179c-9.92908,0 -17.97818,-8.15643 -17.97818,-18.2179c0,-10.06146 8.0491,-18.21789 17.97818,-18.21789c9.92908,0 17.97819,8.15643 17.97819,18.21789z" fill="#ffffff" stroke="#000000" stroke-width="3.5" stroke-linecap="butt"/><path d="M301.41617,102.52125c0,-3.04572 2.46904,-5.51477 5.51476,-5.51477c3.04572,0 5.51476,2.46905 5.51476,5.51477c0,3.04572 -2.46904,5.51477 -5.51476,5.51477c-3.04572,0 -5.51476,-2.46904 -5.51476,-5.51477z" fill="#000000" stroke="none" stroke-width="0.5" stroke-linecap="butt"/><path d="M342.49387,82.51215c9.92908,0 17.97819,8.15643 17.97819,18.21789c0,10.06146 -8.04911,18.2179 -17.97819,18.2179c-9.92908,0 -17.97819,-8.15643 -17.97819,-18.2179c0,-10.06146 8.04911,-18.21789 17.97819,-18.21789z" fill="#ffffff" stroke="#000000" stroke-width="3.5" stroke-linecap="butt"/><path d="M334.72973,107.83601c-2.88004,0 -5.21476,-2.33472 -5.21476,-5.21477c0,-2.88004 2.33472,-5.21477 5.21476,-5.21477c2.88004,0 5.21476,2.33474 5.21476,5.21477c0,2.88004 -2.33472,5.21477 -5.21476,5.21477z" fill="#000000" stroke="none" stroke-width="0.5" stroke-linecap="butt"/><path d="M281.6363,64.11279c0,0 4.24684,-7.23443 13.09961,-1.16241c4.41707,3.02962 14.95479,18.21321 16.96579,19.05022c2.68546,1.11775 5.20275,-3.20848 5.20275,-3.20848" fill="none" stroke="#000000" stroke-width="3.5" stroke-linecap="round"/><path d="M328.67025,79.14614c0,0 3.34189,1.22745 3.82636,-0.11933c2.64293,-7.34705 9.65785,-13.74142 14.43785,-13.0726c8.22357,1.15066 14.53579,14.19193 14.53579,14.19193" fill="none" stroke="#000000" stroke-width="3.5" stroke-linecap="round"/><path d="M344.26625,126.78572c0,0 9.92308,5.63099 -24.76813,5.92737c-34.00158,0.29049 -26.47941,-5.66388 -26.47941,-5.66388" fill="none" stroke="#000000" stroke-width="3.5" stroke-linecap="round"/></g></g></svg>