<svg version="1.1" xmlns="http://www.w3.org/2000/svg" xmlns:xlink="http://www.w3.org/1999/xlink" width="100" height="100" viewBox="0,0,100,100"><g transform="translate(-270,-130)"><g stroke-miterlimit="10"><path d="M282.5,230c-6.90356,0 -12.5,-5.59644 -12.5,-12.5v-75c0,-6.90356 5.59644,-12.5 12.5,-12.5h75c6.90356,0 12.5,5.59644 12.5,12.5v75c0,6.90356 -5.59644,12.5 -12.5,12.5z" fill="#28263a" stroke="none" stroke-width="0" stroke-linecap="butt"/><text transform="translate(310.36432,199.24245) scale(0.21831,0.21831)" font-size="40" xml:space="preserve" fill="#ffffff" stroke="none" stroke-width="1" stroke-linecap="butt" font-family="Sans Serif" font-weight="normal" text-anchor="start"><tspan x="0" dy="0">Safe</tspan></text><path d="M315.24722,179.15189c-0.82843,0 -1.5,-0.67157 -1.5,-1.5v-6.6c0,-0.82843 0.67157,-1.5 1.5,-1.5h8.8c0.82843,0 1.5,0.67157 1.5,1.5v6.6c0,0.82843 -0.67157,1.5 -1.5,1.5z" fill="none" stroke="#ffffff" stroke-width="2" stroke-linecap="butt"/><path d="M316.34722,169.35189c0,0 -1.0353,-5.1354 3.3,-5.3c4.63538,-0.17599 3.6,5.2 3.6,5.2" fill="none" stroke="#ffffff" stroke-width="2" stroke-linecap="round"/><path d="M318.12566,174.32571c0,-0.82843 0.67157,-1.5 1.5,-1.5c0.82843,0 1.5,0.67157 1.5,1.5c0,0.82843 -0.67157,1.5 -1.5,1.5c-0.82843,0 -1.5,-0.67157 -1.5,-1.5z" fill="#ffffff" stroke="none" stroke-width="2" stroke-linecap="butt"/></g></g></svg>